<?xml version="1.0" standalone="no"?>
<!DOCTYPE svg PUBLIC "-//W3C//DTD SVG 1.1//EN" "http://www.w3.org/Graphics/SVG/1.1/DTD/svg11.dtd" >
<svg xmlns="http://www.w3.org/2000/svg">
<metadata>
This is a custom SVG webfont generated by Font Squirrel.
Copyright   : C 1994 Brendel Informatik GmbH
</metadata>
<defs>
<font id="BellamyBoldRegular" horiz-adv-x="1089" >
<font-face units-per-em="2048" ascent="1638" descent="-410" />
<missing-glyph horiz-adv-x="362" />
<glyph unicode=" "  horiz-adv-x="362" />
<glyph unicode="&#x09;" horiz-adv-x="362" />
<glyph unicode="&#xa0;" horiz-adv-x="362" />
<glyph unicode="!" horiz-adv-x="587" d="M61 201q0 35 24 60.5t69 47.5q16 6 49 10q16 0 39.5 -11t38.5 -34l65 -73q20 -20 21 -54q0 -8 -2.5 -26.5t-9.5 -55t-51 -56t-71 -19.5q-47 0 -69 28l-74 84q-29 42 -29 99zM229 502q0 78 28 165t81 214q43 104 86 188l55 113l37 78q18 96 33 129q12 37 123 61l37 4 q41 0 82 -43l55 -55q14 -10 16 -35q0 -25 -31 -78l-63 -90l-55 -78q-59 -88 -111.5 -180t-95.5 -197l-70 -190l-39 -119q-14 -47 -41 -41q-43 16 -64.5 28.5t-42 39.5t-20.5 86z" />
<glyph unicode="&#x22;" horiz-adv-x="520" d="M365 1313q0 43 9 70.5t27.5 39t44.5 11.5q20 0 42 -12.5t33 -46.5t11 -70v-39q-6 -31 -8 -47l-8 -60l-45 -366h-41l-45 364l-12 72zM600 1311q0 45 6 71.5t25.5 39t48.5 12.5q25 0 44 -11.5t29.5 -37t10.5 -80.5l-6 -93l-8 -53l-45 -366h-41l-48 364l-10 66z" />
<glyph unicode="#" horiz-adv-x="1306" d="M63 401l48 129h315l106 291h-317l45 131h320l161 461h168l-159 -461h278l162 461h168l-160 -461h318l-48 -131h-319l-105 -291h320l-47 -129h-320l-166 -467h-169l165 467h-276l-166 -467h-170l166 467h-318zM596 530h278l107 291h-283z" />
<glyph unicode="$" horiz-adv-x="966" d="M61 289q0 55 11.5 94t54.5 88q33 39 88 39q18 0 41 -4t47 -21q23 -10 29 -57l2 -76q0 -20 2 -30.5t14 -34.5q12 -35 56 -35q27 109 59.5 198t64.5 160q-115 90 -169 167t-54 186q0 104 61.5 202.5t159 165t164.5 84.5q59 12 162 27q10 31 19.5 55.5t20.5 49t30 26.5 q25 6 38 -7.5t15 -23.5l-6 -24l-6 -21l-25 -67q51 -25 78 -60q20 -27 53 -106l33 -86q16 -45 16 -93q0 -47 -24.5 -135t-60.5 -114.5t-79 -26.5q-25 0 -47 13.5t-41.5 39t-31.5 70.5q-6 18 6 53l20 68q6 20 10 63q0 31 -7 43t-21 12l-137 -370q119 -98 182 -163t63 -202 q0 -92 -51 -185t-170 -180t-307 -87l-33 -93q-16 -45 -28.5 -62t-36.5 -19q-23 0 -37.5 17t-14.5 34q0 23 15 65l24 66q-111 41 -167 89t-70 112zM504 242q59 0 100 36.5t60 83.5q12 37 16 70q0 66 -70 123l-53 -141zM590 950q0 -27 9 -46t26 -36l114 291q-39 0 -80 -41 q-41 -37 -55 -84q-6 -18 -10 -38.5t-4 -45.5z" />
<glyph unicode="%" horiz-adv-x="1120" d="M188 88q0 86 84 203l177 233q88 111 210 244q111 123 248 250l234 211l149 131l72 51q20 10 53 10q27 0 44.5 -8t29.5 -29l14 -41q6 -37 -45 -81l-198 -166l-232 -203q-92 -82 -192 -188q-49 -53 -98.5 -108.5t-100.5 -119.5q-88 -109 -152 -201l-82 -124l-67 -119 q-23 -41 -68 -41q-43 0 -63 35q-13 28 -17 61zM358 1042l13 82q12 66 105 173.5t194 136.5l26 6l29 4q18 0 33.5 -7t27.5 -28l35 -63l43 -60q10 -16 15 -43l-5 -26q0 -14 -2 -25q-8 -31 -14 -51q-12 -61 -82.5 -146.5t-134 -105t-102.5 -19.5h-37l-27 9q-35 10 -76 46.5 t-41 116.5zM524 1079q0 -31 15 -47q14 -8 53 6q37 18 79 72.5t58 95.5l4 27q0 14 -10 22q-4 6 -27 9l-39 -9q-18 -6 -77 -73q-56 -68 -56 -103zM563 147l6 46q14 102 110.5 212.5t194.5 137.5l27 6l29 4q39 0 61 -37l37 -63l16 -27l25 -29q12 -20 14 -47l-6 -33l-6 -41 q-20 -90 -90 -174t-137.5 -104.5t-98.5 -20.5q-41 0 -67 11q-29 6 -72 46.5t-43 112.5zM729 190q0 -37 14 -49q6 -6 19 -6q10 0 35 10q39 18 80 73.5t51 82.5l8 31v12q0 12 -10 21l-23 8l-24 -4q-37 -12 -97 -80q-49 -62 -53 -99z" />
<glyph unicode="&#x26;" horiz-adv-x="1290" d="M88 344q0 111 38 200t103 134l117 72l84 49q35 18 39 28q6 6 6 33l-2 58v59q0 96 31 180t132 178.5t222 94.5q25 0 68 -12.5t67 -55.5q16 -35 29.5 -64.5t34.5 -64.5l47 -78q29 -53 29 -108v-33l-21 -64q-12 -49 -94 -116.5t-205 -128.5l-35 -17q8 -45 13.5 -69.5 t17.5 -63.5t27.5 -65.5t27.5 -28.5q12 0 19 6q29 29 53 90l12 59q0 37 29 54q23 18 76 18q16 0 26.5 -2t45 -16.5t53.5 -85.5l4 -41q0 -66 -32 -117t-103 -129l-7 -18q0 -27 52 -41q8 -2 22 -2q12 0 36 7t65.5 33.5t60.5 30.5q16 0 16 -39l-6 -41l-12 -55q-25 -74 -76 -117 t-96 -57q-23 -8 -43.5 -12t-50.5 -4q-41 0 -80 12t-76 37l-70 55q-92 -41 -176 -70q-80 -23 -153 -22q-92 0 -181 45q-84 47 -134 132t-50 173zM369 367q0 -39 16 -60.5t49 -42.5q33 -16 72 -16l57 6l51 14q16 6 23 15q6 6 -2 18l-51 113l-31 80q-18 61 -27 69 q-16 12 -71 -31q-49 -43 -67.5 -82.5t-18.5 -82.5zM739 971l4 -25q59 23 90 41.5t62 61.5q10 14 16.5 30.5t6.5 34.5q0 16 -11 37q-6 23 -43 35q-23 4 -41 -3t-36.5 -25.5t-33 -49.5t-14.5 -90v-47z" />
<glyph unicode="'" horiz-adv-x="446" d="M358 866q-6 10 4 21q61 61 112.5 130.5t51.5 121.5l-6 30q-6 16 -44 46t-44 69q-2 23 6 59q12 33 44 63t93 30l35 -6q20 -4 43 -27q23 -16 45 -49l35 -43q10 -10 17 -33l6 -37q0 -63 -38 -130t-94.5 -123t-115.5 -85l-129 -45q-13 0 -21 8z" />
<glyph unicode="(" horiz-adv-x="782" d="M229 256q0 293 110 597t259 466q76 82 145.5 149.5t126.5 114.5q123 100 195 119l31 4q41 0 62.5 -24.5t31.5 -49.5l8 -47l-8 -51q-6 -31 -35 -43l-78 -45q-49 -31 -104 -86q-55 -49 -99 -98q-20 -20 -57 -66.5t-84 -110.5q-98 -129 -166.5 -327.5t-68.5 -407.5 q0 -225 42 -340.5t42 -136.5q0 -29 -45 -69t-86 -40l-58 19q-43 18 -68.5 44t-62.5 136q-16 57 -24.5 125t-8.5 168z" />
<glyph unicode=")" horiz-adv-x="782" d="M-82 -115q0 29 4 39l8 29q0 12 35 31q29 10 76 43l98 79l97 95q39 39 143 178q94 127 170 334q33 98 51 202.5t18 204.5q0 217 -43 344l-40 135q0 23 46 66t83 43q16 0 58 -18.5t69.5 -44t61.5 -135t34 -289.5q0 -293 -107.5 -599.5t-259.5 -465.5q-78 -84 -141 -146 q-72 -70 -133 -119q-123 -104 -193 -122l-30 -5q-43 0 -78 35q-27 33 -27 86z" />
<glyph unicode="*" horiz-adv-x="634" d="M348 1092q2 14 2 22q4 25 13.5 43.5t33.5 24.5l86 12q12 4 15 8q6 6 -2 17l-47 51q-14 16 -11 43q2 16 21 35q14 18 45 26l24 6q20 0 39 -12t60 -53l37 74q10 20 23 33.5t42 13.5l29 -6q14 -2 33 -19q18 -12 18 -35l-4 -18l-17 -60l89 43l24 11l21 4q18 -6 18 -41l-4 -45 q-6 -43 -13.5 -55.5t-33.5 -26.5l-49 -21q-25 -10 -25 -22q0 -14 8 -25l35 -24l45 -35q8 -12 0 -29l-57 -55q-31 -31 -60 -31q-12 0 -28 10l-33 23q-14 12 -31 6q-12 -6 -24 -37l-21 -47q-12 -27 -24.5 -34t-38.5 -7h-41q-18 0 -35 14q-10 12 -14 33l4 21l22 53l13 35l4 18 q-6 8 -21 6l-22 -6l-43 -10l-54 -10q-20 0 -30 10l-17 37q-4 21 -4 31z" />
<glyph unicode="+" horiz-adv-x="1449" d="M184 532v252h531v539h248v-539h528v-252h-528v-532h-248v532h-531z" />
<glyph unicode="," horiz-adv-x="419" d="M-66 -250q-6 10 5 19q76 76 119.5 146.5t43.5 107.5l-6 30q-6 16 -43 47q-37 25 -43 68q-2 23 6 59q12 37 33 54.5t49 29.5l56 8l36 -4q18 -6 41 -28l41 -45l33 -41l21 -35l8 -45q0 -57 -41 -125q-35 -63 -92 -121q-49 -55 -101 -80q-23 -12 -58.5 -24.5t-86.5 -28.5 q-13 0 -21 8z" />
<glyph unicode="-" horiz-adv-x="745" d="M106 465q-6 35 17 45l108 31l131 26l82 11l80 4h23l35 -9q18 0 36 -24q16 -16 28.5 -56t12.5 -75q0 -43 -12 -60q-10 -6 -29 -10l-47 8h-49l-59 -8l-66 -12q-27 -4 -34 -5t-39 -12l-70 -18l-35 -6q-31 0 -56.5 29.5t-56.5 140.5z" />
<glyph unicode="." horiz-adv-x="425" d="M8 201q0 35 24.5 62.5t69.5 45.5q16 6 50 10q20 0 38.5 -9t53.5 -50l51 -61q18 -18 18 -58l-4 -37q-14 -76 -56 -95t-71 -19q-49 0 -71 28l-70 84q-33 46 -33 99z" />
<glyph unicode="/" horiz-adv-x="559" d="M-16 -8q-6 20 16 78l80 172q29 55 58.5 110.5t62.5 110.5l180 293l180 291l111 176l110 170l99 151q10 14 20 31q18 25 33 37q27 23 59 22q16 0 33 -18q12 -25 6 -39l-43 -49l-65 -86l-78 -119l-117 -178l-162 -254l-219 -356q-53 -90 -82 -138q-47 -82 -94 -170 l-86 -180q-33 -74 -59 -76l-25 2q-14 11 -18 19z" />
<glyph unicode="0" d="M111 414q0 248 185 511t339 355l207 119l80 31l36 6q41 0 86 -33q37 -31 54 -68l18 -90l23 -45l26 -33q16 -27 29 -71q6 -23 8 -40.5t2 -54.5q0 -78 -14 -141q-6 -33 -20.5 -82t-39.5 -119q-47 -135 -226 -368.5t-307 -269t-173 -35.5q-55 0 -100 15t-102.5 62.5t-84 147 t-26.5 203.5zM383 352q0 -70 29 -86l47 -14q29 0 135 61.5t253.5 339t147.5 430.5v27q0 35 -11 44t-34 13q-18 0 -35 -8l-94 -59q-164 -121 -301 -361t-137 -387z" />
<glyph unicode="1" d="M354 139q0 45 12.5 94.5t36.5 104.5l291 696l6 25l5 14q0 10 -15 8l-69 -20q-29 -6 -38.5 -8t-33.5 -2q-35 0 -69 25.5t-34 105.5l7 61q6 25 18 32t74 17q59 6 104 21l82 24l98 41l54 25l53 22q29 12 49 13q16 0 39 -13l47 -43q29 -31 39 -53q0 -45 -6 -61l-29 -66 l-397 -868l-27 -68l-18 -76l-12 -86l2 -47q0 -18 -17 -32l-45 -21q-20 -6 -63 -10q-74 0 -111 51q-33 55 -33 94z" />
<glyph unicode="2" d="M70 203q0 63 59 137t188 186l416 342q102 84 159.5 147.5t57.5 104.5q0 31 -24 47l-37 15q-37 0 -105 -35l-55 -41q-14 -10 -42 -38l-40 -40q-53 -55 -88 -55l-65 6q-23 6 -48 31q-8 12 -14 30q-12 33 -12 70q0 27 15.5 80t105.5 120.5t175 97.5t179 30q55 0 76.5 -3 t58.5 -14q59 -12 115 -55q49 -37 78.5 -106.5t29.5 -135.5q0 -94 -49 -168.5t-229 -220.5l-303 -241l-176 -146l-7 -18q0 -16 13 -13l129 25l96 8q53 0 97 -16.5t81 -59.5q33 -43 33 -96q0 -29 -12 -63l-23 -37l-16 -21q-4 -8 -23 -10l-63 16q-55 18 -142 19q-37 0 -57 -2 t-61 -12l-95 -23l-59 -16l-82 -25l-82 -14q-37 0 -49 18q-23 25 -65 96q-35 66 -39 99z" />
<glyph unicode="3" d="M84 317q0 51 14 101q6 27 17.5 51.5t29.5 52.5q33 53 74 66l64 10q41 0 77 -29q37 -25 37 -86q0 -16 -4 -25t-8 -20.5t-18 -38.5q-25 -49 -25 -69l6 -35q6 -20 23 -31l37 -12q53 0 128.5 50t122.5 99q35 39 66 99q12 25 16 46t4 38q0 31 -22 43q-16 12 -47 12l-62 -2h-24 q-10 0 -35 5t-37 22l-26 49q-4 16 -6.5 30.5t-4.5 30.5l4 33q6 20 60 53l102 58l27 14q61 37 109 67.5t71 47.5q57 41 57 94q0 16 -4 26.5t-20.5 22.5t-42.5 12q-25 0 -58 -10l-63 -31q-35 -16 -55 -41l-66 -53q-31 -25 -55 -25q-68 0 -91.5 39t-23.5 88q0 23 2 35.5 t17.5 50t113 98t162.5 77.5q35 8 63.5 12t67.5 4q43 0 63.5 -2t57.5 -14q57 -12 125 -78q72 -61 72 -189v-24l-13 -62q-6 -45 -52 -110.5t-89 -104.5q-47 -37 -76 -49q-6 -4 -10 -18q8 -12 12 -17q49 -25 70.5 -70.5t21.5 -105.5v-45q-6 -23 -10 -48.5t-41 -122.5t-175 -221 t-230 -149l-119 -22l-57 -4q-66 0 -124.5 19.5t-105.5 68.5t-72 112q-10 29 -16 60.5t-6 66.5z" />
<glyph unicode="4" d="M104 580q0 100 192.5 309t360.5 344q129 90 226.5 150.5t165.5 60.5l32 -6q16 -2 64.5 -50.5t56.5 -72.5l8 -33q0 -45 -45 -129l-41 -70l-127 -237l-39 -82q-2 -8 2.5 -14.5t16.5 -6.5l55 5q29 0 40 -2.5t36 -14.5q33 -12 51 -43q12 -20 17 -55q0 -31 -10.5 -72 t-22.5 -63l-21 -31l-14 -6q-12 0 -26.5 10t-43.5 16l-59 5q-18 0 -38.5 -1.5t-55.5 -15.5q-39 -12 -62 -49q-10 -16 -21 -48t-20 -56l-26 -97l-15 -71l-6 -60l6 -51q0 -25 -30 -35l-56 -8l-47 -4q-35 0 -61.5 12t-59.5 51q-29 39 -28 88q0 47 22 105l37 98l8 27q12 31 0 37 q-16 0 -28 -4l-27 -7l-41 -10l-92 -28l-66 -11q-29 0 -56.5 18.5t-67.5 97.5t-44 110zM426 643q8 -6 12 -6l101 18l84 17q14 6 27.5 20.5t29.5 52.5l145 302q4 10 -2 14q-4 6 -14 2q-74 -37 -169 -142.5t-212 -263.5z" />
<glyph unicode="5" d="M133 313q0 18 1 43t16 62q14 49 59 84t104 35q16 0 58.5 -13.5t50.5 -52.5l8 -55q0 -25 -14 -56l-15 -45q0 -37 31 -47l45 -4q37 0 104.5 44t141.5 150.5t74 190.5q0 39 -7.5 55.5t-27.5 34.5q-16 10 -43 15q-29 0 -51 -11q-20 -6 -98 -53t-105 -43l-31 19l-33 30l-51 37 q-20 16 -28 31l-3 20q0 51 33 111l70 123l96 168l-18 33q-25 43 -25 63l6 29q6 16 57.5 32.5t137.5 30.5l307 53l59 9l54 4q76 0 107.5 -31t45.5 -78q6 -25 10.5 -45t4.5 -47q0 -25 -4 -37l-13 -39q-6 -18 -22 -12q-55 18 -189 18q-92 0 -164 -12q-68 -8 -90 -27.5 t-49 -62.5l-49 -88q-6 -8 -2 -21q2 -2 14 -4l68 19l70 8q51 0 90 -16q39 -12 79.5 -54.5t59 -104t18.5 -126.5l-6 -82q-6 -39 -37.5 -145.5t-172 -251t-267.5 -181.5q-131 -33 -168 -32q-37 0 -92 18q-113 43 -150.5 101.5t-48.5 119.5z" />
<glyph unicode="6" d="M166 346q0 45 6 92t21 101q25 104 100.5 250.5t315 386t337.5 251.5l117 11q29 0 60.5 -10.5t53 -38t21.5 -66.5l-4 -35l-12 -45l-19 -49q-14 -31 -51 -25l-57 5h-25q-25 -2 -42 -10.5t-60 -43.5l-72 -55l-53 -53q-8 -8 -8 -17q0 -8 10 -14q88 -25 144.5 -62.5t86 -113.5 t29.5 -146q0 -94 -37 -194t-117 -215q-39 -55 -91 -101.5t-115 -82.5q-127 -74 -254 -74q-74 0 -131.5 33.5t-91 91t-48 116t-14.5 113.5zM442 379l7 -66q6 -20 24 -37q18 -12 43 -12q20 0 43 10q66 37 135.5 145.5t85.5 166.5q12 55 13 78q0 55 -36 88.5t-85 33.5 q-33 0 -56 -10l-30 -43q-66 -115 -105 -201q-39 -98 -39 -153z" />
<glyph unicode="7" d="M287 102q-12 63 61 226q35 76 82 156.5t100.5 152.5t101.5 136.5t91 115.5l192 235q6 6 0 17q-4 6 -14 10h-46q-22 0 -44 -4q-35 0 -94 -14l-90 -23l-45 -23q-25 -18 -47 -12q-29 12 -48.5 31.5t-44.5 62.5q-18 41 -18 80q0 25 14.5 54.5t53.5 44.5l79 20l129 18l115 13 l139 10l168 6q76 0 116 -24.5t54 -73.5l13 -51v-13q0 -41 -8.5 -58t-41.5 -58l-51 -58l-76 -78q-45 -47 -59 -63q-23 -25 -70 -82q-66 -80 -84 -104q-4 -6 -51 -72l-108 -164l-103 -170q-55 -94 -74.5 -156.5t-19.5 -154.5q-8 -12 -14 -17l-25 -10l-41 -14l-45 -6 q-18 0 -40.5 10t-60.5 41.5t-46 62.5z" />
<glyph unicode="8" d="M88 340q0 14 2 42t11.5 85t99.5 141t185 132t97 67q-2 6 -5 13t-13 22l-33 65q-6 23 -10 43.5t-4 46.5q0 70 46 159t171 166t207 93l92 17l43 2q37 0 65 -11q31 -6 52 -26q18 -14 26 -39l21 -80l18 -82q4 -18 16.5 -37.5t14.5 -46.5l4 -39q0 -94 -60.5 -164.5 t-168.5 -136.5q-31 -20 -33 -45l4 -18q39 -74 62.5 -132.5t23.5 -119.5l-2 -39q0 -18 -31 -105.5t-137 -179.5q-98 -86 -209 -112.5t-176 -26.5q-80 0 -148.5 18.5t-122 66.5t-81.5 118q-27 75 -27 143zM373 369q0 -49 33 -82q18 -16 38.5 -24.5t51.5 -8.5l32 2l50 12 q33 6 87 56.5t66 93.5l14 67q0 29 -18 62t-61 76q-84 -31 -177.5 -92.5t-111.5 -129.5zM688 975q0 -31 17 -47q18 -12 30 -13q14 0 21 5l53 20l106 55q61 37 75 75t14 58q0 25 -19.5 42.5t-46.5 17.5q-20 0 -37 -8q-74 -25 -131 -63t-76 -101z" />
<glyph unicode="9" d="M203 100l4 33l18 51q12 33 54 54l79 36q41 23 72 48l59 53l43 39l27 28q6 6 6 17q0 10 -14 16q-123 31 -167 62.5t-68.5 112.5t-24.5 136q0 94 39 193q23 53 52.5 101t80.5 108q94 111 215 179.5t237 68.5h25l59 -9q41 0 105 -45q61 -39 98 -114.5t37 -163.5 q0 -55 -8 -101.5t-33 -111.5q-37 -111 -99.5 -211t-199.5 -262q-129 -152 -292 -288t-261 -136q-39 0 -67.5 12t-50 36.5t-25.5 57.5zM578 803q0 -61 26 -80q20 -12 53 -16q37 0 100.5 32.5t142.5 148.5t79 206q0 68 -25.5 87t-48.5 19q-25 0 -90 -35t-151 -154.5 t-86 -207.5z" />
<glyph unicode=":" horiz-adv-x="401" d="M2 201q0 35 24.5 62.5t69.5 45.5q16 6 49 10q49 0 80 -45l64 -75q20 -25 20 -60l-4 -37q-14 -74 -57 -93t-72 -19q-49 0 -72 28l-69 84q-33 46 -33 99zM147 700q0 35 26 63t71 46q18 6 47 10q47 0 78.5 -41t72.5 -86q14 -23 15 -49q0 -27 -11 -68q-6 -49 -51 -67.5 t-76 -18.5q-45 0 -67 29l-74 84q-31 43 -31 98z" />
<glyph unicode=";" horiz-adv-x="464" d="M-66 -238q-6 10 5 21q76 76 119.5 146.5t43.5 107.5l-6 31q-6 16 -43 47q-37 25 -43 67q-2 23 6 60q12 33 43 62.5t93 29.5l38 -6q18 -6 41 -29l41 -45l33 -39l21 -35l8 -45q0 -57 -41 -125q-37 -68 -93.5 -125t-115.5 -86q-41 -18 -74 -28q-8 -2 -55 -17q-13 0 -21 8z M199 700q0 35 24.5 63t69.5 46q16 6 49 10q47 0 79 -41t73 -86q10 -16 14 -49l-12 -68q-10 -49 -53.5 -67.5t-71.5 -18.5q-45 0 -68 29l-74 84q-30 43 -30 98z" />
<glyph unicode="&#x3c;" horiz-adv-x="1239" d="M236 551v231l954 355v-213l-731 -258l731 -256v-215z" />
<glyph unicode="=" horiz-adv-x="1822" d="M272 242v250h1586v-250h-1586zM272 825v252h1586v-252h-1586z" />
<glyph unicode="&#x3e;" horiz-adv-x="1239" d="M328 195v215l731 256l-731 258v213l954 -355v-231z" />
<glyph unicode="?" horiz-adv-x="808" d="M211 201q0 35 24.5 61.5t69.5 46.5q16 6 49 10q16 0 41 -12q23 -8 31 -24l51 -64q43 -47 43 -82l-4 -37q-14 -74 -59 -92t-72 -18q-47 0 -70 28l-90 103q-14 25 -14 80zM338 1130q0 23 14.5 69t114.5 120t191.5 104.5t168.5 30.5q53 0 100.5 -11t94.5 -46 q47 -29 71.5 -86.5t24.5 -122.5q0 -117 -59 -182q-31 -37 -70 -76t-94 -92l-190 -183l-50 -53q-23 -23 -36 -43t-25 -65q-6 -37 -16.5 -53.5t-33 -27t-40.5 -10.5q-68 0 -92.5 16.5t-42.5 65.5q-4 10 -9.5 37t-7.5 35q0 61 45 130t119 136l148 135q84 72 133 129 q37 43 41 72q0 25 -29 33q-25 2 -77 -13.5t-99 -45.5q-49 -27 -82 -64l-43 -55q-6 -10 -45 -10q-27 0 -53.5 11t-49 38.5t-22.5 76.5z" />
<glyph unicode="@" horiz-adv-x="1867" d="M174 504v35q0 201 91 392t252 308t329 163t330 46q221 0 396 -75t267 -206t105 -231l12 -121l2 -33q0 -78 -12.5 -151.5t-40.5 -153.5q-53 -152 -173 -246t-264 -94q-53 0 -105 20.5t-81 58.5t-41 114q-66 -102 -145.5 -147.5t-171.5 -45.5q-78 0 -147.5 36t-121.5 114 q-47 78 -47 192q0 137 67.5 271.5t178.5 218.5q57 43 108.5 62.5t110.5 19.5q125 0 178 -39q53 -35 90 -119l37 123h244l-125 -453l-31 -108q-14 -68 -14 -105q0 -39 18.5 -59.5t69.5 -20.5l64 9q43 6 97 71.5t102 172t48 241.5q0 90 -22.5 172t-99 189.5t-254 162.5 t-336.5 55q-203 0 -377 -99t-261 -254.5t-111.5 -261t-24.5 -216.5q0 -211 90 -373t262 -253t348 -91q180 0 347 44t337 149l47 -82q-166 -109 -363.5 -167t-381.5 -58q-233 0 -428 98t-309.5 282.5t-127.5 305.5zM870 401q0 -76 66 -127q23 -12 55 -12q37 0 68 12 q84 43 144.5 204t68.5 222l8 84q0 39 -10 66q-6 25 -29 41l-45 20l-45 7q-25 0 -81 -18.5t-130 -213.5q-33 -92 -51.5 -167t-18.5 -118z" />
<glyph unicode="A" horiz-adv-x="1052" d="M-4 158q0 25 7 46t40 72l33 62l14 35q-6 20 -10 30l-8 54q0 43 16 57l62 35l67 29l105 157q96 133 161 211q49 59 106.5 121.5t90.5 97.5q133 143 243 231q96 76 158 76q9 0 17 -2q27 -6 41 -15t39 -46l32 -51l43 -45q12 -16 13 -31l-9 -29l-32 -65l-49 -109l-74 -182 l-76 -209q-6 -20 -20.5 -77.5t-24.5 -109.5t-16.5 -120t-6.5 -133l5 -90l4 -62q0 -51 -6.5 -78.5t-30.5 -40.5l-39 -10q-57 0 -117 37q-53 37 -78 78q-20 45 -20 96l2 49q0 20 6 52t10 53l6 45l-43 -2l-194 -17q-66 -8 -94 -30q-16 -14 -60 -80l-51 -86l-25 -66l-18 -78 q-6 -25 -31 -34q-29 -4 -54.5 3t-63 37.5t-56.5 61.5q-14 37 -14 72zM573 631q-2 -5 -2 -9q0 -10 15 -12l92 13l70 6l16 61l33 98l43 103l34 76q2 3 3 6q0 5 -7 10q-3 3 -6.5 3t-7.5 -3q-133 -119 -283 -352z" />
<glyph unicode="B" horiz-adv-x="1013" d="M57 225q-1 5 -1 13q0 49 50 174l316 704q8 16 8 29q-6 16 -34.5 48t-24.5 58q10 41 55 68q18 12 44 24.5t67 28.5q66 25 161 43q43 8 96.5 14.5t96.5 6.5q90 0 147 -15q66 -12 117 -53q55 -39 82 -106.5t27 -135.5q0 -86 -50.5 -149.5t-158.5 -126.5l-90 -47 q-25 -10 -25 -27q4 -14 8 -18q41 -45 72 -105q25 -49 24 -110q0 -43 -28 -129q-25 -92 -179.5 -215t-312.5 -162l-188 -43l-62 -6q-45 0 -71 10q-29 6 -49.5 32.5t-30.5 53.5l-19 45l-24 49zM346 303q-2 -7 -2 -12q0 -9 6.5 -13.5t17.5 -4.5q7 0 15 1l57 19l76 33l78 36 l59 39q55 37 93 81t38 91q0 43 -18 57.5t-55 20.5l-74 4q-92 0 -123 -9t-51.5 -29.5t-38.5 -71.5l-45 -131l-21 -64zM623 936q0 -14 20 -16q61 6 115.5 24.5t126.5 54.5q53 29 99 68t48 72q0 35 -35.5 57.5t-89.5 22.5q-59 0 -121.5 -19.5t-91.5 -46.5q16 -27 21 -49 q0 -20 -29 -64l-57 -86z" />
<glyph unicode="C" horiz-adv-x="966" d="M68 389q0 61 30.5 216t280.5 462t483 356l41 4q43 0 83 -15t82 -56t62.5 -115t20.5 -145q0 -47 -3 -68.5t-11.5 -68t-16.5 -79t-20 -55.5q-18 -41 -60 -53l-59 -6q-23 0 -53 12q-27 6 -45 41q-8 16 -12.5 35.5t-4.5 46.5v19q0 16 24.5 90.5t29.5 107.5q0 37 -29 37 q-20 0 -77.5 -41t-141.5 -121q-76 -72 -204 -286.5t-128 -339.5q0 -25 4 -42.5t15.5 -34t33.5 -28.5l37 -8q33 0 62 14l69 43l70 51l90 84l86 91q20 16 55 20q27 0 61.5 -18.5t57.5 -53.5q25 -31 25 -53q0 -14 -31 -90t-185.5 -193.5t-252.5 -138.5q-31 -6 -69 -13t-65 -7 q-25 0 -49 3t-60 17.5t-61.5 31.5t-56.5 48q-55 55 -81.5 136t-26.5 163z" />
<glyph unicode="D" horiz-adv-x="1077" d="M70 227l2 27l28 98q29 96 109 285q92 217 139 311l103 201q-29 23 -48 51q-14 29 -14 55q0 18 18.5 61.5t131 81.5t163.5 44l93 6q106 0 205.5 -38t152.5 -116q55 -74 74.5 -146.5t19.5 -143.5q0 -141 -91 -345t-367.5 -427.5t-481.5 -247.5q-61 0 -96 12t-51 47 q-12 39 -23 51q-6 16 -16 27l-37 57q-10 22 -14 49zM367 313q0 -25 12 -30q5 -3 11 -3q8 0 16 5l104 61q18 10 44 29.5t46 38.5q170 137 283.5 305t113.5 311q0 70 -52 109t-107 39q-51 0 -109 -23q12 -25 12 -41q0 -20 -20 -53l-39 -60l-61 -106l-82 -158l-78 -168 l-68 -159q-22 -70 -26 -97z" />
<glyph unicode="E" horiz-adv-x="925" d="M61 203q0 51 21 110l27 80l73 189l-39 67q-6 12 -10 35q0 33 41 53l59 21q16 8 27 24l12 29l56 117l73 153l66 125q-49 61 -49 103l8 26q6 18 51 31l103 23l290 45l78 10l72 6q51 0 78.5 -7t49 -30.5t37 -75t15.5 -90.5l-8 -47q-6 -31 -33 -37l-20 6l-21 13l-41 10l-28 2 l-58 -2h-47q-29 -6 -41 -8l-100 -19q-47 -12 -109 -104q-27 -43 -48 -84t-48 -100l-6 -21q0 -14 33 -16l106 16l66 6q41 0 75 -18q29 -18 47.5 -65.5t18.5 -90.5q0 -29 -7 -52.5t-26 -33.5l-24 -8l-31 12l-47 4l-94 -4q-94 0 -163 -19.5t-82 -33.5t-38 -74l-43 -125l-8 -39 q0 -14 14 -22l31 -6l45 6l45 10l72 16l57 11l59 6q41 0 63.5 -7t45.5 -32l31 -45q12 -20 14 -47l4 -31v-12l-6 -43q-6 -25 -31 -31q-31 8 -59.5 14.5t-48.5 6.5q-35 0 -121 -25l-160 -43l-78 -27q-55 -18 -88 -18t-67 22q-18 12 -38 28.5t-48 43.5q-50 50 -50 113z" />
<glyph unicode="F" horiz-adv-x="888" d="M61 139q0 47 9 74l34 102l97 267l-39 67q-6 12 -10 35q0 33 41 53l59 21q16 12 41 53l55 117l137 278q-49 66 -49 101q0 12 7.5 27.5t39 26.5t115.5 28l293 45l80 12l67 4q51 0 78 -8q31 -6 50.5 -27.5t37 -74t17.5 -91.5q0 -25 -7.5 -51.5t-33.5 -34.5l-19 6l-22 13 l-43 10l-27 2l-27 -2h-32h-47q-29 -6 -41 -8l-101 -19q-47 -12 -103 -101t-83 -146l-25 -62q0 -16 35 -16l105 16l67 6q43 0 73 -18.5t48 -65.5t18 -90q0 -29 -7 -52.5t-25 -33.5l-23 -8l-31 12l-49 4l-92 -4q-94 0 -162.5 -19.5t-84 -37t-38.5 -70.5l-59 -155l-27 -72 l-14 -55l-4 -50l2 -41q0 -25 4 -36q0 -25 -26.5 -51.5t-102.5 -26.5q-45 0 -76.5 16.5t-52.5 46.5l-22 47z" />
<glyph unicode="G" horiz-adv-x="1097" d="M84 379q0 164 85 344t209 333.5t265 263.5t256 110h19q84 0 124 -48q35 -37 70 -108l49 -98l15 -46l2 -40q0 -39 -12.5 -86.5t-32 -80t-44 -54t-61.5 -21.5l-43 6q-18 6 -54 42t-36 69q0 18 12 53l21 55l8 43q0 14 -11.5 28.5t-45.5 18.5q-63 0 -185 -133 q-61 -68 -105 -126t-72 -104t-55.5 -103.5t-51 -118t-36 -112.5t-12.5 -95q0 -41 11.5 -62.5t32.5 -40.5q12 -10 21 -13t28 -3q31 0 69.5 13.5t85.5 45.5q100 70 143.5 117t43.5 61q0 25 -27 25q-29 0 -45 -4l-57 -14l-56 -11q-25 0 -48 33t-23 105q0 23 10 48t86 46l137 26 l84 11l45 4q55 0 96 -18.5t74 -57.5t33 -57q0 -12 -21 -52l-61 -141l-74 -180q-20 -61 -20 -170v-62q0 -39 -25 -38q-41 6 -55 16q-14 6 -41 41t-37 53l-22 55q-94 -78 -180.5 -118.5t-161.5 -40.5q-33 0 -49.5 2t-57.5 14q-63 18 -117 76q-49 57 -74.5 138t-25.5 161z" />
<glyph unicode="H" horiz-adv-x="1124" d="M66 137q0 43 14 92l26 86l46 131l49 136l-25 53l-14 59q0 23 4 36t15.5 24.5t31.5 17.5l39 12q16 6 35 33l39 72l32 65l101 199l37 78l28 63l8 39q4 29 15 43l31 27l47 22q8 2 23.5 5.5t31.5 5.5q57 0 106 -64q43 -57 48 -86q0 -18 -19 -43l-61 -100l-76 -131l-53 -101 l-15 -34q0 -25 25 -21l272 33l129 260l37 76l35 75l4 41q0 18 14 33l31 27l47 22q31 12 56 13q55 0 105 -62.5t50 -87.5q0 -18 -18 -43l-64 -100l-69 -121l-146 -297q-117 -246 -153 -401l-33 -177v-36q0 -27 4 -43q0 -25 -12 -41l-41 -23q-29 -12 -74 -12t-77 16.5 t-55.5 53t-23.5 75.5q0 41 19 101l24 77l52 154l38 115l7 18l4 16q0 12 -13 13l-94 -6q-31 0 -46 -3.5t-79.5 -15.5t-83 -37.5t-57.5 -134.5l-53 -162l-23 -77l-4 -48l2 -41q0 -25 4 -36q0 -25 -26.5 -51.5t-102.5 -26.5q-45 0 -76.5 16.5t-62.5 67.5q-16 22 -16 61z" />
<glyph unicode="I" horiz-adv-x="577" d="M61 141q0 41 9 72l45 133l75 199q35 94 48 123q4 12 36 82q35 86 41 98q18 39 43 88l80 162l64 133l28 63l9 39q4 29 14 43l31 27l45 20q31 12 55 13q55 0 105.5 -62.5t50.5 -87.5q0 -18 -17 -41l-32 -49l-64 -106q-45 -80 -88 -170l-84 -187l-94 -227 q-20 -55 -39 -102.5t-33 -75.5l-31 -78l-14 -57l-4 -46l2 -41q0 -25 4 -36q0 -25 -26.5 -51.5t-102.5 -26.5q-45 0 -78 16.5t-55.5 54t-22.5 78.5z" />
<glyph unicode="J" horiz-adv-x="835" d="M-4 344q0 23 1 50.5t14.5 67.5t17.5 51t19 36.5t50 38.5l47 10q35 0 64 -25l47 -49q16 -23 20 -55l-6 -49l-14 -60l-6 -43q0 -20 11 -37.5t38 -11.5q47 10 94 90l109 205q16 35 55 117q27 55 49.5 107.5t38.5 97.5q8 20 37 110l51 168l29 127q2 6 2 23q0 8 -5 30.5 t-1 38.5q6 14 30.5 26.5t81.5 18.5q51 0 79 -7t48 -40l37 -51q14 -23 15 -47q0 -25 -15 -61l-53 -166q-16 -49 -45 -130t-57 -153q-68 -168 -158 -346q-96 -195 -169 -285t-204 -133l-63 -6q-55 0 -107.5 18.5t-94.5 67.5t-67 119q-8 29 -14 65.5t-6 71.5z" />
<glyph unicode="K" horiz-adv-x="1097" d="M61 141q0 41 9 72l45 133l75 199q35 94 48 123q4 12 36 82q35 86 41 98q18 39 43 88l80 162l64 133l28 63l9 39q4 29 14 43l31 27l47 22q20 6 53 11q55 0 105.5 -62.5t50.5 -87.5q0 -18 -17 -41l-32 -49l-33 -57l-43 -78q-2 -12 4 -17q10 -4 20 3l269 210q57 45 79 64 q59 45 88 64.5t49.5 26.5t49.5 7q23 0 51 -12l68 -74l34 -35q18 -18 19 -28q0 -12 -45 -43l-96 -68l-273 -186q-86 -55 -153.5 -116.5t-73.5 -102.5l-4 -76l6 -100l16 -156q12 -96 39 -172q6 -23 11.5 -36t20.5 -40t38 -49q25 -21 25 -36q0 -24 -52 -62q-59 -33 -121 -33 q-41 0 -63 14q-68 35 -110 140.5t-42 347.5l-2 88l-2 88q0 18 -16 18q-10 0 -23 -20l-71 -174l-64 -158l-33 -86l-14 -55l-4 -50l2 -41q0 -25 4 -36q0 -25 -26.5 -51.5t-102.5 -26.5q-45 0 -78 16.5t-55.5 54t-22.5 78.5z" />
<glyph unicode="L" horiz-adv-x="819" d="M61 205q0 45 9 78l39 110l75 193q68 174 131 311q31 70 56.5 124t44.5 87l61 119l29 71l6 43q0 18 14 33l31 27l47 22q31 12 55 13q57 0 107 -64q43 -57 47 -86q0 -18 -18 -43l-62 -104q-29 -49 -88 -166q-33 -61 -63 -123q-82 -174 -154 -358l-47 -140l-4 -28 q0 -25 16 -33l33 -6l45 6l41 10l70 18q45 12 84 17q43 0 84 -41q37 -41 43 -82l6 -57l-4 -31q-4 -18 -10.5 -26.5t-22.5 -14.5l-53 6l-43 6l-33 -2q-20 0 -43 -10l-160 -43l-78 -27q-55 -18 -88 -18t-65.5 21.5t-79.5 64.5q-39 43 -49 68z" />
<glyph unicode="M" horiz-adv-x="1396" d="M20 143q0 35 2.5 51.5t12.5 48t21.5 61.5t27.5 65l446 897q53 111 83 144.5t71 33.5q16 0 39 -12l37 -27l28 -23l29 -16l25 -12l24 -25q16 -16 17 -53l-13 -74l-14 -74l-43 -188q-6 -33 -10 -71t-4 -85q0 -18 10 -26q10 -6 18 4l119 149l162 211l178 228q82 100 146 100 q23 0 76 -48t76.5 -79t23.5 -59q0 -29 -21 -82l-57 -158l-68 -186l-47 -148l-43 -151l-61 -226q-37 -135 -37 -207l2 -24l2 -19l2 -12v-10q0 -16 -14 -23q-72 -39 -111 -38q-23 0 -51 12l-51 31q-27 20 -42.5 47.5t-15.5 58.5l4 35l13 55l18 72q4 16 14.5 52t26.5 77 q27 94 35 119q16 53 37 104l74 188l-3 11q-8 6 -12 6l-12 -8q-6 -4 -25 -25l-57 -70l-102 -143q-74 -109 -105 -168l-49 -104l-14 -72l4 -27q6 -20 2 -30q-12 -25 -56.5 -50.5t-70.5 -31.5l-51 -6q-33 0 -59.5 11t-48 36.5t-38.5 77.5q-10 51 -10 110q0 102 24.5 218 t55.5 206l12 35q6 23 6 35q0 10 -6 16q-10 4 -20 -16l-35 -68l-66 -129l-75 -166l-84 -221l-23 -59l-8 -47l2 -52l8 -51l-8 -22q-6 -8 -47 -21l-70 -14q-10 -2 -26 -2q-6 0 -17.5 3t-40.5 32l-59 59q-13 24 -13 59z" />
<glyph unicode="N" horiz-adv-x="1134" d="M61 143q0 45 13 93l76 227q66 182 141.5 364.5t164.5 343t129 212t95 51.5q31 0 49.5 -6.5t38.5 -34.5l35 -45l45 -43q37 -37 37 -88q0 -35 -11 -68l-26 -94l-23 -105l-22 -145l-6 -98q0 -39 -4 -58q0 -12 16 -14q14 0 27 31l88 206l110 244q66 143 123 225t127 82 q37 0 59.5 -13t32.5 -30l15 -18l36 -35q6 -6 11 -27q0 -25 -29 -65l-106 -162q-72 -111 -150 -258q-63 -125 -125 -283l-59 -161l-21 -66l-22 -82l-8 -49l2 -37l2 -37q0 -23 -17 -41q-12 -18 -51 -39q-29 -14 -72 -28l-51 -10q-31 0 -89 52t-77 111q-6 31 -10 64t-4 72v45 v32v25l-2 61v66v22q0 160 24 277l-8 14q-4 6 -16 -6l-92 -190q-39 -86 -70 -176l-43 -150l-29 -129l-14 -92v-27l-2 -30q-12 -14 -24.5 -24.5t-36.5 -10.5q-14 0 -23 4l-31 18l-24 21l-76 51q-23 12 -23 61z" />
<glyph unicode="O" horiz-adv-x="995" d="M61 391q0 205 184.5 499t315.5 380t199 123q55 29 94 39l39 6q35 0 76 -29q41 -23 53 -51l22 -74q12 -49 27 -70l37 -45q16 -23 30.5 -79t14.5 -109q0 -115 -35 -211q-55 -193 -241.5 -445.5t-319.5 -294.5t-188 -42q-41 0 -86 12t-101.5 56t-88.5 140.5t-32 194.5z M326 360q0 -43 18 -77q18 -29 78 -29q109 12 240 190q63 86 109 156t70.5 119t44 97t36.5 95q31 86 30 150q0 37 -18.5 67.5t-67.5 30.5q-102 0 -243 -172q-133 -166 -211 -332q-18 -37 -36 -83t-24 -66q-26 -91 -26 -146z" />
<glyph unicode="P" horiz-adv-x="966" d="M59 139q0 47 9 74l34 102l68 189q25 66 44 116t46 113l105 238l94 211q-49 55 -49 96l12 41q12 27 106.5 61.5t171.5 46.5l111 11q96 0 175 -34t148.5 -126t69.5 -225q0 -90 -50 -211t-244.5 -246t-286.5 -143l-99 -17q-20 0 -40.5 18.5t-30.5 20.5q-14 -14 -19 -24 l-26 -64l-23 -57l-25 -68l-18 -65l-4 -50l2 -41q0 -25 4 -36q0 -25 -26.5 -51.5t-102.5 -26.5q-45 0 -77 16.5t-52 46.5l-23 47zM557 766q0 -14 4 -23l19 -8l34 8q57 20 140.5 71.5t156.5 125.5q68 72 68 141q0 43 -21.5 62.5t-48.5 27.5l-47 7h-26l-52 -11q-29 -2 -63 -55 q-27 -43 -88 -172l-58 -127z" />
<glyph unicode="Q" horiz-adv-x="995" d="M61 387q0 51 8.5 104.5t32.5 149.5q39 164 247 421t474 357l43 15l37 6q39 0 81 -28t54 -54l23 -76q12 -49 29 -72l34 -43q18 -25 31 -77q6 -29 10 -53.5t4 -55.5q0 -111 -41 -238t-113.5 -241.5t-209.5 -274.5l-80 -94l-8 -39l-2 -43q0 -53 8 -76.5t13 -34t20.5 -30 t44.5 -27.5l43 -10q33 0 51 16l37 31q6 6 16 0q6 -6 2 -20l-30 -68q-16 -35 -49 -76t-77 -77.5t-87 -55.5q-27 -10 -40.5 -13t-31.5 -3q-55 0 -97 38t-67 89q-8 20 -14 50t-6 58l4 52l10 61q6 29 -21 29q-29 0 -43 -4l-45 -5q-57 0 -99 19.5t-97 77.5q-47 53 -76 137 q-23 84 -23 178zM336 324q-1 -5 -1 -10q0 -22 23 -40q16 -6 58 -6q43 0 55 21q6 12 -8 33l-27 30q-14 10 -39 15l-35 -9q-20 -5 -26 -34zM340 463q0 -12 6 -19h16l48 25l41 16q18 6 51 7q66 0 143 -72q121 139 201 304t102 298l2 37q0 49 -20.5 70.5t-44.5 21.5 q-20 0 -39 -8q-143 -45 -290.5 -257t-209.5 -401z" />
<glyph unicode="R" horiz-adv-x="1024" d="M61 137q0 41 19 101l33 102q12 43 29.5 91t29.5 82t43 115t53 134l99 231l82 178q-20 20 -33 37t-18 27t-7 24.5t0 22.5q10 31 63.5 67.5t114.5 55.5l115 29l111 8q82 0 153.5 -18.5t132.5 -67.5q61 -45 100.5 -133t39.5 -168q0 -27 -4.5 -55.5t-6.5 -47.5 q0 -68 -98 -194q-90 -115 -293 -217l-33 -15q-16 -8 -22 -22v-25q18 -109 55 -196.5t129 -180.5q12 -12 0 -32q-31 -43 -71.5 -62.5t-88.5 -19.5h-24l-53 12q-35 6 -65 57.5t-68 169.5l-52 135l-14 37l-27 50q-14 27 -34 26q-12 0 -19 -18l-10 -27l-37 -100l-27 -80l-14 -62 l-4 -41l2 -41q0 -25 4 -36q0 -25 -26.5 -51.5t-102.5 -26.5q-45 0 -76.5 16.5t-62.5 67.5q-17 22 -17 61zM535 731q0 -10 18 -14q80 0 199.5 81t179.5 181q37 59 37 111q0 27 -17 51q-12 25 -42.5 37t-69.5 12q-80 0 -117 -51l-74 -148l-94 -203z" />
<glyph unicode="S" horiz-adv-x="894" d="M-4 254q0 82 74 131q35 18 75 18q25 0 38.5 -6t54.5 -69.5t69 -81.5q33 -16 74 -17q27 0 54.5 6.5t64.5 22.5q68 31 84 117q0 25 -2 40t-15 36q-18 37 -108 127l-27 26q-147 152 -147 291q0 35 14 113q8 43 39 91t94 113q115 121 201 164l117 47l38 13l66 10 q74 0 124 -53.5t78.5 -149.5t28.5 -168l-8 -59q-4 -23 -14 -50.5t-39 -80.5q-47 -92 -76 -105l-41 -8q-37 0 -78 35q-37 37 -46 61.5t-11 40t-2 45.5q0 20 16 45l37 43q14 14 29 43l22 66q8 27 -14 41q-20 0 -34.5 -3t-28 -9t-56.5 -28t-113.5 -101.5t-70.5 -151.5v-22 q0 -57 30.5 -108.5t102.5 -119.5l27 -26q61 -55 100 -118t39 -128l-4 -43q-18 -90 -98 -174t-185.5 -125t-220.5 -41q-47 0 -69.5 2t-63.5 12q-57 16 -109.5 51t-82.5 86q-27 54 -27 109z" />
<glyph unicode="T" horiz-adv-x="993" d="M303 141q0 33 12 80l43 123l66 176q23 59 44 111.5t58 138.5q76 168 88 195q43 84 64 127q6 10 0 16q-2 2 -12 4q-63 -23 -123 -22q-45 0 -78 12t-57 43l-31 51l-8 55l-2 52q0 29 5 42t29 7l66 -9h29l39 9l495 84l80 12l61 6q47 0 81 -13.5t55 -39.5l32 -53l19 -56l4 -53 q0 -41 -35 -41l-76 8l-47 2h-61q-35 -6 -75 -10t-63.5 -31.5t-74.5 -134.5l-135 -305l-86 -205l-80 -198q-29 -68 -39 -115l-6 -62l2 -41q0 -25 4 -36q0 -25 -26.5 -51.5t-104.5 -26.5q-45 0 -77 16.5t-55.5 53t-23.5 79.5z" />
<glyph unicode="U" d="M123 295q0 66 18 151q10 47 23.5 89.5t36.5 103.5q41 113 94 238l106 231l70 135l23 60l6 32q2 27 12 39l25 23l49 26q31 10 59 15q55 0 105.5 -62.5t50.5 -87.5q0 -20 -21 -43l-61 -104q-29 -47 -62.5 -111.5t-70.5 -140.5l-109 -244l-53 -141l-23 -76q-6 -25 -8 -37 t-2 -39q0 -55 19 -61l36 -4q61 0 126 73.5t147 235.5l319 629l101 184q29 41 86 41q37 0 61 -23l68 -71q25 -25 28 -43q0 -16 -28 -62l-60 -104q-72 -131 -149 -295l-129 -287q-20 -47 -44 -109.5t-34 -95.5q-18 -66 -18 -135q0 -72 24 -176q4 -31 -10 -37l-37 -12l-51 -6 l-23 2l-45 8q-31 6 -51 32.5t-31 74.5l4 65l9 49q6 18 -4 29q-6 10 -19 -2l-174 -199q-51 -51 -168 -51q-35 0 -50 2t-44 16.5t-80 83.5q-47 70 -47 191z" />
<glyph unicode="V" horiz-adv-x="1034" d="M221 225v44q0 22 4 46l13 84l77 387l60 277l33 154l6 43l-2 59q0 27 5 41t22.5 27.5t43.5 19.5l52 4l49 -6q18 -2 47 -37l41 -63q23 -29 22 -68l-6 -49l-6 -25q-10 -35 -35 -102l-69 -213l-52 -186l-20 -87q0 -27 18 -26q14 0 25 16l207 293l194 272l94 125q27 37 46 58 q8 10 47 51q47 47 114 47q18 0 29 -4q12 0 41 -23l53 -41l37 -24q10 -4 16 -21q6 -29 -41 -75l-73 -80q-106 -119 -180 -219l-144 -191l-158 -223l-149 -217l-92 -137l-68 -107q-41 -55 -84 -55q-33 0 -51 6l-43 31l-37 32l-55 27q-16 16 -23.5 51t-7.5 84z" />
<glyph unicode="W" horiz-adv-x="1396" d="M207 231l4 58l31 178q10 57 26.5 145t32.5 168q31 170 74 331t43 183l-2 39l-2 35l2 25q2 8 27.5 20t58.5 19q35 8 63 8q14 0 22.5 -2t30.5 -31l39 -53l27 -23q23 -18 23 -53q0 -29 -19 -72l-41 -92l-53 -137l-53 -162l-33 -119l-23 -104q-2 -8 7 -17q12 -4 18 9l176 305 l158 278q78 139 127 190.5t125 51.5q33 0 62.5 -13.5t45.5 -35.5q10 -16 15 -49q0 -16 -2.5 -37t-8.5 -45l-18 -86l-62 -238l-45 -209l-14 -98q0 -16 8 -18q14 8 19 14l12 22l233 488q96 197 160 265.5t117 68.5l29 -4q16 -4 32 -17l35 -31l35 -32l39 -31q5 -5 5 -14 q0 -23 -36 -70q-41 -51 -115 -162l-147 -239l-152 -271l-149 -288l-107 -211q-31 -53 -71 -62l-37 6l-39 21l-29 22l-28 19l-45 24q-25 18 -34 54t-11 55.5t-2 60.5v78q6 37 8 53l14 119l12 92q4 31 6.5 45.5t10.5 38.5q2 12 -13 15q-8 -10 -14 -19q-18 -25 -39 -61 l-84 -156l-82 -168l-71 -164q-31 -72 -52.5 -100.5t-54.5 -30.5q-23 0 -59 19l-47 24l-45 19q-31 14 -41.5 27.5t-24.5 52.5z" />
<glyph unicode="X" horiz-adv-x="1034" d="M18 139q0 63 59.5 158.5t115.5 163.5l110 131l105 121l73 82q23 27 23 59l-6 57l-13 76l-22 137l-17 127l-8 35l-12 35l-8 25l-4 20q0 10 11 25.5t50 30t80 14.5q53 0 76.5 -12.5t54.5 -59.5q25 -39 29 -70l-2 -39l-2 -43v-53q0 -29 8 -55q6 -31 26 -31q12 0 37 25l56 57 l98 105q43 45 47 49q37 37 80 73q63 53 123 54h18l13 -6l32 -27l47 -43l39 -35q23 -14 25 -25q2 -6 2 -10q0 -12 -10 -24l-43 -35l-45 -31l-35 -31l-424 -391q-25 -25 -25 -51l8 -53q4 -20 9.5 -49t13.5 -64l33 -141l33 -119l24 -88q10 -37 45 -81t37 -56q0 -18 -10 -29 l-55 -39q-47 -27 -113 -26q-29 0 -60.5 13t-60.5 56q-18 39 -63 197l-48 188q-12 43 -32 43q-6 -2 -12.5 -6t-16.5 -14l-80 -101l-74 -98l-28 -43l-29 -61l-10 -58l4 -41l-6 -24q-6 -18 -45 -31q-25 -6 -37 -8t-39 -2q-68 0 -111 61q-35 59 -39 86z" />
<glyph unicode="Y" horiz-adv-x="1013" d="M227 129q0 63 54 156l100 168l43 73q12 23 12 35t-22 21q-66 12 -86.5 40.5t-20.5 102.5v32q0 13 8 54l25 117l33 127l26 96l15 55l2 47l-2 68v26q0 11 8 35q0 18 41 33l47 12l25 3h16q25 0 51 -11q27 -6 49.5 -29.5t46.5 -84.5l17 -43q0 -18 -13 -50l-26 -69l-35 -103 l-33 -110l-20 -80q-6 -35 16 -35q16 0 49 41l111 141l156 197q76 94 154.5 168t156.5 74l31 -2q12 0 22 -11l51 -37l56 -40q12 -6 18 -25q4 -25 -45 -74l-186 -180q-63 -61 -125 -130t-109 -132l-180 -248l-141 -201l-78 -125q-18 -37 -31 -100q0 -55 -6 -80q0 -25 -37 -43 t-80 -18q-27 0 -43 8l-29 18l-26 23l-37 29q-20 16 -27 30z" />
<glyph unicode="Z" horiz-adv-x="1024" d="M18 168q-6 47 114 210t247 304t253 253t210 174t88 77q0 23 -23 20l-82 -14q-27 -4 -41 -8t-43 -15l-96 -36l-90 -37q-20 -6 -33 4l-37 43q-18 27 -34 65q-8 31 -11 37v27q0 18 14.5 50t104.5 56l197 35l149 19l82 4l80 2l82 2q53 0 80.5 -7.5t40.5 -21.5l22 -57 q4 -20 9.5 -35.5t13.5 -32.5l12 -45q4 -11 4 -21q0 -7 -2 -14q-6 -33 -69 -78l-127 -90l-152 -116q-80 -63 -168 -148l-151 -147l-117 -127l-76 -84l-39 -47q-6 -10 -10 -31q0 -23 33 -23l159 21q31 0 47 4l58 4q43 0 74.5 -10t56.5 -39q18 -23 29 -47l8 -51 q0 -35 -7.5 -58.5t-21.5 -42.5q-10 -18 -33 -24q-18 -4 -53 10l-47 18l-27 2h-24l-35 -2l-66 -8q-41 -4 -60 -8t-71 -21q-33 -8 -62.5 -16t-55.5 -18l-70 -27l-59 -8q-29 0 -54 18l-53 62l-45 53q-17 21 -23 41z" />
<glyph unicode="[" horiz-adv-x="808" d="M362 -395v1816h472v-59h-254v-1690h254v-67h-472z" />
<glyph unicode="\" horiz-adv-x="1331" d="M260 1577q-6 12 8 39q10 18 33 18q53 0 98 -71l66 -105l151 -233l195 -305l197 -316q121 -195 200 -354q37 -74 60 -123q16 -37 30.5 -77t10.5 -58q-6 -10 -17 -17l-26 -4q-18 0 -47 54l-80 161q-47 98 -123 230q-41 76 -72 127t-80 125l-170 270l-168 266l-133 205 q-45 70 -92 121z" />
<glyph unicode="]" horiz-adv-x="808" d="M315 -328h254v1690h-254v59h469v-1816h-469v67z" />
<glyph unicode="^" horiz-adv-x="548" d="M313 1157q0 23 24.5 57.5t78.5 79.5q27 20 64.5 46t86.5 53q94 51 146 41q25 -6 59 -66l55 -106l45 -82q16 -29 11 -54q-6 -23 -27.5 -37t-48.5 -14q-20 0 -35.5 7.5t-66.5 60.5q-45 51 -62 57l-20 4q-45 0 -135.5 -62.5t-108.5 -62.5l-17 4q-49 31 -49 74z" />
<glyph unicode="_" horiz-adv-x="1083" d="M10 -215h1168v-78h-1168v78z" />
<glyph unicode="`" horiz-adv-x="401" d="M350 1305q0 14 8 28l64 53l70 46q31 8 57 -31l69 -127l62 -76q39 -43 47 -61q4 -14 -3 -26.5t-30 -29.5l-32 -20l-31 -2q-43 6 -139 84q-49 41 -79 67.5t-40 40.5q-23 29 -23 54z" />
<glyph unicode="a" horiz-adv-x="1060" d="M63 256q0 131 68 285.5t154 251t170 156t151 59.5l51 -7q33 -6 76 -78.5t64 -86.5l45 -19l41 -18q20 -10 30.5 -33t14.5 -53q0 -37 -13.5 -74t-44.5 -92l-26 -55l-45 -99l-15 -67q0 -12 8.5 -25.5t34.5 -15.5q39 0 80 53l84 117l51 73q8 12 21 15q16 6 27 -17l22 -39 q6 -12 10 -36q0 -20 -28.5 -92t-125 -202t-163 -149.5t-94.5 -19.5q-61 0 -107 39l-24 28l-19 47q-6 31 -24 35q-12 -8 -21 -12q-18 -12 -55 -41l-105 -74q-37 -18 -84 -18q-25 0 -88 16q-68 14 -94.5 102.5t-26.5 145.5zM322 305l6 -31q6 -16 32 -22q3 -1 7 -1q29 0 83 48 q60 53 142 205q70 137 70 215q-6 41 -25 49q-6 4 -14 4q-15 0 -37 -13q-33 -19 -69 -57t-73 -92q-39 -61 -80.5 -158.5t-41.5 -146.5z" />
<glyph unicode="b" horiz-adv-x="894" d="M31 174q0 18 2 30.5t12 45.5l37 117l70 192q33 96 57 156q12 29 45 104l119 262l86 174l37 74l14 39q0 47 25 59l45 15l36 6q23 0 43 -10q23 -6 54 -39q27 -33 37 -66q1 -5 1 -11q0 -33 -38 -108l-51 -88l-46 -82l-51 -96q0 -10 2 -13t13 -3q14 10 34 22q33 20 62 33 q51 23 94 23q37 0 88 -26t75.5 -82t24.5 -134q0 -82 -22.5 -179t-73.5 -222q-92 -240 -204.5 -306.5t-186.5 -66.5q-53 0 -88 18q-6 4 -21.5 15.5t-31.5 27.5l-37 49q-6 12 -11.5 18.5t-7.5 8.5q-10 0 -16 -16l-6 -52l-14 -40q-6 -12 -33 -19l-33 -6q-35 0 -74 37t-51 69.5 t-16 69.5zM389 375q0 -37 13.5 -69t33.5 -44l27 -4q33 0 78 51l30 45l39 78l47 131q27 86 27 129q0 18 -12 40q-10 18 -37 18h-10q-47 -10 -102.5 -74t-121.5 -187l-8 -61z" />
<glyph unicode="c" horiz-adv-x="733" d="M66 276q0 145 92 345t218 291.5t222 91.5q35 0 74 -18.5t64.5 -62.5t31.5 -102q0 -68 -3 -94.5t-13 -75.5q-12 -78 -52 -108q-35 -23 -69 -27l-45 10q-35 12 -35 70q0 25 10 58.5t21 52.5l10 30q0 14 -14 17q-14 0 -21 -4q-98 -80 -163.5 -212t-65.5 -221v-20 q4 -27 16 -45.5t37 -24.5l35 -4q61 0 123 56l90 83q29 31 39 31q25 0 28 -24q-12 -125 -61 -202t-110.5 -118t-100.5 -51t-72 -10q-68 0 -135 34.5t-109 106t-42 147.5z" />
<glyph unicode="d" horiz-adv-x="1081" d="M61 283q0 57 8.5 103t32.5 114q41 121 114 229.5t177.5 191.5t204.5 83q57 0 84 -11q29 -6 49.5 -27.5t32.5 -25.5q12 0 24 25l105 204l61 127l21 41l10 31q0 47 38 63.5t69 16.5q20 0 43.5 -7t49 -40t40.5 -68q4 -12 4 -20q0 -14 -15 -47l-65 -115q-39 -66 -113 -227 l-102 -240l-78 -215l-45 -135l-2 -15q0 -25 25 -24q6 2 13 4t25.5 14.5t28.5 20.5t31 31q31 31 76 98l49 76q6 10 18 14q14 4 25 -4q10 -4 22 -27l17 -30l6 -31q0 -59 -88 -198.5t-167 -203t-163 -63.5l-49 6q-27 6 -51 29q-18 20 -41 69q-14 45 -41 47q-4 -4 -8 -6 q-12 -10 -27 -24l-84 -78q-57 -45 -125 -45l-47 4q-55 10 -97 44t-69 98.5t-27 142.5zM326 315q4 -20 14 -30l22 -17q9 -3 19.5 -3t21.5 3q16 6 68.5 50t119 177.5t66.5 209.5q0 35 -20 47l-27 8q-23 0 -84 -37q-57 -39 -134 -187q-68 -131 -68 -203q1 -10 2 -18z" />
<glyph unicode="e" horiz-adv-x="833" d="M63 250v37q0 137 76 320.5t200 286.5t236 103q27 0 68 -11t79 -45t56 -93q12 -31 13 -68q0 -66 -26 -133t-85 -137q-55 -70 -138 -102.5t-194 -32.5q-12 0 -18 -19l-4 -47q0 -37 24 -67q23 -23 76 -23q63 0 133 51.5t141 149.5l84 115q8 12 25 16q18 0 33 -16l20 -29 q10 -29 10 -64q0 -74 -115.5 -210t-213 -190t-195.5 -54q-78 0 -140.5 34.5t-105.5 98.5q-39 66 -39 129zM395 543l43 -8q53 0 101.5 54t70.5 154q2 7 3 13q0 18 -27 18q-14 0 -31 -10l-41 -35l-53 -57q-14 -16 -27 -33q-2 -4 -26 -41z" />
<glyph unicode="f" horiz-adv-x="688" d="M61 143q0 41 19 101l51 149l66 187l55 143q-37 0 -69.5 17.5t-43.5 39.5l-4 39q0 35 11.5 67t24.5 51t24 21l41 -12l53 -12q33 -4 50 15.5t60 111.5l15 35q59 141 146 235t198 94h24q51 0 97.5 -22.5t78.5 -71.5q35 -45 50 -98q8 -25 12 -48.5t4 -54.5q0 -43 -19.5 -86 t-66.5 -57l-53 -12q-31 0 -66 38t-31 64l3 27q0 18 -12.5 31.5t-35.5 3.5q-31 -16 -61 -64l-53 -106q-6 -10 8 -17h33h49q55 0 80.5 -31.5t25.5 -66.5q0 -16 -10 -43q-6 -29 -25.5 -51.5t-50.5 -36.5q-18 -6 -42.5 5t-65.5 11h-43l-37 -12q-16 -2 -41 -49l-57 -137l-68 -187 l-43 -151l-18 -107q0 -61 -28 -85.5t-73 -24.5l-35 4q-16 0 -32 12l-64 66q-31 28 -31 75z" />
<glyph unicode="g" horiz-adv-x="903" d="M-68 -117l9 39q6 25 24 49q10 10 22.5 17.5t51.5 29.5q12 4 20 5q33 0 74 -37q51 -47 53 -72l-8 -45q0 -23 13.5 -51.5t27.5 -43t41 -20.5q23 -4 41 4.5t43 38.5q16 23 51 107l60 149q4 14 -4 19q-6 6 -17 0l-80 -49q-29 -12 -65 -17q-31 0 -101.5 32t-91.5 101l-18 90 l-2 50q0 123 57 263t145.5 245.5t186.5 170.5q43 31 87 45.5t85 14.5q82 0 131 -80l33 -68q18 -35 41 -51l69 -43q25 -12 33 -28l8 -25q0 -25 -30 -86l-33 -74l-246 -692q-70 -190 -134.5 -258t-125.5 -80l-78 -12q-63 0 -134 31.5t-122 85.5q-47 53 -82 121.5t-35 123.5z M332 332l6 -29l18 -24l25 -11q5 -2 11 -1q17 0 36 14l72 63q49 47 118 181q64 123 64 191v11q0 35 -29 49q-4 2 -9 2q-17 0 -47 -14q-40 -18 -97 -88q-23 -27 -45.5 -60.5t-38.5 -62.5q-29 -49 -58 -119q-2 -4 -14 -41.5t-12 -60.5z" />
<glyph unicode="h" horiz-adv-x="1071" d="M61 154q0 18 1 42.5t17.5 77t80.5 215.5q53 133 88 218q18 41 63 141q39 86 95.5 201.5t128.5 248.5l20 41l10 31l6 33q6 18 23 27l33 12l45 6q20 0 43.5 -7t47 -38t40.5 -70q2 -8 2 -22q0 -16 -4 -25q-10 -27 -76 -137q-23 -43 -66 -127q-63 -129 -79 -162q-4 -8 -2 -16 l14 -4q8 4 12 8q14 10 31 31q31 37 88 74.5t115 37.5q25 0 40 -3t49 -35.5t52 -69.5t18 -70q0 -43 -26 -96l-45 -94l-62 -123l-55 -127q-12 -36 -12 -59q0 -9 2 -15q10 -20 37 -18q43 6 92 73l73 105l35 51q8 10 23 16q29 6 43 -30l14 -47q0 -16 -19.5 -76t-136 -205 t-176.5 -160l-73 -12q-29 0 -41.5 3t-34.5 13q-39 16 -74 65.5t-35 131.5q0 59 25 137l67 178l17 35l12 35q4 12 -4 22q-6 6 -15 6q-23 0 -65 -34l-78 -82l-61 -88l-49 -86l-35 -76l-21 -63l-14 -87q-6 -53 -16 -68t-38 -26.5t-56 -11.5q-20 0 -29 4l-37 33l-47 45 q-21 21 -21 72z" />
<glyph unicode="i" horiz-adv-x="595" d="M63 223q0 78 25 173.5t51 158.5l54 127l49 113l32 69l13 39q0 18 7 31.5t25 23.5l39 13l37 6q23 0 43 -10q25 -6 50.5 -38t37.5 -65q2 -8 3 -17q0 -29 -25 -73l-82 -149q-47 -84 -100 -258l-7 -45q0 -37 17 -46l26 -2q16 0 43 29l60 70l51 63l45 64q14 25 23 26 q14 0 20 -2l21 -26l14 -33q4 -16 4 -25q0 -53 -51 -135q-61 -102 -110.5 -159.5t-119.5 -108.5q-72 -45 -131 -45q-78 0 -114 55q-12 23 -23.5 48.5t-17.5 49.5zM383 1188q0 41 28.5 75.5t77.5 49.5l29 6q14 0 43 -21l70 -55q57 -39 57 -96l-6 -35q-6 -25 -19.5 -44 t-50.5 -36q-18 -12 -43 -12t-53 18l-43 37l-45 33q-45 33 -45 80z" />
<glyph unicode="j" horiz-adv-x="464" d="M-430 -217q6 66 29.5 98.5t60.5 52.5q16 8 30.5 12.5t35.5 4.5q23 0 44 -11.5t35.5 -32t18.5 -52.5v-27l-12 -31q-2 -6 -2 -13v-9q0 -8 5 -23.5t33 -15.5q33 0 60 41q20 37 74 215l79 266q20 70 34 109t50 133q55 152 129 325l21 43l10 35q0 18 7 32.5t37 28t63 13.5 q23 0 43 -10q25 -6 51 -37t39 -66q6 -27 -35 -104q-39 -68 -99.5 -220.5t-119.5 -355.5l-103 -360q-43 -160 -91 -227.5t-131 -91t-126 -23.5q-51 0 -93 13t-86 49t-67.5 97.5t-23.5 116.5v25zM391 1188q0 41 29 75.5t78 49.5l26 6q12 0 45 -21l70 -55q55 -37 55 -98l-6 -39 q-2 -16 -16.5 -36.5t-50.5 -37.5q-18 -12 -43 -12t-54 18l-43 37l-45 33q-45 33 -45 80z" />
<glyph unicode="k" horiz-adv-x="1032" d="M31 147q0 31 4 54.5t18 64.5l37 107l66 188l110 279q61 147 153.5 325t98.5 203l6 35q6 18 27 27l39 12l37 6q20 0 43.5 -7t50.5 -41t37 -67q1 -5 1 -12q0 -32 -32 -94l-68 -119q-27 -47 -86 -180l-61 -142q-6 -12 2 -24q6 -8 21 0l245 190q63 45 135 45q25 0 37 -4 q18 0 47 -22.5t41 -50.5l11 -43q0 -20 -7.5 -43t-27.5 -56q-14 -31 -51 -39l-78 -12q-51 -12 -82 -35q-29 -16 -41 -55l-21 -168q0 -47 -2 -83t-4 -71q0 -16 11.5 -22t29.5 -6q31 6 88.5 73.5t94.5 139.5l14 30q8 16 31 21q18 0 26 -10l25 -33q12 -23 16 -62q0 -57 -86 -190 t-160 -193q-18 -14 -48.5 -32.5t-49.5 -26.5q-43 -12 -94 -12q-43 0 -68 26q-49 43 -71 99q-18 53 -19 125l4 104l4 84q0 16 -6 23.5t-20 11.5q-6 -2 -16.5 -6t-27 -15.5t-38.5 -40.5q-14 -23 -33 -81l-41 -127q-12 -43 -12 -99l-2 -53q0 -14 -28 -35.5t-73 -21.5l-36 4 q-25 4 -43 22l-54 60q-24 24 -24 75z" />
<glyph unicode="l" horiz-adv-x="614" d="M61 244q0 86 25 170q12 39 31.5 95t46.5 130q53 147 120.5 299t186.5 360l18 37l11 33l6 41q6 12 20 18l37 13l45 8q20 0 44 -7t50.5 -41t36.5 -67q2 -8 2 -22q0 -16 -4 -25l-92 -174q-37 -68 -70.5 -136.5t-68.5 -148.5l-133 -346l-43 -127q-4 -16 -4 -22q0 -29 34 -29 q16 0 39 23l56 63l94 127l20 33q8 12 23 14q20 0 55 -49l8 -47q0 -16 -4 -34.5t-6 -29.5q-8 -43 -128 -204.5t-180.5 -180t-72.5 -18.5h-16q-29 0 -64 12q-27 12 -57.5 45t-48.5 84q-8 25 -12.5 48.5t-4.5 54.5z" />
<glyph unicode="m" horiz-adv-x="1454" d="M43 145q0 29 18 97l27 118q6 25 9 34t20 48l182 459l14 60q10 14 41 24l43 12h19q47 0 69 -20l56 -39q31 -18 32 -39l-6 -31l-22 -37q-6 -16 2 -24q6 -6 22 0q39 43 82 84q31 29 60 55q49 43 106 43q18 0 43 -12q23 -8 40.5 -24.5t37.5 -47.5l31 -43q6 -10 2 -33l-4 -24 q0 -12 8 -19q10 -4 18 5q80 96 134 144q48 43 104 43q7 0 14 -1q37 -6 58.5 -23.5t56.5 -70.5q10 -16 21.5 -39t11.5 -45q0 -43 -21 -86l-59 -129l-68 -140l-35 -73q-8 -20 -12 -44t-4 -26q0 -25 16 -31q25 -8 43 6l31 29l35 43l29 37l84 115q18 27 36 20q53 -25 54 -82 q0 -43 -44 -140t-148.5 -212t-213.5 -115q-11 -2 -21 -1l-65 14q-43 18 -82 77.5t-39 135.5q0 63 23 122q16 51 27.5 78t44.5 101l26 55q6 25 -11.5 35t-35.5 4t-33 -21l-24 -30l-56 -84l-45 -78l-65 -131l-27 -74l-8 -94q0 -39 -10 -51l-25 -19l-35 -14l-37 -8 q-43 0 -83 39q-35 37 -52 67q-6 16 -10 56l6 51l23 82q10 47 37 114q12 37 22 60.5t19 40.5l24 55q10 31 -12.5 37t-32.5 2q-18 -6 -31 -19l-28 -32l-56 -84q-59 -96 -105 -205t-46 -172q0 -39 -13.5 -53.5t-50.5 -32.5l-41 -6q-27 0 -46 10t-48 39q-8 8 -21.5 26.5 t-19.5 28.5q-6 18 -10 53z" />
<glyph unicode="n" horiz-adv-x="1071" d="M41 145q0 29 18 97l27 118q6 25 9 34t20 48l182 459l10 53q6 18 43 30.5t64 12.5q45 0 75 -24l72 -47q12 -10 12 -29l-6 -27l-24 -39q-6 -16 2 -26q8 -6 22 2q80 86 135 135q27 23 55.5 35t57.5 12q16 0 42 -10t52.5 -37t46 -66.5t19.5 -70.5q0 -41 -25 -103l-47 -106 l-69 -152l-39 -92q-10 -29 -11 -39v-16q0 -18 15 -27q18 -6 35 0l32 27l37 43l33 45l84 115q20 23 39 20q53 -23 53 -78q0 -45 -45 -143t-149.5 -213t-210.5 -115q-8 -2 -23 -2q-37 0 -73 16.5t-75.5 77t-39.5 134.5q0 76 28 145l49 119l27 59l14 29q6 23 -5 35t-34 12 l-20 -6l-25 -12l-32 -37l-72 -109q-61 -100 -100 -194q-35 -94 -35 -158q0 -39 -13.5 -53.5t-50.5 -32.5l-41 -6q-27 0 -46 10t-48 39q-8 8 -21.5 26.5t-19.5 28.5q-6 18 -10 53z" />
<glyph unicode="o" horiz-adv-x="772" d="M59 295q0 135 81 307t177.5 249t142.5 102.5t99 37.5l49 4q35 0 68 -10t63 -39q39 -51 39 -160q0 -29 21 -84q10 -23 16 -49t6 -51q0 -131 -87 -301t-193.5 -238.5t-204.5 -68.5q-31 0 -62.5 6t-66.5 23q-63 31 -103 88q-31 53 -41 106zM307 289q12 -37 43 -43q3 0 6 -1 q13 0 33 8q25 9 66 45t96 154.5t55 184.5q0 43 -19.5 56.5t-33.5 13.5q-12 0 -36.5 -13.5t-47.5 -42.5l-47 -61q-39 -53 -81 -158q-35 -87 -35 -129q0 -8 1 -14z" />
<glyph unicode="p" horiz-adv-x="874" d="M-127 -338q0 39 8 70l31 104l53 164l78 227q57 156 61 168q31 72 46 105l86 205l45 102q16 37 18 59l8 52q6 25 41 47q41 20 76 20q20 0 41 -10l37 -21q12 -10 18 -32l6 -45q6 -23 29 -11l78 80q47 47 112 47l35 -4q92 -18 124 -93t32 -153q0 -115 -48 -260t-121 -252.5 t-161 -174t-186 -66.5q-55 0 -83 13t-77 69q-6 10 -18 0q-8 -8 -27 -68l-45 -154l-35 -126l-10 -60l-4 -47l2 -25l2 -28q0 -18 -12 -35l-43 -29q-25 -10 -60 -14q-55 0 -84.5 43t-44.5 80zM371 322l10 -37q6 -25 45 -31q23 0 40 7t58 49t96 176q49 121 48 178v12 q-6 43 -39 57q-7 2 -15 2q-25 0 -55 -20q-39 -27 -98 -113q-37 -55 -63.5 -136t-26.5 -128v-16z" />
<glyph unicode="q" horiz-adv-x="903" d="M66 231q0 129 67.5 283t159.5 253t178 155.5t162 56.5h24q49 -6 74 -24.5t49 -59.5l31 -64l25 -40q10 -16 63 -48q47 -23 59 -55q3 -8 3 -18q0 -24 -17 -62l-45 -100l-49 -111l-57 -151l-60 -178l-49 -168l49 -103q6 -20 -2 -35l-31 -36l-43 -45l-32 -39l-31 -45l-29 -50 l-24 -51q-12 -27 -43 -33q-4 -1 -9 0q-20 0 -60 13q-50 16 -67.5 37.5t-17.5 64.5q0 33 6 72t22.5 90t34 102.5t37.5 106.5l29 67q0 10 -2 15q-6 6 -18 -2l-93 -56q-35 -18 -71 -18q-35 0 -111 28.5t-96 114.5q-8 45 -12 73.5t-4 59.5zM342 281l4 -33q6 -16 37 -21 q45 0 86 39q23 18 44.5 39t41.5 45q39 43 76 99q31 51 49 106q16 59 16 123q0 18 -7 33.5t-19 21.5q-6 6 -23 6q-23 0 -49 -16q-33 -16 -80 -76q-49 -55 -80 -110q-14 -25 -29.5 -55.5t-35.5 -80.5q-31 -73 -31 -120z" />
<glyph unicode="r" horiz-adv-x="735" d="M47 154q0 31 4 58.5t19.5 88.5t60.5 178l82 211l84 195l10 55q2 23 19 35l36 14l35 8l23 4h12q31 0 50.5 -12t29.5 -22q2 -2 24.5 -28t26.5 -52l-6 -29l-14 -35l6 -12l14 4q53 72 104.5 113t110.5 41q63 0 103 -70q12 -29 12 -61q0 -39 -10 -70q-6 -35 -32 -74t-69 -69 q-40 -25 -57 -25h-2q-6 4 -10 6q-12 8 -27 23q-27 25 -57 24q-25 0 -55.5 -22.5t-65.5 -63.5q-66 -78 -97.5 -135t-56.5 -119l-32 -84l-15 -53l-4 -47l2 -53q0 -18 -18 -41q-20 -18 -46 -29.5t-59 -15.5q-35 0 -61.5 21.5t-52.5 56.5q-21 37 -21 86z" />
<glyph unicode="s" horiz-adv-x="688" d="M-8 197q0 45 21.5 73.5t47 41t62.5 12.5q20 0 33 -7q12 -2 32 -26l21 -37q6 -12 25.5 -24.5t46.5 -12.5q23 0 41 8q47 12 57 56q2 23 -19 47l-86 80q-66 55 -94 107t-28 112l8 69q6 57 99 147.5t153 114.5l73 29l41 8l45 4q35 0 62 -10q29 -6 45 -24q10 -12 22 -64 l17 -78l20 -82q12 -47 13 -67l-7 -37q-2 -18 -28.5 -62.5t-48.5 -56.5l-35 -8q-12 0 -34 19.5t-38 58.5t-16 65q0 16 10 29l25 31q12 14 8 37q-6 16 -31 20q-37 0 -96 -65q-43 -53 -43 -101l8 -41q6 -27 94 -109.5t100.5 -115.5t12.5 -64q0 -74 -60 -151q-53 -59 -143 -96 q-92 -33 -172 -33l-31 2l-55 6q-35 6 -88 37q-47 31 -72 78q-18 47 -18 80z" />
<glyph unicode="t" horiz-adv-x="708" d="M61 219q0 84 26 168t30 96q23 51 30 76l60 150q6 18 -10 28q-25 8 -39.5 15.5t-26.5 21.5t-18 35l-7 43q0 53 27 86l21 29l22 8l14 -4q23 -16 60 -17q43 0 56 13.5t36 56.5l35 74l24 63l2 35q0 23 17 49q12 31 88 31q31 0 55.5 -10.5t46.5 -40.5q12 -14 18.5 -25.5 t16.5 -30.5l8 -59q0 -20 -2 -30.5t-12 -32.5l-29 -54q-6 -12 8 -14h35l43 -2q35 -6 52 -16q18 -6 30 -31q12 -18 13 -51q0 -35 -19 -72q-18 -31 -39 -51q-16 -12 -43 -17l-28 6l-29 15l-47 6q-47 0 -60.5 -10.5t-38.5 -53.5l-51 -112l-57 -150l-33 -92l-4 -24q0 -20 27 -35 q12 -6 30 0l50 30q18 14 24 19q23 18 45 41l51 49l66 72q49 55 63 57l21 -6q10 -6 22.5 -32.5t12.5 -51.5q0 -27 -7.5 -53.5t-64.5 -114.5t-195.5 -198.5t-244.5 -110.5q-49 0 -83 17.5t-69 74.5q-29 57 -29 137z" />
<glyph unicode="u" d="M61 256q0 98 32 200.5t87 200.5l99 197l20 41l10 35q0 16 7.5 31.5t29.5 23.5l39 12l31 4q20 0 43.5 -7t48 -38.5t41.5 -66.5q4 -12 4 -21q0 -14 -14 -47l-70 -125q-49 -88 -92 -196.5t-43 -171.5q0 -14 10 -25.5t27 -11.5q23 0 64.5 24.5t99 107.5t98.5 155l74 141 l63 131l21 45l8 35q0 16 7 29.5t25 23.5l41 12l35 6q20 0 44 -7t49.5 -39.5t37.5 -65.5q2 -6 2 -14q0 -31 -32 -91l-60 -112l-96 -203l-29 -68q-12 -37 -12 -69q0 -35 23 -43q23 -6 43 6l30 31l49 69l105 137q4 6 18 11q6 -4 11 -6q14 -10 26 -23q27 -31 27 -88 q0 -61 -100.5 -202.5t-165 -178.5t-92 -44t-38 -9t-34.5 -2q-35 0 -78 18q-35 18 -66 72l-16 41q-10 31 -27 31q-4 -2 -6 -5q-18 -14 -43 -41q-39 -41 -94 -76.5t-131 -35.5q-94 0 -143 86q-23 41 -35.5 85t-12.5 91z" />
<glyph unicode="v" horiz-adv-x="929" d="M61 309q0 39 6.5 86t18.5 94.5t25.5 90.5t35.5 96l43 102l33 68l31 59l12 37q0 18 7.5 33.5t21.5 23.5l35 13l45 6q23 0 43 -10q27 -6 49 -41q23 -27 39 -62q1 -4 1 -9q0 -26 -26 -79l-63 -121q-39 -86 -72 -194l-24 -86l-5 -31q0 -25 8.5 -38t34.5 -15q43 0 141.5 147.5 t98.5 210.5l-2 43q0 63 27.5 135t75 101.5t81.5 29.5q16 0 50 -13t46.5 -70.5t12.5 -86.5q0 -49 -14 -90l-46 -108q-6 -12 5 -19l32 -2q18 0 27 4l41 21l45 29l20 16q16 10 29 8q27 -6 27 -82l-6 -47l-27 -53q-16 -31 -74 -66q-57 -29 -116 -28q-80 0 -94.5 -7.5 t-71.5 -89.5l-29 -41q-96 -131 -185 -202.5t-188 -71.5q-45 0 -84 23q-39 27 -80 97t-41 189z" />
<glyph unicode="w" horiz-adv-x="1177" d="M61 303q0 61 4.5 104.5t18.5 104.5q23 113 51 193l43 126l15 43l6 48l8 43q6 10 29 20l45 16l38 7q31 0 51.5 -13.5t58.5 -59.5t38 -71q0 -16 -18 -53l-33 -61l-45 -117l-33 -107q-14 -57 -14 -100q6 -8 10 -10q10 2 12 4q20 39 37.5 72.5t40.5 70.5l98 164l117 174 q63 88 119 88q25 0 62.5 -24.5t60.5 -57.5q27 -33 26 -67q0 -27 -18 -88l-19 -60l-41 -166l-10 -63l-6 -60q0 -16 10 -22q14 0 23 4q45 35 83 114t62 154l27 142l6 69l-4 47l6 29q6 18 23.5 30.5t60.5 18.5q45 0 68.5 -10t58.5 -51l43 -56l8 -36l-8 -33l-10 -33l-6 -29 l-17 -92q-49 -233 -179 -425.5t-216 -217.5l-92 -20q-37 0 -66 20l-63 55q-35 37 -48.5 69t-13.5 73t13 100l18 84l8 35q4 18 -14 18q-12 0 -21 -16l-28 -51l-99 -180l-65 -132q-41 -68 -84 -67q-25 0 -92 37q-61 37 -90 65q-20 29 -41 88q-13 53 -13 119z" />
<glyph unicode="x" horiz-adv-x="956" d="M-12 154q0 55 60.5 141t129.5 154l107 102q39 39 39 76l-9 61l-14 88l-4 25q-6 37 -22.5 63.5t-16.5 44.5q0 10 12.5 31t44 40t72.5 19q9 1 17 2q30 0 53 -18l69 -57q10 -10 13 -35l2 -35l2 -49q0 -27 16 -27q12 0 27 15l24 26q84 78 156 123t123 45l35 -8 q20 -6 47.5 -37t38.5 -55l8 -29q0 -25 -14.5 -52.5t-38.5 -55.5l-33 -35q-10 -6 -33 -6l-33 -2q-14 0 -57 -21.5t-133 -93.5t-90 -113q-2 -14 -2 -39q0 -35 11 -81t33.5 -67.5t55.5 -23.5l33 6q20 6 45.5 24.5t36 27t30.5 28.5l56 54l24 20q10 10 27 10q12 -2 20 -28l13 -43 l4 -29v-12q0 -31 -21 -66q-49 -94 -142 -172t-144 -86l-70 -8q-41 0 -78 11t-70.5 47t-50.5 79q-10 37 -20 119q0 31 -19 31q-16 0 -41 -31l-45 -78q-25 -43 -24 -72q0 -25 -4 -36q0 -12 -10.5 -26.5t-43 -27t-61.5 -12.5l-29 4q-14 6 -57 50t-49 65z" />
<glyph unicode="y" horiz-adv-x="819" d="M76 -334q0 53 30 133l74 158l41 90q-49 37 -72.5 99.5t-23.5 138.5v46q0 22 4 42l18 102l58 281l14 57l10 64l-2 49l6 30q6 12 31 25l47 23l47 8q33 0 62 -23q31 -18 55.5 -66.5t20.5 -82.5l-21 -58l-22 -63l-23 -90l-33 -164q-6 -33 15 -35q16 0 30 21l80 133l88 141 l82 127q10 16 17 55l6 47q0 10 26 29q12 8 29.5 12t48.5 4l41 -8q31 -6 51.5 -31.5t38.5 -66.5l17 -47q0 -12 -35 -66l-76 -121l-104 -176l-115 -196l-102 -191l-93 -174l-59 -131q-25 -55 -25 -106l4 -66v-25q0 -16 -8 -27t-37 -30q-12 -10 -24 -14t-19 -8l-38 -7l-37 9 q-20 6 -60.5 40.5t-52.5 63.5z" />
<glyph unicode="z" horiz-adv-x="808" d="M8 178q0 41 55 109q55 61 132 131l161 147l127 115q37 35 41 49q0 12 -10 12l-61 -2l-78 -10l-58 -4h-22h-16q-10 4 -15 4q-16 6 -33 23q-25 18 -24 71q0 31 17.5 61.5t49.5 57.5q27 18 48 21l34 -5l37 -4h35l201 15h45l51 2q63 0 88 -6q25 -2 35 -15.5t31 -87.5l20 -94 q0 -43 -55 -92l-117 -98l-162 -146l-135 -121q-12 -12 -12 -24q0 -18 18 -15q33 0 51 4l58 5q57 0 92 -13.5t63.5 -49.5t28.5 -77q0 -27 -14.5 -59.5t-27.5 -48t-38 -15.5q-14 0 -22.5 2.5t-40.5 14.5q-43 18 -94 18q-80 0 -156 -11t-135 -28l-84 -14q-18 0 -41 18 q-16 20 -43 70q-25 53 -25 90z" />
<glyph unicode="{" horiz-adv-x="1060" d="M244 475v103l133 24q51 12 112 60q59 41 77 102t18 168v164q0 127 10 174q8 53 74.5 126.5t187.5 105.5t227 32v-80l-129 -31l-53 -26q-88 -45 -113 -119q-20 -76 -20 -182v-146q0 -221 -93 -301t-335 -125q66 -6 115 -14t77 -21q59 -18 127 -71q66 -47 89.5 -144.5 t23.5 -210.5v-83q0 -182 60.5 -267.5t257.5 -109.5v-78q-109 0 -184 13t-170 69.5t-126 142.5q-27 94 -26 234v143q0 184 -73.5 250.5t-266.5 97.5z" />
<glyph unicode="|" horiz-adv-x="548" d="M385 -395v1816h96v-1816h-96z" />
<glyph unicode="}" horiz-adv-x="1060" d="M258 -397q190 23 254 108q31 43 47 108.5t16 160.5v83q0 66 4.5 112t16.5 99q20 90 93 144.5t149 75.5q80 18 170 30q-244 43 -336 121t-92 305v146q0 66 -4.5 106.5t-16.5 79.5q-18 63 -113 115q-37 25 -92 37l-90 20v80q113 0 229.5 -32t181 -101.5t77 -133 t12.5 -171.5v-164q0 -113 13.5 -168t76.5 -100q57 -39 119 -60q47 -14 131 -26v-103q-190 -25 -265 -93.5t-75 -254.5v-143q0 -156 -25.5 -236t-126.5 -137q-45 -27 -87 -44.5t-82 -25.5t-85 -12t-100 -4v78z" />
<glyph unicode="~" horiz-adv-x="655" d="M397 1212l13 27l36 53q31 43 98.5 93.5t119.5 50.5l114 -27q29 -6 79 -16.5t67 -10.5q41 0 63 9l37 14l37 20q10 6 17 -1t3 -19l-16 -27l-43 -65q-31 -45 -82 -83t-121 -50q-39 -6 -123 26q-80 37 -114 37q-39 0 -54 -4q-16 0 -45 -14l-65 -33q-10 -6 -17.5 1t-3.5 19z " />
<glyph horiz-adv-x="1189" d="M63 573q0 -4 17 -53q14 -45 49 -45q18 0 76 23q74 29 125 43q119 29 168 28q20 0 44.5 -2t55.5 -6q25 -4 92 -12q14 0 43 -6q10 -2 25 -2h35q76 0 112.5 20.5t46.5 52.5q4 12 4 27q0 49 -68.5 68.5t-221.5 19.5h-21q-14 0 -36.5 2t-37.5 2h-24q-20 0 -45 -3t-53.5 -7 t-71.5 -13.5t-103 -25.5q-59 -14 -100 -28.5t-68 -28.5q-43 -23 -43 -54zM96 836q0 -4 17 -54q14 -45 49 -45q18 0 74 23q68 27 126 43q119 29 168 28q20 0 45 -2t56 -6q25 -4 92 -12q14 0 43 -6q10 -2 25 -2h34q76 0 113 20.5t47 53.5q4 12 4 26q0 49 -68.5 68.5 t-222.5 19.5h-20q-14 0 -37 2t-37 2h-24q-20 0 -45 -3t-53.5 -7t-71.5 -13t-103 -26q-59 -14 -100 -28.5t-68 -28.5q-43 -22 -43 -53zM96 836q0 29 49.5 55.5t176.5 58.5q63 16 105 25.5t62 13.5q39 6 91 6q14 0 51 -2t67 -2q291 0 291 -88q0 -14 -4 -26q-10 -33 -46 -53.5 t-110 -20.5q-37 0 -76.5 4t-79.5 10t-76 10t-67 4q-49 0 -168 -28q-16 -4 -54 -17.5t-95 -35.5q-35 -12 -51 -13q-33 0 -51 49q-2 8 -8.5 24t-6.5 26zM291 389q0 -82 26.5 -163t81.5 -136q25 -29 56.5 -48t62.5 -30.5t59.5 -16.5t49.5 -3q27 0 64.5 6t68.5 12 q100 23 252 137q156 119 186.5 195t30.5 90q0 23 -25 53q-23 35 -57.5 53.5t-61.5 18.5q-31 -2 -55 -20l-86 -91l-90 -84l-70 -51l-69 -43q-27 -14 -62 -14l-37 8q-35 18 -44 44t-9 61q0 123 127 340q131 219 205 286q86 80 142.5 121t76.5 41q29 0 29 -37 q-2 -16 -9.5 -42.5t-19.5 -65.5q-25 -74 -24 -90v-19q0 -27 4 -46t12 -36q18 -35 45 -41q31 -12 53 -12l60 6q41 12 59 53q12 23 20.5 55.5t16.5 77.5q4 25 7 40.5t4 28.5t2 28.5t1 40.5q0 72 -20.5 145.5t-63.5 114.5q-41 41 -81 56t-83 15l-41 -4q-236 -49 -483 -356 q-250 -309 -280.5 -463t-30.5 -215z" />
<glyph unicode="&#x20ac;" horiz-adv-x="1189" d="M63 573q0 -4 17 -53q14 -45 49 -45q18 0 76 23q74 29 125 43q119 29 168 28q20 0 44.5 -2t55.5 -6q25 -4 92 -12q14 0 43 -6q10 -2 25 -2h35q76 0 112.5 20.5t46.5 52.5q4 12 4 27q0 49 -68.5 68.5t-221.5 19.5h-21q-14 0 -36.5 2t-37.5 2h-24q-20 0 -45 -3t-53.5 -7 t-71.5 -13.5t-103 -25.5q-59 -14 -100 -28.5t-68 -28.5q-43 -23 -43 -54zM96 836q0 -4 17 -54q14 -45 49 -45q18 0 74 23q68 27 126 43q119 29 168 28q20 0 45 -2t56 -6q25 -4 92 -12q14 0 43 -6q10 -2 25 -2h34q76 0 113 20.5t47 53.5q4 12 4 26q0 49 -68.5 68.5 t-222.5 19.5h-20q-14 0 -37 2t-37 2h-24q-20 0 -45 -3t-53.5 -7t-71.5 -13t-103 -26q-59 -14 -100 -28.5t-68 -28.5q-43 -22 -43 -53zM96 836q0 29 49.5 55.5t176.5 58.5q63 16 105 25.5t62 13.5q39 6 91 6q14 0 51 -2t67 -2q291 0 291 -88q0 -14 -4 -26q-10 -33 -46 -53.5 t-110 -20.5q-37 0 -76.5 4t-79.5 10t-76 10t-67 4q-49 0 -168 -28q-16 -4 -54 -17.5t-95 -35.5q-35 -12 -51 -13q-33 0 -51 49q-2 8 -8.5 24t-6.5 26zM291 389q0 -82 26.5 -163t81.5 -136q25 -29 56.5 -48t62.5 -30.5t59.5 -16.5t49.5 -3q27 0 64.5 6t68.5 12 q100 23 252 137q156 119 186.5 195t30.5 90q0 23 -25 53q-23 35 -57.5 53.5t-61.5 18.5q-31 -2 -55 -20l-86 -91l-90 -84l-70 -51l-69 -43q-27 -14 -62 -14l-37 8q-35 18 -44 44t-9 61q0 123 127 340q131 219 205 286q86 80 142.5 121t76.5 41q29 0 29 -37 q-2 -16 -9.5 -42.5t-19.5 -65.5q-25 -74 -24 -90v-19q0 -27 4 -46t12 -36q18 -35 45 -41q31 -12 53 -12l60 6q41 12 59 53q12 23 20.5 55.5t16.5 77.5q4 25 7 40.5t4 28.5t2 28.5t1 40.5q0 72 -20.5 145.5t-63.5 114.5q-41 41 -81 56t-83 15l-41 -4q-236 -49 -483 -356 q-250 -309 -280.5 -463t-30.5 -215z" />
<glyph horiz-adv-x="1767" d="M80 391q0 209 182 498t324.5 383t195.5 121l80 37l49 8q39 0 70 -23q35 -20 49 -43q16 -18 25 -45q8 23 63 41l94 21l291 45l88 12l64 4q51 0 76 -8q29 -6 50 -29.5t36.5 -75t15.5 -90.5l-8 -47q-6 -31 -33 -37l-39 19l-43 10l-29 2l-26 -2h-33q-37 0 -86 -8l-102 -19 q-49 -12 -105 -100q-31 -47 -49 -82t-31 -63l-22 -64q0 -14 33 -16l104 16l66 6q43 0 73.5 -17.5t50 -69.5t19.5 -87q0 -63 -25 -80l-35 -14l-30 12l-47 4l-95 -4q-49 0 -84.5 -4t-90 -19.5t-68 -29.5t-37.5 -74l-45 -125l-8 -39q0 -14 13 -21t34 -7l24 2l64 14l71 16l58 11 l59 6q41 0 63.5 -7t45.5 -32l30 -45q12 -20 15 -47l4 -31v-12l-6 -43q-6 -25 -31 -31q-31 8 -59.5 14.5t-49.5 6.5q-35 0 -120 -25l-158 -43l-78 -27q-55 -18 -88 -18t-66.5 22.5t-99.5 85.5l-18 23q-23 -18 -52.5 -39.5t-49 -34t-47 -25t-60.5 -24.5q-31 -8 -57.5 -12 t-61.5 -4q-41 0 -84 12t-104 55q-53 41 -86 139.5t-33 196.5zM344 356q0 -45 19.5 -73.5t76.5 -28.5q109 12 240 190q63 86 109.5 156t71 119t44 97t35.5 95q31 86 31 150q0 37 -18.5 67.5t-65.5 30.5q-102 0 -244 -172q-66 -82 -118 -164t-95 -168q-27 -55 -56.5 -149.5 t-29.5 -149.5z" />
<glyph unicode="&#x152;" horiz-adv-x="1767" d="M80 391q0 209 182 498t324.5 383t195.5 121l80 37l49 8q39 0 70 -23q35 -20 49 -43q16 -18 25 -45q8 23 63 41l94 21l291 45l88 12l64 4q51 0 76 -8q29 -6 50 -29.5t36.5 -75t15.5 -90.5l-8 -47q-6 -31 -33 -37l-39 19l-43 10l-29 2l-26 -2h-33q-37 0 -86 -8l-102 -19 q-49 -12 -105 -100q-31 -47 -49 -82t-31 -63l-22 -64q0 -14 33 -16l104 16l66 6q43 0 73.5 -17.5t50 -69.5t19.5 -87q0 -63 -25 -80l-35 -14l-30 12l-47 4l-95 -4q-49 0 -84.5 -4t-90 -19.5t-68 -29.5t-37.5 -74l-45 -125l-8 -39q0 -14 13 -21t34 -7l24 2l64 14l71 16l58 11 l59 6q41 0 63.5 -7t45.5 -32l30 -45q12 -20 15 -47l4 -31v-12l-6 -43q-6 -25 -31 -31q-31 8 -59.5 14.5t-49.5 6.5q-35 0 -120 -25l-158 -43l-78 -27q-55 -18 -88 -18t-66.5 22.5t-99.5 85.5l-18 23q-23 -18 -52.5 -39.5t-49 -34t-47 -25t-60.5 -24.5q-31 -8 -57.5 -12 t-61.5 -4q-41 0 -84 12t-104 55q-53 41 -86 139.5t-33 196.5zM344 356q0 -45 19.5 -73.5t76.5 -28.5q109 12 240 190q63 86 109.5 156t71 119t44 97t35.5 95q31 86 31 150q0 37 -18.5 67.5t-65.5 30.5q-102 0 -244 -172q-66 -82 -118 -164t-95 -168q-27 -55 -56.5 -149.5 t-29.5 -149.5z" />
<glyph horiz-adv-x="446" d="M340 1055q0 57 38 125.5t94 126t114 82.5q29 12 70.5 26.5t60.5 20.5q12 0 20 -9q6 -10 -4 -18q-82 -82 -123 -150.5t-41 -103.5l6 -33q6 -16 43 -45q37 -25 44 -67q4 -27 -6.5 -59.5t-41.5 -59.5q-33 -33 -94 -33l-41 6q-20 8 -43 29l-43 51l-28 31l-19 37z" />
<glyph unicode="&#x2018;" horiz-adv-x="446" d="M340 1055q0 57 38 125.5t94 126t114 82.5q29 12 70.5 26.5t60.5 20.5q12 0 20 -9q6 -10 -4 -18q-82 -82 -123 -150.5t-41 -103.5l6 -33q6 -16 43 -45q37 -25 44 -67q4 -27 -6.5 -59.5t-41.5 -59.5q-33 -33 -94 -33l-41 6q-20 8 -43 29l-43 51l-28 31l-19 37z" />
<glyph horiz-adv-x="446" d="M336 874l6 9q12 16 18 22l84 96q61 72 62 134v12l-10 24q-4 18 -41 44t-43 69q-2 23 6 59q12 33 44 63t93 30l45 -9q33 -6 68 -59l61 -84l6 -43q0 -63 -38 -130t-94 -123t-116 -85l-129 -45q-20 -2 -22 16z" />
<glyph unicode="&#x2019;" horiz-adv-x="446" d="M336 874l6 9q12 16 18 22l84 96q61 72 62 134v12l-10 24q-4 18 -41 44t-43 69q-2 23 6 59q12 33 44 63t93 30l45 -9q33 -6 68 -59l61 -84l6 -43q0 -63 -38 -130t-94 -123t-116 -85l-129 -45q-20 -2 -22 16z" />
<glyph horiz-adv-x="913" d="M322 1055q0 57 37.5 125.5t94 126t113.5 82.5q29 12 71 26.5t60 20.5q20 2 23 -15q-4 -8 -10 -15t-27 -30l-84 -102q-49 -61 -49 -115v-12l6 -21q2 -10 41 -44.5t47 -71.5q4 -27 -6 -59.5t-41 -59.5q-33 -33 -94 -33q-25 0 -40 5t-40 26l-43 45l-35 41l-18 37zM823 1055 q0 57 38 125.5t94.5 126t113.5 82.5q14 6 55 20t78 27q18 0 21 -15q-4 -8 -10.5 -15t-26.5 -30l-84 -102q-49 -61 -49 -115v-12l6 -21q2 -10 41 -44.5t47 -71.5q4 -27 -6.5 -59.5t-40.5 -59.5q-33 -33 -94 -33q-25 0 -40.5 5t-39.5 26l-47 53l-50 68z" />
<glyph unicode="&#x201c;" horiz-adv-x="913" d="M322 1055q0 57 37.5 125.5t94 126t113.5 82.5q29 12 71 26.5t60 20.5q20 2 23 -15q-4 -8 -10 -15t-27 -30l-84 -102q-49 -61 -49 -115v-12l6 -21q2 -10 41 -44.5t47 -71.5q4 -27 -6 -59.5t-41 -59.5q-33 -33 -94 -33q-25 0 -40 5t-40 26l-43 45l-35 41l-18 37zM823 1055 q0 57 38 125.5t94.5 126t113.5 82.5q14 6 55 20t78 27q18 0 21 -15q-4 -8 -10.5 -15t-26.5 -30l-84 -102q-49 -61 -49 -115v-12l6 -21q2 -10 41 -44.5t47 -71.5q4 -27 -6.5 -59.5t-40.5 -59.5q-33 -33 -94 -33q-25 0 -40.5 5t-39.5 26l-47 53l-50 68z" />
<glyph horiz-adv-x="913" d="M328 874l8 13q4 6 24 24q29 29 83.5 100.5t54.5 123.5v12l-9 20q0 12 -38.5 45t-47.5 72q-2 29 7 62q12 29 39 59q37 31 98 31l37 -4q37 -12 71 -60l50 -61q10 -10 16 -29.5t6 -42.5q0 -57 -38 -126t-94 -125t-116 -85l-129 -45q-20 -2 -22 16zM829 874l9 13q4 6 24 24 q29 29 83 100.5t54 123.5v12l-8 20q0 12 -41 45q-37 35 -41 57.5t-4 39.5q0 18 8.5 42.5t41 54.5t94.5 30l36 -4q37 -12 72 -60l49 -61q10 -10 16.5 -29.5t6.5 -42.5q0 -57 -38 -126t-94.5 -125t-115.5 -85l-129 -45q-21 -2 -23 16z" />
<glyph unicode="&#x201d;" horiz-adv-x="913" d="M328 874l8 13q4 6 24 24q29 29 83.5 100.5t54.5 123.5v12l-9 20q0 12 -38.5 45t-47.5 72q-2 29 7 62q12 29 39 59q37 31 98 31l37 -4q37 -12 71 -60l50 -61q10 -10 16 -29.5t6 -42.5q0 -57 -38 -126t-94 -125t-116 -85l-129 -45q-20 -2 -22 16zM829 874l9 13q4 6 24 24 q29 29 83 100.5t54 123.5v12l-8 20q0 12 -41 45q-37 35 -41 57.5t-4 39.5q0 18 8.5 42.5t41 54.5t94.5 30l36 -4q37 -12 72 -60l49 -61q10 -10 16.5 -29.5t6.5 -42.5q0 -57 -38 -126t-94.5 -125t-115.5 -85l-129 -45q-21 -2 -23 16z" />
<glyph horiz-adv-x="401" d="M135 684q0 35 25.5 61.5t70.5 45.5q18 6 48 10q43 0 63 -23l59 -71q37 -47 41 -82l-12 -66q-12 -49 -56 -68.5t-67 -19.5q-45 0 -67 29l-80 94q-25 31 -25 90z" />
<glyph unicode="&#x2022;" horiz-adv-x="401" d="M135 684q0 35 25.5 61.5t70.5 45.5q18 6 48 10q43 0 63 -23l59 -71q37 -47 41 -82l-12 -66q-12 -49 -56 -68.5t-67 -19.5q-45 0 -67 29l-80 94q-25 31 -25 90z" />
<glyph horiz-adv-x="1470" d="M94 446q14 43 90 64q35 8 91.5 16.5t82.5 12.5l344 24l363 15q129 0 208 -11.5t105.5 -50.5t36.5 -90l6 -111q0 -29 -22 -26l-164 35l-127 8q-168 0 -383 -19q-88 0 -165 -10t-150 -24l-140 -23l-57 -6q-49 0 -61 20l-37 95q-25 71 -21 81z" />
<glyph unicode="&#x2013;" horiz-adv-x="1470" d="M94 446q14 43 90 64q35 8 91.5 16.5t82.5 12.5l344 24l363 15q129 0 208 -11.5t105.5 -50.5t36.5 -90l6 -111q0 -29 -22 -26l-164 35l-127 8q-168 0 -383 -19q-88 0 -165 -10t-150 -24l-140 -23l-57 -6q-49 0 -61 20l-37 95q-25 71 -21 81z" />
<glyph horiz-adv-x="1660" d="M72 446q14 43 90 64q37 10 67.5 15t121.5 14.5t221 16.5t216 7l484 15q129 0 209 -13q80 -8 107.5 -50t33.5 -91l6 -109q0 -29 -22 -26l-164 35l-125 8q-41 0 -293 -13q-127 -6 -223 -6q-154 0 -243 -8t-169 -24l-135 -25l-64 -6q-47 0 -65 26l-35 95z" />
<glyph unicode="&#x2014;" horiz-adv-x="1660" d="M72 446q14 43 90 64q37 10 67.5 15t121.5 14.5t221 16.5t216 7l484 15q129 0 209 -13q80 -8 107.5 -50t33.5 -91l6 -109q0 -29 -22 -26l-164 35l-125 8q-41 0 -293 -13q-127 -6 -223 -6q-154 0 -243 -8t-169 -24l-135 -25l-64 -6q-47 0 -65 26l-35 95z" />
<glyph horiz-adv-x="1304" d="M59 303q0 133 80 304t174 247q23 18 67 52t79 52q55 31 88 37l63 9q35 0 70 -11.5t57 -40.5q23 -23 35 -92l51 49q117 98 230 99q25 0 98 -19q70 -14 94 -86q10 -33 16.5 -59.5t6.5 -48.5q0 -63 -27 -136q-10 -29 -32.5 -68.5t-51.5 -72.5q-53 -68 -137 -102 q-82 -29 -195 -29q-10 0 -16 -31l-4 -37q0 -33 18 -63l29 -20q2 0 16.5 -2.5t38.5 -2.5q82 0 156 68q63 59 176 209l23 39q8 12 24 16q16 0 29.5 -11t25 -34.5t11.5 -68.5q0 -76 -118 -208t-213 -185.5t-198 -53.5q-76 0 -136 32t-93 85q-18 -20 -41 -37l-74 -49 q-53 -33 -147 -33q-61 0 -125 29.5t-103 89.5q-31 57 -41 108zM307 297q12 -35 43 -45q20 -4 38 4t64 49t100 158t54 182q0 25 -10 37q-6 16 -21 25l-20 8q-18 0 -39 -15q-35 -18 -94 -102q-39 -53 -81 -157.5t-34 -143.5zM872 555l43 -8q55 0 103.5 53t73.5 156 q6 29 -29 28q-16 0 -31 -8l-35 -31l-53 -57q-37 -41 -61.5 -84t-10.5 -49z" />
<glyph unicode="&#x153;" horiz-adv-x="1304" d="M59 303q0 133 80 304t174 247q23 18 67 52t79 52q55 31 88 37l63 9q35 0 70 -11.5t57 -40.5q23 -23 35 -92l51 49q117 98 230 99q25 0 98 -19q70 -14 94 -86q10 -33 16.5 -59.5t6.5 -48.5q0 -63 -27 -136q-10 -29 -32.5 -68.5t-51.5 -72.5q-53 -68 -137 -102 q-82 -29 -195 -29q-10 0 -16 -31l-4 -37q0 -33 18 -63l29 -20q2 0 16.5 -2.5t38.5 -2.5q82 0 156 68q63 59 176 209l23 39q8 12 24 16q16 0 29.5 -11t25 -34.5t11.5 -68.5q0 -76 -118 -208t-213 -185.5t-198 -53.5q-76 0 -136 32t-93 85q-18 -20 -41 -37l-74 -49 q-53 -33 -147 -33q-61 0 -125 29.5t-103 89.5q-31 57 -41 108zM307 297q12 -35 43 -45q20 -4 38 4t64 49t100 158t54 182q0 25 -10 37q-6 16 -21 25l-20 8q-18 0 -39 -15q-35 -18 -94 -102q-39 -53 -81 -157.5t-34 -143.5zM872 555l43 -8q55 0 103.5 53t73.5 156 q6 29 -29 28q-16 0 -31 -8l-35 -31l-53 -57q-37 -41 -61.5 -84t-10.5 -49z" />
<glyph horiz-adv-x="1013" d="M227 129q0 63 54 156l100 168l43 73q12 23 12 35t-22 21q-66 12 -86.5 40.5t-20.5 102.5v32q0 13 8 54l25 117l33 127l26 96l15 55l2 47l-2 68v26q0 11 8 35q0 18 41 33l47 12l25 3h16q25 0 51 -11q27 -6 49.5 -29.5t46.5 -84.5l17 -43q0 -18 -13 -50l-26 -69l-35 -103 l-33 -110l-20 -80q-6 -35 16 -35q16 0 49 41l111 141l156 197q76 94 154.5 168t156.5 74l31 -2q12 0 22 -11l51 -37l56 -40q12 -6 18 -25q4 -25 -45 -74l-186 -180q-63 -61 -125 -130t-109 -132l-180 -248l-141 -201l-78 -125q-18 -37 -31 -100q0 -55 -6 -80q0 -25 -37 -43 t-80 -18q-27 0 -43 8l-29 18l-26 23l-37 29q-20 16 -27 30zM850 1626q0 43 84 146q41 49 67.5 78.5t40.5 39.5q33 23 56 23q14 0 26 -10q10 -4 51.5 -59.5t49.5 -74.5q6 -16 -1 -28t-32 -29l-125 -72q-27 -14 -74 -56t-65 -48q-10 -4 -23.5 2t-36.5 35q-10 14 -14 27.5 t-4 25.5z" />
<glyph unicode="&#x178;" horiz-adv-x="1013" d="M227 129q0 63 54 156l100 168l43 73q12 23 12 35t-22 21q-66 12 -86.5 40.5t-20.5 102.5v32q0 13 8 54l25 117l33 127l26 96l15 55l2 47l-2 68v26q0 11 8 35q0 18 41 33l47 12l25 3h16q25 0 51 -11q27 -6 49.5 -29.5t46.5 -84.5l17 -43q0 -18 -13 -50l-26 -69l-35 -103 l-33 -110l-20 -80q-6 -35 16 -35q16 0 49 41l111 141l156 197q76 94 154.5 168t156.5 74l31 -2q12 0 22 -11l51 -37l56 -40q12 -6 18 -25q4 -25 -45 -74l-186 -180q-63 -61 -125 -130t-109 -132l-180 -248l-141 -201l-78 -125q-18 -37 -31 -100q0 -55 -6 -80q0 -25 -37 -43 t-80 -18q-27 0 -43 8l-29 18l-26 23l-37 29q-20 16 -27 30zM850 1626q0 43 84 146q41 49 67.5 78.5t40.5 39.5q33 23 56 23q14 0 26 -10q10 -4 51.5 -59.5t49.5 -74.5q6 -16 -1 -28t-32 -29l-125 -72q-27 -14 -74 -56t-65 -48q-10 -4 -23.5 2t-36.5 35q-10 14 -14 27.5 t-4 25.5z" />
<glyph unicode="&#xa2;" horiz-adv-x="837" d="M182 682q0 154 122 354.5t217 242.5t138 52l78 8l27 76q8 23 24 39q14 10 35 8q18 -6 19 -28q0 -27 -11 -50l-22 -73q37 -37 55.5 -89.5t18.5 -103.5l-4 -51l-13 -61q-6 -29 -30.5 -79t-47.5 -59l-34 -8l-23 -2q-16 0 -35 12l-24 27q-8 16 -8 49q2 10 3 19.5t13 42.5 l18 61q0 23 -22 23q-10 0 -27 -13l-53 -61q-39 -51 -98.5 -181t-59.5 -196l6 -45q6 -25 37 -37l43 -10q37 0 86 25.5t92 58.5l70 61l59 66l60 67q29 31 43 37q16 -6 25.5 -13t16.5 -25.5t11 -49.5q0 -27 -32.5 -106.5t-164 -189t-221.5 -132.5q-86 -18 -135 -18l-33 -76 q-12 -33 -24 -52.5t-25 -19.5q-20 0 -37 19q-8 12 7 59l36 88q-106 61 -143 141q-33 87 -33 193z" />
<glyph unicode="&#xa3;" horiz-adv-x="1042" d="M6 176q6 25 41 51l72 49l67 48l60 55l57 80l37 57q6 10 6 27q0 18 -18 12l-39 -10l-25 -2q-27 0 -59 32q-29 35 -29 82l6 39q6 33 26.5 69t51.5 48q14 2 45 -6l45 -8l41 4l41 14l39 119q59 186 92 259t98.5 135.5t145.5 84.5q78 18 125 19q74 0 134 -21.5t108 -73.5 q47 -45 67 -104q8 -25 14.5 -55.5t6.5 -59.5q0 -35 -11.5 -74.5t-48.5 -78.5t-67 -45l-37 -7q-20 0 -34.5 8.5t-49.5 46.5t-39 70l6 33l6 47q0 43 -37 66q-25 12 -65.5 -17.5t-74.5 -95t-77 -182.5v-23q6 -6 17 -6l65 6l49 4q45 0 79 -13t59.5 -50t25.5 -84l-4 -33 q0 -18 -10 -39l-19 -47q-8 -25 -28 -26l-76 22q-41 10 -86 10l-88 -2q-51 0 -70 -16q-18 -12 -43 -62l-37 -81l-43 -74l-26 -37l-9 -25q0 -16 23 -14l135 18l62 7q53 0 96 -13q39 -8 68.5 -41.5t29.5 -87.5q0 -23 -10 -56.5t-42 -68t-56 -36.5l-27 8l-27 12l-53 18l-59 2 h-51q-88 0 -220 -26l-108 -27l-70 -20l-55 -8q-45 0 -62.5 32.5t-37 87t-19.5 74.5z" />
<glyph unicode="&#xa8;" horiz-adv-x="528" d="M195 1288q0 35 32 66l68 55q33 27 72 27l41 -6q33 -6 51 -25q18 -14 26 -45l11 -45q0 -43 -25 -62l-78 -69q-41 -27 -88 -27q-39 0 -60.5 23.5t-39.5 64.5q-6 12 -10 43zM584 1284q0 39 30 70l64 55q33 27 67 27l39 -6q29 -2 52 -19q18 -10 32.5 -41t14.5 -55 q0 -43 -25 -62l-80 -69q-33 -27 -86 -27q-39 0 -63 23q-20 25 -39 65z" />
<glyph unicode="&#xaa;" horiz-adv-x="1060" d="M63 256q0 131 68 285.5t154 251t170 156t151 59.5l51 -7q33 -6 76 -78.5t64 -86.5l45 -19l41 -18q20 -10 30.5 -33t14.5 -53q0 -37 -13.5 -74t-44.5 -92l-26 -55l-45 -99l-15 -67q0 -12 8.5 -25.5t34.5 -15.5q39 0 80 53l84 117l51 73q8 12 21 15q16 6 27 -17l22 -39 q6 -12 10 -36q0 -20 -28.5 -92t-125 -202t-163 -149.5t-94.5 -19.5q-61 0 -107 39l-24 28l-19 47q-6 31 -24 35q-12 -8 -21 -12q-18 -12 -55 -41l-105 -74q-37 -18 -84 -18q-25 0 -88 16q-68 14 -94.5 102.5t-26.5 145.5zM322 305l6 -31q6 -16 32 -22q3 -1 7 -1q29 0 83 48 q60 53 142 205q70 137 70 215q-6 41 -25 49q-6 4 -14 4q-15 0 -37 -13q-33 -19 -69 -57t-73 -92q-39 -61 -80.5 -158.5t-41.5 -146.5z" />
<glyph unicode="&#xab;" horiz-adv-x="819" d="M152 719q0 55 100 157.5t156 141.5l75 49l29 10q29 4 43 -6q14 -6 41 -41q14 -16 14 -35q0 -10 -4 -16l-63 -61l-76 -72q-25 -25 -49 -62q-6 -10 -16.5 -28.5t-12.5 -26.5l-4 -35q0 -37 18 -86l35 -82l37 -73q8 -23 -24 -47q-31 -18 -54 -19q-16 0 -42.5 14.5 t-114.5 147.5t-88 170zM557 719q0 61 99.5 160.5t156.5 140.5t74 47l28 10q25 4 40.5 -3t43.5 -42q16 -23 17 -35q0 -8 -6 -18l-64 -61l-74 -70l-49 -66q-25 -37 -32 -59l-7 -31q0 -14 3.5 -30.5t17.5 -51.5l37 -84l37 -73q10 -20 -5 -31l-32 -23q-18 -12 -41 -12 q-16 0 -45 14.5t-114 146.5t-85 171z" />
<glyph unicode="&#xad;" horiz-adv-x="745" d="M106 465q-6 35 17 45l108 31l131 26l82 11l80 4h23l35 -9q18 0 36 -24q16 -16 28.5 -56t12.5 -75q0 -43 -12 -60q-10 -6 -29 -10l-47 8h-49l-59 -8l-66 -12q-27 -4 -34 -5t-39 -12l-70 -18l-35 -6q-31 0 -56.5 29.5t-56.5 140.5z" />
<glyph unicode="&#xb2;" d="M70 203q0 63 59 137t188 186l416 342q102 84 159.5 147.5t57.5 104.5q0 31 -24 47l-37 15q-37 0 -105 -35l-55 -41q-14 -10 -42 -38l-40 -40q-53 -55 -88 -55l-65 6q-23 6 -48 31q-8 12 -14 30q-12 33 -12 70q0 27 15.5 80t105.5 120.5t175 97.5t179 30q55 0 76.5 -3 t58.5 -14q59 -12 115 -55q49 -37 78.5 -106.5t29.5 -135.5q0 -94 -49 -168.5t-229 -220.5l-303 -241l-176 -146l-7 -18q0 -16 13 -13l129 25l96 8q53 0 97 -16.5t81 -59.5q33 -43 33 -96q0 -29 -12 -63l-23 -37l-16 -21q-4 -8 -23 -10l-63 16q-55 18 -142 19q-37 0 -57 -2 t-61 -12l-95 -23l-59 -16l-82 -25l-82 -14q-37 0 -49 18q-23 25 -65 96q-35 66 -39 99z" />
<glyph unicode="&#xb3;" d="M84 317q0 51 14 101q6 27 17.5 51.5t29.5 52.5q33 53 74 66l64 10q41 0 77 -29q37 -25 37 -86q0 -16 -4 -25t-8 -20.5t-18 -38.5q-25 -49 -25 -69l6 -35q6 -20 23 -31l37 -12q53 0 128.5 50t122.5 99q35 39 66 99q12 25 16 46t4 38q0 31 -22 43q-16 12 -47 12l-62 -2h-24 q-10 0 -35 5t-37 22l-26 49q-4 16 -6.5 30.5t-4.5 30.5l4 33q6 20 60 53l102 58l27 14q61 37 109 67.5t71 47.5q57 41 57 94q0 16 -4 26.5t-20.5 22.5t-42.5 12q-25 0 -58 -10l-63 -31q-35 -16 -55 -41l-66 -53q-31 -25 -55 -25q-68 0 -91.5 39t-23.5 88q0 23 2 35.5 t17.5 50t113 98t162.5 77.5q35 8 63.5 12t67.5 4q43 0 63.5 -2t57.5 -14q57 -12 125 -78q72 -61 72 -189v-24l-13 -62q-6 -45 -52 -110.5t-89 -104.5q-47 -37 -76 -49q-6 -4 -10 -18q8 -12 12 -17q49 -25 70.5 -70.5t21.5 -105.5v-45q-6 -23 -10 -48.5t-41 -122.5t-175 -221 t-230 -149l-119 -22l-57 -4q-66 0 -124.5 19.5t-105.5 68.5t-72 112q-10 29 -16 60.5t-6 66.5z" />
<glyph unicode="&#xb4;" horiz-adv-x="401" d="M358 1147q0 51 77 143t114 119t57 27q14 0 27 -11l53 -65q39 -51 47 -70q6 -31 -33 -51l-63 -35l-57 -37l-82 -63q-43 -39 -62 -45q-14 -4 -30 8l-31 29q-13 16 -17 51z" />
<glyph unicode="&#xb9;" d="M354 139q0 45 12.5 94.5t36.5 104.5l291 696l6 25l5 14q0 10 -15 8l-69 -20q-29 -6 -38.5 -8t-33.5 -2q-35 0 -69 25.5t-34 105.5l7 61q6 25 18 32t74 17q59 6 104 21l82 24l98 41l54 25l53 22q29 12 49 13q16 0 39 -13l47 -43q29 -31 39 -53q0 -45 -6 -61l-29 -66 l-397 -868l-27 -68l-18 -76l-12 -86l2 -47q0 -18 -17 -32l-45 -21q-20 -6 -63 -10q-74 0 -111 51q-33 55 -33 94z" />
<glyph unicode="&#xba;" horiz-adv-x="772" d="M59 295q0 135 81 307t177.5 249t142.5 102.5t99 37.5l49 4q35 0 68 -10t63 -39q39 -51 39 -160q0 -29 21 -84q10 -23 16 -49t6 -51q0 -131 -87 -301t-193.5 -238.5t-204.5 -68.5q-31 0 -62.5 6t-66.5 23q-63 31 -103 88q-31 53 -41 106zM307 289q12 -37 43 -43q3 0 6 -1 q13 0 33 8q25 9 66 45t96 154.5t55 184.5q0 43 -19.5 56.5t-33.5 13.5q-12 0 -36.5 -13.5t-47.5 -42.5l-47 -61q-39 -53 -81 -158q-35 -87 -35 -129q0 -8 1 -14z" />
<glyph unicode="&#xbb;" horiz-adv-x="819" d="M109 467q0 6 4 18l65 64l76 72l47 59q25 37 31 61l6 33q0 31 -29 103l-63 135q-6 10 -2 24q2 10 27.5 24.5t50.5 18.5q23 0 49 -15t112 -146.5t86 -169.5q0 -61 -99 -160t-161 -142l-76 -49l-24 -8q-20 -4 -37.5 3t-48.5 40q-14 17 -14 35zM518 485l60 58l73 69 q31 31 54.5 67t33.5 69v51q-4 25 -26 78l-64 135q-6 14 0 28q10 14 34 24.5t44 14.5q20 0 47 -15t112 -147.5t85 -168.5q0 -72 -114 -177.5t-161 -136.5l-61 -37l-25 -8q-18 -4 -35.5 3t-39.5 32q-29 41 -17 61z" />
<glyph unicode="&#xc0;" horiz-adv-x="1052" d="M-4 158q0 25 7 46t40 72l33 62l14 35q-6 20 -10 30l-8 54q0 43 16 57l62 35l67 29l105 157q96 133 161 211q49 59 106.5 121.5t90.5 97.5q133 143 242.5 230.5t175.5 74.5q27 -6 41 -15t39 -46l32 -51l43 -45q12 -16 13 -31l-9 -29l-32 -65l-49 -109l-74 -182l-76 -209 q-6 -20 -20.5 -77.5t-24.5 -109.5t-16.5 -120t-6.5 -133l5 -90l4 -62q0 -51 -6.5 -78.5t-30.5 -40.5l-39 -10q-57 0 -117 37q-53 37 -78 78q-20 45 -20 96l2 49q0 20 6 52t10 53l6 45l-43 -2l-194 -17q-66 -8 -94 -30q-16 -14 -60 -80l-51 -86l-25 -66l-18 -78 q-6 -25 -31 -34q-29 -4 -54.5 3t-63 37.5t-56.5 61.5q-14 37 -14 72zM573 631q-8 -18 13 -21l92 13l70 6l16 61l33 98l43 103l34 76q6 8 -4 16q-6 6 -14 0q-133 -119 -283 -352zM907 1782q0 16 8.5 28.5t62.5 52.5t73 48q31 10 55 -35l72 -125l57 -72q45 -51 49 -65 q4 -16 -8 -31l-25 -24l-26 -17q-12 -6 -41 -6q-39 0 -134.5 79t-121.5 111q-21 36 -21 56z" />
<glyph unicode="&#xc1;" horiz-adv-x="1052" d="M-4 158q0 25 7 46t40 72l33 62l14 35q-6 20 -10 30l-8 54q0 43 16 57l62 35l67 29l105 157q96 133 161 211q49 59 106.5 121.5t90.5 97.5q133 143 242.5 230.5t175.5 74.5q27 -6 41 -15t39 -46l32 -51l43 -45q12 -16 13 -31l-9 -29l-32 -65l-49 -109l-74 -182l-76 -209 q-6 -20 -20.5 -77.5t-24.5 -109.5t-16.5 -120t-6.5 -133l5 -90l4 -62q0 -51 -6.5 -78.5t-30.5 -40.5l-39 -10q-57 0 -117 37q-53 37 -78 78q-20 45 -20 96l2 49q0 20 6 52t10 53l6 45l-43 -2l-194 -17q-66 -8 -94 -30q-16 -14 -60 -80l-51 -86l-25 -66l-18 -78 q-6 -25 -31 -34q-29 -4 -54.5 3t-63 37.5t-56.5 61.5q-14 37 -14 72zM573 631q-8 -18 13 -21l92 13l70 6l16 61l33 98l43 103l34 76q6 8 -4 16q-6 6 -14 0q-133 -119 -283 -352zM1102 1628q6 47 84 144q41 49 67.5 78.5t40.5 39.5q33 23 56 23q12 0 28 -12l56 -68l43 -64 q6 -16 -1.5 -28t-31.5 -29l-125 -72l-72 -57q-47 -41 -65 -47q-14 -4 -27.5 3t-33 32.5t-19.5 56.5z" />
<glyph unicode="&#xc2;" horiz-adv-x="1052" d="M-4 158q0 25 7 46t40 72l33 62l14 35q-6 20 -10 30l-8 54q0 43 16 57l62 35l67 29l105 157q96 133 161 211q49 59 106.5 121.5t90.5 97.5q133 143 242.5 230.5t175.5 74.5q27 -6 41 -15t39 -46l32 -51l43 -45q12 -16 13 -31l-9 -29l-32 -65l-49 -109l-74 -182l-76 -209 q-6 -20 -20.5 -77.5t-24.5 -109.5t-16.5 -120t-6.5 -133l5 -90l4 -62q0 -51 -6.5 -78.5t-30.5 -40.5l-39 -10q-57 0 -117 37q-53 37 -78 78q-20 45 -20 96l2 49q0 20 6 52t10 53l6 45l-43 -2l-194 -17q-66 -8 -94 -30q-16 -14 -60 -80l-51 -86l-25 -66l-18 -78 q-6 -25 -31 -34q-29 -4 -54.5 3t-63 37.5t-56.5 61.5q-14 37 -14 72zM573 631q-8 -18 13 -21l92 13l70 6l16 61l33 98l43 103l34 76q6 8 -4 16q-6 6 -14 0q-133 -119 -283 -352zM846 1614q0 23 24.5 57.5t79 80.5t151.5 99.5t144 40.5q29 -6 60 -65l57 -109l45 -82 q14 -27 8 -51q-6 -23 -27.5 -37t-50.5 -14l-34 6q-14 6 -61.5 58.5t-63.5 58.5l-23 4q-45 0 -140 -64.5t-118 -56.5q-51 33 -51 74z" />
<glyph unicode="&#xc3;" horiz-adv-x="1052" d="M-4 158q0 25 7 46t40 72l33 62l14 35q-6 20 -10 30l-8 54q0 43 16 57l62 35l67 29l105 157q96 133 161 211q49 59 106.5 121.5t90.5 97.5q133 143 242.5 230.5t175.5 74.5q27 -6 41 -15t39 -46l32 -51l43 -45q12 -16 13 -31l-9 -29l-32 -65l-49 -109l-74 -182l-76 -209 q-6 -20 -20.5 -77.5t-24.5 -109.5t-16.5 -120t-6.5 -133l5 -90l4 -62q0 -51 -6.5 -78.5t-30.5 -40.5l-39 -10q-57 0 -117 37q-53 37 -78 78q-20 45 -20 96l2 49q0 20 6 52t10 53l6 45l-43 -2l-194 -17q-66 -8 -94 -30q-16 -14 -60 -80l-51 -86l-25 -66l-18 -78 q-6 -25 -31 -34q-29 -4 -54.5 3t-63 37.5t-56.5 61.5q-14 37 -14 72zM573 631q-8 -18 13 -21l92 13l70 6l16 61l33 98l43 103l34 76q6 8 -4 16q-6 6 -14 0q-133 -119 -283 -352zM838 1569l32 53q51 68 115 118t121 50l113 -27q29 -6 79 -16t66 -10q41 0 72.5 11t64.5 32 q10 6 19 -4q6 -4 4 -17l-33 -53q-59 -88 -106.5 -121t-122.5 -49q-41 -6 -120 25.5t-118 35.5l-53 -2q-20 0 -37 -10l-41 -20l-33 -19q-10 -6 -16 0.5t-6 22.5z" />
<glyph unicode="&#xc4;" horiz-adv-x="1052" d="M-4 158q0 25 7 46t40 72l33 62l14 35q-6 20 -10 30l-8 54q0 43 16 57l62 35l67 29l105 157q96 133 161 211q49 59 106.5 121.5t90.5 97.5q133 143 242.5 230.5t175.5 74.5q27 -6 41 -15t39 -46l32 -51l43 -45q12 -16 13 -31l-9 -29l-32 -65l-49 -109l-74 -182l-76 -209 q-6 -20 -20.5 -77.5t-24.5 -109.5t-16.5 -120t-6.5 -133l5 -90l4 -62q0 -51 -6.5 -78.5t-30.5 -40.5l-39 -10q-57 0 -117 37q-53 37 -78 78q-20 45 -20 96l2 49q0 20 6 52t10 53l6 45l-43 -2l-194 -17q-66 -8 -94 -30q-16 -14 -60 -80l-51 -86l-25 -66l-18 -78 q-6 -25 -31 -34q-29 -4 -54.5 3t-63 37.5t-56.5 61.5q-14 37 -14 72zM573 631q-8 -18 13 -21l92 13l70 6l16 61l33 98l43 103l34 76q6 8 -4 16q-6 6 -14 0q-133 -119 -283 -352zM834 1667q0 37 36 68l74 59q29 18 60 21l36 -7q23 -6 30 -7t20 -9q18 -6 31.5 -44t13.5 -54 q0 -39 -33 -70l-70 -59q-39 -29 -88 -29q-39 0 -60.5 20.5t-39.5 65.5zM1221 1665q0 35 36 70l70 59q27 18 59 21l41 -9q33 -6 51.5 -17t31 -41t12.5 -54q0 -39 -33 -70l-72 -63q-33 -25 -88 -25q-39 0 -61.5 22.5t-36.5 63.5z" />
<glyph unicode="&#xc5;" horiz-adv-x="1052" d="M-4 158q0 25 7 46t40 72l33 62l14 35q-6 20 -10 30l-8 54q0 43 16 57l62 35l67 29l105 157q96 133 161 211q49 59 106.5 121.5t90.5 97.5q133 143 242.5 230.5t175.5 74.5q27 -6 41 -15t39 -46l32 -51l43 -45q12 -16 13 -31l-9 -29l-32 -65l-49 -109l-74 -182l-76 -209 q-6 -20 -20.5 -77.5t-24.5 -109.5t-16.5 -120t-6.5 -133l5 -90l4 -62q0 -51 -6.5 -78.5t-30.5 -40.5l-39 -10q-57 0 -117 37q-53 37 -78 78q-20 45 -20 96l2 49q0 20 6 52t10 53l6 45l-43 -2l-194 -17q-66 -8 -94 -30q-16 -14 -60 -80l-51 -86l-25 -66l-18 -78 q-6 -25 -31 -34q-29 -4 -54.5 3t-63 37.5t-56.5 61.5q-14 37 -14 72zM573 631q-8 -18 13 -21l92 13l70 6l16 61l33 98l43 103l34 76q6 8 -4 16q-6 6 -14 0q-133 -119 -283 -352zM981 1683q0 31 6 60t23 61q31 63 94 111l72 35l41 6q43 0 59 -15.5t22 -50.5l15 -59l16 -45 l6 -35l-8 -49q-6 -31 -38 -80t-79 -74q-47 -20 -80 -20t-69 18q-80 49 -80 137zM1106 1694q0 -27 22 -35q18 -6 33 1t31 28q49 55 43 96q-6 27 -33 33q-25 2 -47 -21l-29 -43l-16 -35z" />
<glyph unicode="&#xc6;" horiz-adv-x="1505" d="M-23 137q0 27 8.5 53.5t32.5 71.5l56 113l-8 41l-5 45q0 49 29 63l115 39q23 6 47 39l47 62l90 114q49 66 66 86q27 35 73 88q78 94 214.5 225.5t248 210t168.5 78.5h12l21 -8q12 0 27 -14l28 -23l29 -16l37 -2l151 31l84 14l70 6q45 0 72 -10q33 -6 55 -33 q16 -20 32.5 -73.5t16.5 -90.5l-8 -47q-6 -31 -31 -37l-20 6l-21 13l-43 10l-29 2l-57 -2h-37q-33 -6 -51 -8l-104 -19q-45 -12 -103 -100q-31 -47 -49 -82t-31 -63l-22 -64q0 -14 33 -16l104 16l66 6q43 0 73.5 -17.5t50 -69.5t19.5 -87q0 -63 -25 -80l-34 -14l-31 12 l-45 4l-96 -4q-49 0 -85 -4t-90.5 -19.5t-67.5 -29.5t-38 -74l-45 -125l-8 -39q0 -14 13 -21t34 -7l24 2l64 14l72 16l57 11l61 6q41 0 64 -8q27 -6 41 -24.5t20 -27t13 -24.5q12 -23 14 -47l4 -31v-12l-6 -43q-6 -25 -31 -31q-31 8 -59.5 14.5t-48.5 6.5q-35 0 -121 -25 l-158 -43l-78 -27q-55 -18 -88 -18t-65.5 21.5t-79.5 64.5q-39 43 -48.5 66.5t-13.5 62.5q0 39 15 88l28 78q-14 0 -47 -2t-80 -8q-45 0 -63.5 -2.5t-85.5 -16.5q-53 -6 -76 -37l-68 -106q-41 -74 -69 -156l-8 -45q0 -12 -17 -18l-28 -4q-33 0 -77 28.5t-73 63.5 q-23 32 -27 63zM612 629q2 -6 13 -11l170 15q27 68 51 123q10 23 39 84q49 115 119 231l-3 8q-6 6 -10 6l-16 -8q-106 -98 -205 -215q-43 -51 -82 -104t-76 -107v-22z" />
<glyph unicode="&#xc7;" horiz-adv-x="966" d="M68 389q0 61 30.5 216t279.5 462t380 334l145 26q43 0 83 -15t82 -56t62.5 -115t20.5 -145q0 -47 -3 -68.5t-11.5 -68t-16.5 -79t-20 -55.5q-18 -41 -60 -53l-59 -6q-27 0 -51.5 9t-46.5 44q-18 35 -19 76l2 33l27 98l27 90q0 12 -7.5 25.5t-23.5 13.5q-23 0 -90 -49 q-25 -20 -61 -51t-74 -68q-68 -66 -196 -280.5t-128 -339.5l2 -39q4 -20 15.5 -37t33.5 -29l39 -8q33 0 62 14l69 43l70 51l90 84l86 91q20 16 55 20q66 0 105 -51t39 -74q0 -12 -31 -88t-186.5 -194.5t-301.5 -149.5l-22 -4l-27 -41l-20 -33q-6 -12 0 -22q6 -12 41 -13 l47 -6q23 -6 35 -36.5t12 -49.5q0 -55 -37 -112.5t-111.5 -96.5t-146.5 -39q-43 0 -79 10.5t-59.5 40t-23.5 58.5l8 35q6 18 48 47q6 6 36 10l23 -6q6 -4 4 -23q-6 -18 8.5 -32.5t46.5 -14.5q23 0 31 3t14.5 6.5t31 16.5t34.5 48q4 18 -14.5 30.5t-36.5 12.5l-25 -2l-24 -4 q-14 0 -25 8l-31 21q-18 12 -18 34q0 16 38 68.5t74 87.5q-74 23 -136 83t-88.5 141t-26.5 163z" />
<glyph unicode="&#xc8;" horiz-adv-x="925" d="M61 203q0 51 21 110l27 80l73 189l-39 67q-6 12 -10 35q0 33 41 53l59 21q16 8 27 24l12 29l56 117l73 153l66 125q-49 61 -49 103l8 26q6 18 51 31l103 23l290 45l78 10l72 6q51 0 78.5 -7t49 -30.5t37 -75t15.5 -90.5l-8 -47q-6 -31 -33 -37l-20 6l-21 13l-41 10l-28 2 l-58 -2h-47q-29 -6 -41 -8l-100 -19q-47 -12 -109 -104q-27 -43 -48 -84t-48 -100l-6 -21q0 -14 33 -16l106 16l66 6q41 0 75 -18q29 -18 47.5 -65.5t18.5 -90.5q0 -29 -7 -52.5t-26 -33.5l-24 -8l-31 12l-47 4l-94 -4q-94 0 -163 -19.5t-82 -33.5t-38 -74l-43 -125l-8 -39 q0 -14 14 -22l31 -6l45 6l45 10l72 16l57 11l59 6q41 0 63.5 -7t45.5 -32l31 -45q12 -20 14 -47l4 -31v-12l-6 -43q-6 -25 -31 -31q-31 8 -59.5 14.5t-48.5 6.5q-35 0 -121 -25l-160 -43l-78 -27q-55 -18 -88 -18t-67 22q-18 12 -38 28.5t-48 43.5q-50 50 -50 113zM600 1782 q0 16 8 28.5t62.5 52.5t72.5 48q16 6 29 0q10 -6 27 -35l71 -125l58 -72q45 -51 49 -65t-8 -31l-33 -31q-20 -16 -59 -16t-134 76q-88 78 -116 110q-27 37 -27 60z" />
<glyph unicode="&#xc9;" horiz-adv-x="925" d="M61 203q0 51 21 110l27 80l73 189l-39 67q-6 12 -10 35q0 33 41 53l59 21q16 8 27 24l12 29l56 117l73 153l66 125q-49 61 -49 103l8 26q6 18 51 31l103 23l290 45l78 10l72 6q51 0 78.5 -7t49 -30.5t37 -75t15.5 -90.5l-8 -47q-6 -31 -33 -37l-20 6l-21 13l-41 10l-28 2 l-58 -2h-47q-29 -6 -41 -8l-100 -19q-47 -12 -109 -104q-27 -43 -48 -84t-48 -100l-6 -21q0 -14 33 -16l106 16l66 6q41 0 75 -18q29 -18 47.5 -65.5t18.5 -90.5q0 -29 -7 -52.5t-26 -33.5l-24 -8l-31 12l-47 4l-94 -4q-94 0 -163 -19.5t-82 -33.5t-38 -74l-43 -125l-8 -39 q0 -14 14 -22l31 -6l45 6l45 10l72 16l57 11l59 6q41 0 63.5 -7t45.5 -32l31 -45q12 -20 14 -47l4 -31v-12l-6 -43q-6 -25 -31 -31q-31 8 -59.5 14.5t-48.5 6.5q-35 0 -121 -25l-160 -43l-78 -27q-55 -18 -88 -18t-67 22q-18 12 -38 28.5t-48 43.5q-50 50 -50 113zM719 1626 q0 43 84 146q41 49 67.5 78.5t40.5 39.5q29 23 54 23q16 0 28 -10q10 -4 51 -59.5t50 -74.5q4 -20 -2 -30q-2 -8 -31 -27l-127 -72l-72 -57q-47 -41 -65 -47q-10 -4 -23.5 2t-36.5 35q-10 14 -14 27.5t-4 25.5z" />
<glyph unicode="&#xca;" horiz-adv-x="925" d="M61 203q0 51 21 110l27 80l73 189l-39 67q-6 12 -10 35q0 33 41 53l59 21q16 8 27 24l12 29l56 117l73 153l66 125q-49 61 -49 103l8 26q6 18 51 31l103 23l290 45l78 10l72 6q51 0 78.5 -7t49 -30.5t37 -75t15.5 -90.5l-8 -47q-6 -31 -33 -37l-20 6l-21 13l-41 10l-28 2 l-58 -2h-47q-29 -6 -41 -8l-100 -19q-47 -12 -109 -104q-27 -43 -48 -84t-48 -100l-6 -21q0 -14 33 -16l106 16l66 6q41 0 75 -18q29 -18 47.5 -65.5t18.5 -90.5q0 -29 -7 -52.5t-26 -33.5l-24 -8l-31 12l-47 4l-94 -4q-94 0 -163 -19.5t-82 -33.5t-38 -74l-43 -125l-8 -39 q0 -14 14 -22l31 -6l45 6l45 10l72 16l57 11l59 6q41 0 63.5 -7t45.5 -32l31 -45q12 -20 14 -47l4 -31v-12l-6 -43q-6 -25 -31 -31q-31 8 -59.5 14.5t-48.5 6.5q-35 0 -121 -25l-160 -43l-78 -27q-55 -18 -88 -18t-67 22q-18 12 -38 28.5t-48 43.5q-50 50 -50 113zM635 1614 q0 53 78 115.5t176 119t145 43.5q29 -6 60 -65l57 -109l45 -82q14 -27 8 -51q-6 -23 -27.5 -37t-50.5 -14l-32 6q-14 6 -66 59q-45 51 -59 58l-23 4q-45 0 -143 -64.5t-117 -56.5q-51 33 -51 74z" />
<glyph unicode="&#xcb;" horiz-adv-x="925" d="M61 203q0 51 21 110l27 80l73 189l-39 67q-6 12 -10 35q0 33 41 53l59 21q16 8 27 24l12 29l56 117l73 153l66 125q-49 61 -49 103l8 26q6 18 51 31l103 23l290 45l78 10l72 6q51 0 78.5 -7t49 -30.5t37 -75t15.5 -90.5l-8 -47q-6 -31 -33 -37l-20 6l-21 13l-41 10l-28 2 l-58 -2h-47q-29 -6 -41 -8l-100 -19q-47 -12 -109 -104q-27 -43 -48 -84t-48 -100l-6 -21q0 -14 33 -16l106 16l66 6q41 0 75 -18q29 -18 47.5 -65.5t18.5 -90.5q0 -29 -7 -52.5t-26 -33.5l-24 -8l-31 12l-47 4l-94 -4q-94 0 -163 -19.5t-82 -33.5t-38 -74l-43 -125l-8 -39 q0 -14 14 -22l31 -6l45 6l45 10l72 16l57 11l59 6q41 0 63.5 -7t45.5 -32l31 -45q12 -20 14 -47l4 -31v-12l-6 -43q-6 -25 -31 -31q-31 8 -59.5 14.5t-48.5 6.5q-35 0 -121 -25l-160 -43l-78 -27q-55 -18 -88 -18t-67 22q-18 12 -38 28.5t-48 43.5q-50 50 -50 113zM621 1667 q0 37 36 68l74 59q29 16 62 21l38 -9q29 -6 49.5 -18t32.5 -45l11 -49q0 -39 -33 -70l-72 -59q-39 -29 -86 -29q-41 0 -62.5 20.5t-39.5 65.5zM1008 1665q0 35 36 70l70 59q27 18 60 21l40 -9q33 -6 51.5 -17t31 -41t12.5 -54q0 -39 -33 -70l-70 -63q-39 -31 -90 -25 q-39 0 -61 20q-20 23 -37 66z" />
<glyph unicode="&#xcc;" horiz-adv-x="577" d="M61 141q0 41 9 72l45 133l75 199q35 94 48 123q4 12 36 82q35 86 41 98q18 39 43 88l80 162l64 133l28 63l9 39q4 29 14 43l31 27l45 20q31 12 55 13q55 0 105.5 -62.5t50.5 -87.5q0 -18 -17 -41l-32 -49l-64 -106q-45 -80 -88 -170l-84 -187l-94 -227 q-20 -55 -39 -102.5t-33 -75.5l-31 -78l-14 -57l-4 -46l2 -41q0 -25 4 -36q0 -25 -26.5 -51.5t-102.5 -26.5q-45 0 -78 16.5t-55.5 54t-22.5 78.5zM526 1782q0 14 9 28l65 54q51 39 70 47q29 8 53 -31l41 -78l37 -57q12 -23 54 -68t50 -63q4 -16 -8 -31l-25 -24l-28 -17 q-12 -6 -41 -6q-37 0 -130 78t-124 112q-23 33 -23 56z" />
<glyph unicode="&#xcd;" horiz-adv-x="577" d="M61 141q0 41 9 72l45 133l75 199q35 94 48 123q4 12 36 82q35 86 41 98q18 39 43 88l80 162l64 133l28 63l9 39q4 29 14 43l31 27l45 20q31 12 55 13q55 0 105.5 -62.5t50.5 -87.5q0 -18 -17 -41l-32 -49l-64 -106q-45 -80 -88 -170l-84 -187l-94 -227 q-20 -55 -39 -102.5t-33 -75.5l-31 -78l-14 -57l-4 -46l2 -41q0 -25 4 -36q0 -25 -26.5 -51.5t-102.5 -26.5q-45 0 -78 16.5t-55.5 54t-22.5 78.5zM723 1628q6 47 84 144q41 49 67.5 78.5t40.5 39.5q29 23 54 23q16 0 28 -10l54 -66q41 -53 45 -68q12 -31 -31 -57l-127 -72 l-72 -57q-47 -41 -65 -47q-14 -4 -29 4l-33 35q-16 22 -16 53z" />
<glyph unicode="&#xce;" horiz-adv-x="577" d="M61 141q0 41 9 72l45 133l75 199q35 94 48 123q4 12 36 82q35 86 41 98q18 39 43 88l80 162l64 133l28 63l9 39q4 29 14 43l31 27l45 20q31 12 55 13q55 0 105.5 -62.5t50.5 -87.5q0 -18 -17 -41l-32 -49l-64 -106q-45 -80 -88 -170l-84 -187l-94 -227 q-20 -55 -39 -102.5t-33 -75.5l-31 -78l-14 -57l-4 -46l2 -41q0 -25 4 -36q0 -25 -26.5 -51.5t-102.5 -26.5q-45 0 -78 16.5t-55.5 54t-22.5 78.5zM485 1614q0 23 25 57.5t79 80.5t151.5 99.5t144.5 40.5q29 -6 57 -65l57 -109l45 -82q16 -25 11 -51q-8 -25 -29.5 -38 t-50.5 -13l-33 6q-14 6 -61 58.5t-64 58.5l-22 4q-45 0 -129 -57l-103 -66q-12 -6 -28 2q-50 35 -50 74z" />
<glyph unicode="&#xcf;" horiz-adv-x="577" d="M61 141q0 41 9 72l45 133l75 199q35 94 48 123q4 12 36 82q35 86 41 98q18 39 43 88l80 162l64 133l28 63l9 39q4 29 14 43l31 27l45 20q31 12 55 13q55 0 105.5 -62.5t50.5 -87.5q0 -18 -17 -41l-32 -49l-64 -106q-45 -80 -88 -170l-84 -187l-94 -227 q-20 -55 -39 -102.5t-33 -75.5l-31 -78l-14 -57l-4 -46l2 -41q0 -25 4 -36q0 -25 -26.5 -51.5t-102.5 -26.5q-45 0 -78 16.5t-55.5 54t-22.5 78.5zM487 1663q0 20 8.5 36.5t36.5 43.5l62 51q29 16 61 21l45 -9q37 -6 49.5 -19t24.5 -44q6 -16 10 -49q0 -39 -32 -70l-70 -59 q-39 -29 -88 -29q-39 0 -60.5 20.5t-39.5 65.5zM870 1665q0 35 37 70l70 59q27 16 61 21l45 -9q35 -6 52 -24q14 -12 26 -39q6 -16 10 -49q0 -39 -32 -70l-70 -61q-33 -27 -88 -27q-39 0 -60.5 20.5t-39.5 65.5z" />
<glyph unicode="&#xd1;" horiz-adv-x="1134" d="M61 143q0 45 13 93l76 227q66 182 141.5 364.5t164.5 343t129 212t95 51.5q31 0 49.5 -6.5t38.5 -34.5l35 -45l45 -43q37 -37 37 -88q0 -35 -11 -68l-26 -94l-23 -105l-22 -145l-6 -98q0 -39 -4 -58q0 -12 16 -14q14 0 27 31l88 206l110 244q66 143 123 225t127 82 q37 0 59.5 -13t32.5 -30l15 -18l36 -35q6 -6 11 -27q0 -25 -29 -65l-106 -162q-72 -111 -150 -258q-63 -125 -125 -283l-59 -161l-21 -66l-22 -82l-8 -49l2 -37l2 -37q0 -23 -17 -41q-12 -18 -51 -39q-29 -14 -72 -28l-51 -10q-31 0 -89 52t-77 111q-6 31 -10 64t-4 72v45 v32v25l-2 61v66v22q0 160 24 277l-8 14q-4 6 -16 -6l-92 -190q-39 -86 -70 -176l-43 -150l-29 -129l-14 -92v-27l-2 -30q-12 -14 -24.5 -24.5t-36.5 -10.5q-14 0 -23 4l-31 18l-24 21l-76 51q-23 12 -23 61zM813 1569l12 26q2 4 14.5 20.5t28 36t39 43t56.5 48.5 q63 47 118 47l111 -27q29 -6 79 -16t66 -10q43 0 75 11t65 32q10 6 17 -2.5t3 -18.5l-12 -22l-43 -64q-31 -49 -86 -90q-45 -31 -119 -47q-41 -6 -124 27.5t-116 33.5l-51 -2q-18 0 -45 -14l-67 -35q-6 -6 -17 2q-4 7 -4 21z" />
<glyph unicode="&#xd2;" horiz-adv-x="995" d="M61 391q0 205 184.5 499t315.5 380t199 123q55 29 94 39l39 6q35 0 76 -29q41 -23 53 -51l22 -74q12 -49 27 -70l37 -45q16 -23 30.5 -79t14.5 -109q0 -115 -35 -211q-55 -193 -241.5 -445.5t-319.5 -294.5t-188 -42q-41 0 -86 12t-101.5 56t-88.5 140.5t-32 194.5z M326 360q0 -43 18 -77q18 -29 78 -29q109 12 240 190q63 86 109 156t70.5 119t44 97t36.5 95q31 86 30 150q0 37 -18.5 67.5t-67.5 30.5q-102 0 -243 -172q-133 -166 -211 -332q-18 -37 -36 -83t-24 -66q-26 -91 -26 -146zM662 1782q0 16 9 27.5t29.5 27.5t34.5 27 q51 39 70 47q31 12 57 -35l70 -125q4 -6 17.5 -24.5t41.5 -49.5q41 -45 47 -63q4 -12 -3 -23.5t-32.5 -33t-64.5 -21.5q-37 0 -130 78t-124 112q-22 33 -22 56z" />
<glyph unicode="&#xd3;" horiz-adv-x="995" d="M61 391q0 205 184.5 499t315.5 380t199 123q55 29 94 39l39 6q35 0 76 -29q41 -23 53 -51l22 -74q12 -49 27 -70l37 -45q16 -23 30.5 -79t14.5 -109q0 -115 -35 -211q-55 -193 -241.5 -445.5t-319.5 -294.5t-188 -42q-41 0 -86 12t-101.5 56t-88.5 140.5t-32 194.5z M326 360q0 -43 18 -77q18 -29 78 -29q109 12 240 190q63 86 109 156t70.5 119t44 97t36.5 95q31 86 30 150q0 37 -18.5 67.5t-67.5 30.5q-102 0 -243 -172q-133 -166 -211 -332q-18 -37 -36 -83t-24 -66q-26 -91 -26 -146zM934 1628q6 47 84 144q41 49 67.5 78.5t40.5 39.5 q33 23 56 23q12 0 28 -12l56 -68l43 -64q6 -16 -1.5 -28t-31.5 -29l-125 -72l-72 -57q-47 -41 -65 -47q-14 -4 -27.5 3t-33 32.5t-19.5 56.5z" />
<glyph unicode="&#xd4;" horiz-adv-x="995" d="M61 391q0 205 184.5 499t315.5 380t199 123q55 29 94 39l39 6q35 0 76 -29q41 -23 53 -51l22 -74q12 -49 27 -70l37 -45q16 -23 30.5 -79t14.5 -109q0 -115 -35 -211q-55 -193 -241.5 -445.5t-319.5 -294.5t-188 -42q-41 0 -86 12t-101.5 56t-88.5 140.5t-32 194.5z M326 360q0 -43 18 -77q18 -29 78 -29q109 12 240 190q63 86 109 156t70.5 119t44 97t36.5 95q31 86 30 150q0 37 -18.5 67.5t-67.5 30.5q-102 0 -243 -172q-133 -166 -211 -332q-18 -37 -36 -83t-24 -66q-26 -91 -26 -146zM737 1614q0 53 88 129q59 43 166 106q98 55 144 43 q29 -6 59 -65l57 -109l43 -82q16 -25 11 -51q-8 -23 -29 -37t-49 -14l-35 6q-16 6 -62.5 58.5t-62.5 58.5l-20 4q-45 0 -142.5 -64.5t-120.5 -56.5q-47 31 -47 74z" />
<glyph unicode="&#xd5;" horiz-adv-x="995" d="M61 391q0 205 184.5 499t315.5 380t199 123q55 29 94 39l39 6q35 0 76 -29q41 -23 53 -51l22 -74q12 -49 27 -70l37 -45q16 -23 30.5 -79t14.5 -109q0 -115 -35 -211q-55 -193 -241.5 -445.5t-319.5 -294.5t-188 -42q-41 0 -86 12t-101.5 56t-88.5 140.5t-32 194.5z M326 360q0 -43 18 -77q18 -29 78 -29q109 12 240 190q63 86 109 156t70.5 119t44 97t36.5 95q31 86 30 150q0 37 -18.5 67.5t-67.5 30.5q-102 0 -243 -172q-133 -166 -211 -332q-18 -37 -36 -83t-24 -66q-26 -91 -26 -146zM784 1569l17 28q2 4 14 20.5t27 35.5q29 41 93 89 t120 48l110 -27q29 -6 79 -16t67 -10q41 0 75.5 11t63.5 32q12 0 17.5 -4t2.5 -17l-32 -53q-59 -88 -106.5 -121t-123.5 -49q-35 -6 -129 27q-35 12 -66.5 22t-41.5 12l-51 -2q-20 0 -39 -10l-41 -20l-33 -19q-10 -6 -16.5 0.5t-6.5 22.5z" />
<glyph unicode="&#xd6;" horiz-adv-x="995" d="M61 391q0 205 184.5 499t315.5 380t199 123q55 29 94 39l39 6q35 0 76 -29q41 -23 53 -51l22 -74q12 -49 27 -70l37 -45q16 -23 30.5 -79t14.5 -109q0 -115 -35 -211q-55 -193 -241.5 -445.5t-319.5 -294.5t-188 -42q-41 0 -86 12t-101.5 56t-88.5 140.5t-32 194.5z M326 360q0 -43 18 -77q18 -29 78 -29q109 12 240 190q63 86 109 156t70.5 119t44 97t36.5 95q31 86 30 150q0 37 -18.5 67.5t-67.5 30.5q-102 0 -243 -172q-133 -166 -211 -332q-18 -37 -36 -83t-24 -66q-26 -91 -26 -146zM684 1667q0 37 37 68l72 59q29 16 61 21l45 -9 q37 -6 50.5 -20t25.5 -47l10 -45q0 -41 -33 -72l-71 -57q-39 -29 -88 -29q-39 0 -62 20q-20 23 -37 66zM1073 1663q0 39 35 72l66 55q31 25 63 25l45 -9q37 -6 51.5 -21.5t25.5 -41t11 -49.5q0 -39 -33 -70l-69 -61q-33 -27 -88 -27q-41 0 -64 20q-20 23 -37 66z" />
<glyph unicode="&#xd8;" horiz-adv-x="995" d="M-74 20q-10 23 17 54l47 57l78 82l12 12l-14 84l-5 82q0 211 183.5 501t315.5 377t195.5 120.5t90.5 40.5l47 8q35 0 74 -26t55 -58l22 -70q10 -43 17 -53l18 -25l37 35q70 61 119 92t80 25q33 -12 33 -41q0 -25 -23 -39l-45 -29l-59 -45l-91 -80q23 -57 23 -141 q0 -115 -35 -213q-55 -193 -241.5 -445.5t-319.5 -294.5t-188 -42q-41 0 -85 12t-78 35.5t-52 48.5l-37 51l-72 -74l-43 -49q-23 -25 -39 -24q-23 -1 -37 32zM324 350q0 -31 19 -63.5t79 -32.5q109 12 241 191.5t201 320.5l33 82l33 94q-186 -170 -297 -280l-195 -193z M356 518l164 168l244 238l184 168q0 12 -10 29.5t-31 29.5l-41 8q-102 0 -239.5 -170t-184.5 -268l-61 -137z" />
<glyph unicode="&#xd9;" d="M123 295q0 66 18 151q10 47 23.5 89.5t36.5 103.5q41 113 94 238l106 231l70 135l23 60l6 32q2 27 12 39l25 23l49 26q31 10 59 15q55 0 105.5 -62.5t50.5 -87.5q0 -20 -21 -43l-61 -104q-29 -47 -62.5 -111.5t-70.5 -140.5l-109 -244l-53 -141l-23 -76q-6 -25 -8 -37 t-2 -39q0 -55 19 -61l36 -4q61 0 126 73.5t147 235.5l319 629l101 184q29 41 86 41q37 0 61 -23l68 -71q25 -25 28 -43q0 -16 -28 -62l-60 -104q-72 -131 -149 -295l-129 -287q-20 -47 -44 -109.5t-34 -95.5q-18 -66 -18 -135q0 -72 24 -176q4 -31 -10 -37l-37 -12l-51 -6 l-23 2l-45 8q-31 6 -51 32.5t-31 74.5l4 65l9 49q6 18 -4 29q-6 10 -19 -2l-174 -199q-51 -51 -168 -51q-35 0 -50 2t-44 16.5t-80 83.5q-47 70 -47 191zM770 1784q0 14 10 26l64 54l71 47q16 6 29 0q10 -6 27 -35l71 -125l58 -72q45 -51 49 -65t-8 -31l-33 -31 q-20 -16 -59 -16t-127 72.5t-134 126.5q-18 24 -18 49z" />
<glyph unicode="&#xda;" d="M123 295q0 66 18 151q10 47 23.5 89.5t36.5 103.5q41 113 94 238l106 231l70 135l23 60l6 32q2 27 12 39l25 23l49 26q31 10 59 15q55 0 105.5 -62.5t50.5 -87.5q0 -20 -21 -43l-61 -104q-29 -47 -62.5 -111.5t-70.5 -140.5l-109 -244l-53 -141l-23 -76q-6 -25 -8 -37 t-2 -39q0 -55 19 -61l36 -4q61 0 126 73.5t147 235.5l319 629l101 184q29 41 86 41q37 0 61 -23l68 -71q25 -25 28 -43q0 -16 -28 -62l-60 -104q-72 -131 -149 -295l-129 -287q-20 -47 -44 -109.5t-34 -95.5q-18 -66 -18 -135q0 -72 24 -176q4 -31 -10 -37l-37 -12l-51 -6 l-23 2l-45 8q-31 6 -51 32.5t-31 74.5l4 65l9 49q6 18 -4 29q-6 10 -19 -2l-174 -199q-51 -51 -168 -51q-35 0 -50 2t-44 16.5t-80 83.5q-47 70 -47 191zM909 1628q6 47 84 144q41 49 67.5 78.5t41.5 39.5q29 23 53 23q18 0 31 -12l55 -68l43 -64q6 -18 0 -30l-33 -27 l-127 -72l-69 -57q-47 -41 -66 -47q-14 -4 -27.5 3t-33 32.5t-19.5 56.5z" />
<glyph unicode="&#xdb;" d="M123 295q0 66 18 151q10 47 23.5 89.5t36.5 103.5q41 113 94 238l106 231l70 135l23 60l6 32q2 27 12 39l25 23l49 26q31 10 59 15q55 0 105.5 -62.5t50.5 -87.5q0 -20 -21 -43l-61 -104q-29 -47 -62.5 -111.5t-70.5 -140.5l-109 -244l-53 -141l-23 -76q-6 -25 -8 -37 t-2 -39q0 -55 19 -61l36 -4q61 0 126 73.5t147 235.5l319 629l101 184q29 41 86 41q37 0 61 -23l68 -71q25 -25 28 -43q0 -16 -28 -62l-60 -104q-72 -131 -149 -295l-129 -287q-20 -47 -44 -109.5t-34 -95.5q-18 -66 -18 -135q0 -72 24 -176q4 -31 -10 -37l-37 -12l-51 -6 l-23 2l-45 8q-31 6 -51 32.5t-31 74.5l4 65l9 49q6 18 -4 29q-6 10 -19 -2l-174 -199q-51 -51 -168 -51q-35 0 -50 2t-44 16.5t-80 83.5q-47 70 -47 191zM750 1614q0 55 79.5 119.5t176 118t143.5 40.5q31 -10 68 -82l47 -92l45 -82q16 -25 10 -51q-8 -25 -29.5 -38 t-50.5 -13l-33 6q-14 6 -61 58.5t-64 58.5l-22 4q-45 0 -131 -58.5t-103 -64.5q-12 -4 -26 2q-49 35 -49 74z" />
<glyph unicode="&#xdc;" d="M123 295q0 66 18 151q10 47 23.5 89.5t36.5 103.5q41 113 94 238l106 231l70 135l23 60l6 32q2 27 12 39l25 23l49 26q31 10 59 15q55 0 105.5 -62.5t50.5 -87.5q0 -20 -21 -43l-61 -104q-29 -47 -62.5 -111.5t-70.5 -140.5l-109 -244l-53 -141l-23 -76q-6 -25 -8 -37 t-2 -39q0 -55 19 -61l36 -4q61 0 126 73.5t147 235.5l319 629l101 184q29 41 86 41q37 0 61 -23l68 -71q25 -25 28 -43q0 -16 -28 -62l-60 -104q-72 -131 -149 -295l-129 -287q-20 -47 -44 -109.5t-34 -95.5q-18 -66 -18 -135q0 -72 24 -176q4 -31 -10 -37l-37 -12l-51 -6 l-23 2l-45 8q-31 6 -51 32.5t-31 74.5l4 65l9 49q6 18 -4 29q-6 10 -19 -2l-174 -199q-51 -51 -168 -51q-35 0 -50 2t-44 16.5t-80 83.5q-47 70 -47 191zM700 1663q0 20 8.5 36.5t36.5 43.5l62 51q29 16 61 21l39 -9q29 -6 48.5 -17t31.5 -44l10 -51q0 -39 -32 -70l-70 -59 q-39 -29 -88 -29q-39 0 -60.5 20.5t-39.5 65.5zM1083 1665q0 39 35 68l68 57q31 25 63 25l41 -9q33 -6 51.5 -17t30.5 -41t12 -54q0 -39 -32 -70l-72 -61q-33 -27 -86 -27q-41 0 -64 20q-20 23 -36 66z" />
<glyph unicode="&#xdd;" horiz-adv-x="1013" d="M1224 1651q0 51 77 143t114 119t57 27q14 0 27 -11l53 -65q39 -51 47 -70q6 -31 -33 -51l-63 -35l-57 -37l-82 -63q-43 -39 -62 -45q-14 -4 -30 8l-31 29q-13 16 -17 51zM227 129q0 63 54 156l100 168l43 73q12 23 12 35t-22 21q-66 12 -86.5 40.5t-20.5 102.5v32 q0 13 8 54l25 117l33 127l26 96l15 55l2 47l-2 68v26q0 11 8 35q0 18 41 33l47 12l25 3h16q25 0 51 -11q27 -6 49.5 -29.5t46.5 -84.5l17 -43q0 -18 -13 -50l-26 -69l-35 -103l-33 -110l-20 -80q-6 -35 16 -35q16 0 49 41l111 141l156 197q76 94 154.5 168t156.5 74l31 -2 q12 0 22 -11l51 -37l56 -40q12 -6 18 -25q4 -25 -45 -74l-186 -180q-63 -61 -125 -130t-109 -132l-180 -248l-141 -201l-78 -125q-18 -37 -31 -100q0 -55 -6 -80q0 -25 -37 -43t-80 -18q-27 0 -43 8l-29 18l-26 23l-37 29q-20 16 -27 30z" />
<glyph unicode="&#xdf;" horiz-adv-x="903" d="M55 154q0 63 15 112l41 119l55 156l72 184l-62 18q-31 12 -43 50l-8 59l6 43l27 55q12 23 37 27l114 -27q23 6 31 19l27 47l18 37q92 205 169 275.5t150.5 91t114.5 20.5q29 0 43.5 -2t43 -10.5t47 -18.5t46.5 -31q45 -33 71 -89t26 -115q0 -37 -3 -51.5t-14 -43.5 q-12 -47 -41 -84q-20 -29 -98 -114l-86 -99q-12 -18 -12 -57q0 -29 10 -66l22 -75l11 -35l20 -98l8 -95q0 -78 -24.5 -147.5t-98 -149t-188.5 -79.5q-29 0 -43 2t-65.5 16t-98.5 76q-43 61 -55 153l-21 -71l-6 -45l-6 -58q0 -20 -16 -35q-25 -31 -84 -30l-39 6q-18 6 -47 29 q-8 6 -18.5 16t-24.5 31l-19 43zM377 348l41 49q10 10 28 4q10 -6 13 -36q0 -33 4 -39q6 -23 18.5 -37.5t29.5 -18.5t30 -4q33 0 53 23q29 29 41 66.5t12 76.5l-6 66l-12 77l-4 21q-4 20 -6.5 39.5t-10.5 46.5l-6 68q0 55 53 122l90 115q37 45 49.5 76t16.5 65v13l-12 24 q-6 14 -39 15q-53 0 -121 -144l-115 -260q-25 -61 -59 -153q-12 -33 -37 -105z" />
<glyph unicode="&#xe0;" horiz-adv-x="1060" d="M63 256q0 131 68 285.5t154 251t170 156t151 59.5l51 -7q33 -6 76 -78.5t64 -86.5l45 -19l41 -18q20 -10 30.5 -33t14.5 -53q0 -37 -13.5 -74t-44.5 -92l-26 -55l-45 -99l-15 -67q0 -12 8.5 -25.5t34.5 -15.5q39 0 80 53l84 117l51 73q8 12 21 15q16 6 27 -17l22 -39 q6 -12 10 -36q0 -20 -28.5 -92t-125 -202t-163 -149.5t-94.5 -19.5q-61 0 -107 39l-24 28l-19 47q-6 31 -24 35q-12 -8 -21 -12q-18 -12 -55 -41l-105 -74q-37 -18 -84 -18q-25 0 -88 16q-68 14 -94.5 102.5t-26.5 145.5zM322 305l6 -31q6 -16 32 -22q29 -6 89.5 47 t142.5 205q70 137 70 215q-6 41 -25 49q-18 10 -51 -9.5t-69 -57t-73 -91.5q-39 -61 -80.5 -158.5t-41.5 -146.5zM483 1346q0 14 9.5 26t64.5 51l70 45q31 8 57 -32l72 -125l57 -72q45 -51 49 -65q6 -25 -37 -58l-24 -14q-12 -6 -41 -6q-37 0 -132.5 79.5t-125.5 116.5 q-19 29 -19 54z" />
<glyph unicode="&#xe1;" horiz-adv-x="1060" d="M63 256q0 131 68 285.5t154 251t170 156t151 59.5l51 -7q33 -6 76 -78.5t64 -86.5l45 -19l41 -18q20 -10 30.5 -33t14.5 -53q0 -37 -13.5 -74t-44.5 -92l-26 -55l-45 -99l-15 -67q0 -12 8.5 -25.5t34.5 -15.5q39 0 80 53l84 117l51 73q8 12 21 15q16 6 27 -17l22 -39 q6 -12 10 -36q0 -20 -28.5 -92t-125 -202t-163 -149.5t-94.5 -19.5q-61 0 -107 39l-24 28l-19 47q-6 31 -24 35q-12 -8 -21 -12q-18 -12 -55 -41l-105 -74q-37 -18 -84 -18q-25 0 -88 16q-68 14 -94.5 102.5t-26.5 145.5zM322 305l6 -31q6 -16 32 -22q29 -6 89.5 47 t142.5 205q70 137 70 215q-6 41 -25 49q-18 10 -51 -9.5t-69 -57t-73 -91.5q-39 -61 -80.5 -158.5t-41.5 -146.5zM608 1184q0 51 76 141t109.5 117.5t62.5 27.5q16 0 27.5 -7t52.5 -66q39 -51 47 -70q12 -31 -35 -55l-125 -70l-69 -57q-51 -45 -66 -49q-14 -4 -26.5 3 t-33 30.5t-20.5 54.5z" />
<glyph unicode="&#xe2;" horiz-adv-x="1060" d="M63 256q0 131 68 285.5t154 251t170 156t151 59.5l51 -7q33 -6 76 -78.5t64 -86.5l45 -19l41 -18q20 -10 30.5 -33t14.5 -53q0 -37 -13.5 -74t-44.5 -92l-26 -55l-45 -99l-15 -67q0 -12 8.5 -25.5t34.5 -15.5q39 0 80 53l84 117l51 73q8 12 21 15q16 6 27 -17l22 -39 q6 -12 10 -36q0 -20 -28.5 -92t-125 -202t-163 -149.5t-94.5 -19.5q-61 0 -107 39l-24 28l-19 47q-6 31 -24 35q-12 -8 -21 -12q-18 -12 -55 -41l-105 -74q-37 -18 -84 -18q-25 0 -88 16q-68 14 -94.5 102.5t-26.5 145.5zM322 305l6 -31q6 -16 32 -22q29 -6 89.5 47 t142.5 205q70 137 70 215q-6 41 -25 49q-18 10 -51 -9.5t-69 -57t-73 -91.5q-39 -61 -80.5 -158.5t-41.5 -146.5zM428 1174q0 55 73.5 114.5t166 112.5t143.5 53l31 -6q16 -6 51 -68l51 -102l45 -80q14 -29 8 -53q-18 -53 -73 -53q-20 0 -36 7t-67 60q-45 51 -61 58l-23 4 q-41 0 -194 -105q-41 -23 -64 -16q-51 29 -51 74z" />
<glyph unicode="&#xe3;" horiz-adv-x="1060" d="M63 256q0 131 68 285.5t154 251t170 156t151 59.5l51 -7q33 -6 76 -78.5t64 -86.5l45 -19l41 -18q20 -10 30.5 -33t14.5 -53q0 -37 -13.5 -74t-44.5 -92l-26 -55l-45 -99l-15 -67q0 -12 8.5 -25.5t34.5 -15.5q39 0 80 53l84 117l51 73q8 12 21 15q16 6 27 -17l22 -39 q6 -12 10 -36q0 -20 -28.5 -92t-125 -202t-163 -149.5t-94.5 -19.5q-61 0 -107 39l-24 28l-19 47q-6 31 -24 35q-12 -8 -21 -12q-18 -12 -55 -41l-105 -74q-37 -18 -84 -18q-25 0 -88 16q-68 14 -94.5 102.5t-26.5 145.5zM322 305l6 -31q6 -16 32 -22q29 -6 89.5 47 t142.5 205q70 137 70 215q-6 41 -25 49q-18 10 -51 -9.5t-69 -57t-73 -91.5q-39 -61 -80.5 -158.5t-41.5 -146.5zM444 1126l21 39l41 52q31 41 91 88t118 47l110 -29q111 -27 148 -27q47 0 75.5 10.5t61.5 32.5q12 0 17.5 -4t2.5 -16l-32 -55q-55 -84 -109 -121 q-45 -31 -121 -47q-35 -6 -129 26q-35 12 -66.5 22.5t-41.5 12.5l-53 -2q-14 0 -46 -16l-65 -33q-10 -6 -16.5 0t-6.5 20z" />
<glyph unicode="&#xe4;" horiz-adv-x="1060" d="M63 256q0 131 68 285.5t154 251t170 156t151 59.5l51 -7q33 -6 76 -78.5t64 -86.5l45 -19l41 -18q20 -10 30.5 -33t14.5 -53q0 -37 -13.5 -74t-44.5 -92l-26 -55l-45 -99l-15 -67q0 -12 8.5 -25.5t34.5 -15.5q39 0 80 53l84 117l51 73q8 12 21 15q16 6 27 -17l22 -39 q6 -12 10 -36q0 -20 -28.5 -92t-125 -202t-163 -149.5t-94.5 -19.5q-61 0 -107 39l-24 28l-19 47q-6 31 -24 35q-12 -8 -21 -12q-18 -12 -55 -41l-105 -74q-37 -18 -84 -18q-25 0 -88 16q-68 14 -94.5 102.5t-26.5 145.5zM322 305l6 -31q6 -16 32 -22q29 -6 89.5 47 t142.5 205q70 137 70 215q-6 41 -25 49q-18 10 -51 -9.5t-69 -57t-73 -91.5q-39 -61 -80.5 -158.5t-41.5 -146.5zM420 1223q0 43 39 75l67 54q25 18 62 22l37 -6q31 -6 51 -19.5t33 -48.5l10 -49q0 -37 -25 -59l-71 -64q-39 -33 -97 -32q-39 0 -63 22q-23 25 -37 64z M803 1225q0 37 41 71q16 14 36.5 33t37 30t51.5 15l39 -6q29 -2 53 -18q16 -10 35 -58l8 -41q0 -37 -25 -59l-78 -70q-33 -27 -88 -26q-39 0 -63 22q-23 25 -37 64z" />
<glyph unicode="&#xe5;" horiz-adv-x="1060" d="M63 256q0 131 68 285.5t154 251t170 156t151 59.5l51 -7q33 -6 76 -78.5t64 -86.5l45 -19l41 -18q20 -10 30.5 -33t14.5 -53q0 -37 -13.5 -74t-44.5 -92l-26 -55l-45 -99l-15 -67q0 -12 8.5 -25.5t34.5 -15.5q39 0 80 53l84 117l51 73q8 12 21 15q16 6 27 -17l22 -39 q6 -12 10 -36q0 -20 -28.5 -92t-125 -202t-163 -149.5t-94.5 -19.5q-61 0 -107 39l-24 28l-19 47q-6 31 -24 35q-12 -8 -21 -12q-18 -12 -55 -41l-105 -74q-37 -18 -84 -18q-25 0 -88 16q-68 14 -94.5 102.5t-26.5 145.5zM322 305l6 -31q6 -16 32 -22q29 -6 89.5 47 t142.5 205q70 137 70 215q-6 41 -25 49q-18 10 -51 -9.5t-69 -57t-73 -91.5q-39 -61 -80.5 -158.5t-41.5 -146.5zM594 1249q0 31 6 59.5t23 61.5q31 61 78 96t87 50l41 6q41 0 59.5 -15.5t24.5 -50.5l11 -43l14 -47q12 -35 12 -55l-8 -45q-6 -31 -38 -81t-79 -70.5 t-80 -20.5q-39 0 -74.5 19.5t-56.5 57.5q-8 16 -14 37t-6 41zM721 1262q0 -25 22 -37q14 -6 29 0q14 6 33 28q49 51 43 97q-6 27 -31 32q-29 4 -49 -22l-31 -45l-12 -33z" />
<glyph unicode="&#xe6;" horiz-adv-x="1320" d="M63 242q0 160 86.5 258t152 132t126.5 34l61 -9q47 -6 134 -88l43 70q23 41 22 68q0 14 -16 38q-12 27 -82 39q-29 4 -53 -4l-39 -14l-23 -14l-29 -23l-24 -18q-12 0 -53 28q-39 33 -39 95q0 41 24.5 69.5t89 65.5t185.5 37q84 0 135 -27l53 -41l39 -35q10 -6 23 4l43 29 l53 33q49 27 110 26q47 0 99.5 -19.5t90.5 -72.5t38 -129q0 -61 -31 -143t-103.5 -150.5t-140.5 -85.5l-94 -20l-57 -4l-37 2l-12 -29l-7 -35q0 -47 25 -71q27 -20 66 -21q98 0 182 82q39 41 81 87t97 112l21 28q10 10 24 15q23 0 47 -54q4 -10 6 -31.5t2 -37.5 q-12 -98 -136 -222t-216 -167q-86 -37 -182 -37q-45 0 -84 7t-66.5 27.5t-52.5 47.5l-41 51q-12 25 -31 12q-86 -78 -151 -114q-33 -16 -61.5 -24.5t-65.5 -8.5h-41l-51 12q-29 6 -68 46t-57 91q-6 27 -10.5 52.5t-4.5 50.5zM324 293q0 -14 4 -23.5t20 -15.5l23 -4 q33 0 60.5 26.5t70.5 81.5q31 43 18 72q-6 16 -16 24.5t-37 10.5q-23 0 -55.5 -22.5t-54 -54.5t-31.5 -73q-2 -6 -2 -13v-9zM905 535q37 0 65.5 9t59.5 29q49 31 88 107q18 31 19 53q0 14 -9.5 24.5t-37.5 10.5q-39 -6 -99.5 -89t-85.5 -144z" />
<glyph unicode="&#xe7;" horiz-adv-x="733" d="M66 276q0 145 92 345t218 291.5t222 91.5q35 0 74 -18.5t64.5 -62.5t31.5 -102q0 -68 -3 -94.5t-13 -75.5q-12 -78 -52 -108q-35 -23 -69 -27l-45 10q-35 12 -35 70q0 25 10 58.5t21 52.5l10 30q0 14 -14 17q-14 0 -21 -4q-98 -80 -163.5 -212t-65.5 -221v-20 q4 -27 16 -45.5t37 -24.5l35 -4q61 0 123 56l90 83q29 31 39 31q25 0 28 -24q-12 -125 -63 -204t-105.5 -115t-83.5 -46l-47 -14l-37 -47q-12 -20 -4 -31q4 -6 25 -10l35 -2q27 0 37 -31l10 -39q0 -43 -31 -91t-88 -79t-115 -31q-37 0 -61.5 7.5t-48.5 31.5q-18 23 -19 47 l4 29q4 18 25 31l27 10q23 6 34 0v-16q0 -16 9 -27q8 -6 43 -10q25 0 39 8l28 20q12 8 17 27q0 18 -11 27l-26 8h-21l-22 -2l-19 6l-24 14q-12 8 -15 29q0 16 29 57l64 70l-25 8l-59 29q-47 25 -89 96t-42 147z" />
<glyph unicode="&#xe8;" horiz-adv-x="833" d="M63 250v37q0 137 76 320.5t200 286.5t236 103q27 0 68 -11t79 -45t56 -93q12 -31 13 -68q0 -66 -26 -133t-85 -137q-55 -70 -138 -102.5t-194 -32.5q-12 0 -18 -19l-4 -47q0 -37 24 -67q23 -23 76 -23q63 0 133 51.5t141 149.5l84 115q8 12 25 16q18 0 33 -16l20 -29 q10 -29 10 -64q0 -74 -115.5 -210t-213 -190t-195.5 -54q-78 0 -140.5 34.5t-105.5 98.5q-39 66 -39 129zM395 543l43 -8q53 0 101.5 54t70.5 154q10 31 -24 31q-14 0 -31 -10l-41 -35l-53 -57q-14 -16 -27 -33q-2 -4 -26 -41zM444 1341q0 20 11 31l65 53q53 37 70 43 q29 12 55 -32l72 -125l57 -72q41 -47 47 -65q2 -10 -6 -29l-27 -29l-30 -18l-29 -2q-45 6 -143 84q-49 41 -79 67.5t-40 40.5q-23 28 -23 53z" />
<glyph unicode="&#xe9;" horiz-adv-x="833" d="M63 250v37q0 137 76 320.5t200 286.5t236 103q27 0 68 -11t79 -45t56 -93q12 -31 13 -68q0 -66 -26 -133t-85 -137q-55 -70 -138 -102.5t-194 -32.5q-12 0 -18 -19l-4 -47q0 -37 24 -67q23 -23 76 -23q63 0 133 51.5t141 149.5l84 115q8 12 25 16q18 0 33 -16l20 -29 q10 -29 10 -64q0 -74 -115.5 -210t-213 -190t-195.5 -54q-78 0 -140.5 34.5t-105.5 98.5q-39 66 -39 129zM395 543l43 -8q53 0 101.5 54t70.5 154q10 31 -24 31q-14 0 -31 -10l-41 -35l-53 -57q-14 -16 -27 -33q-2 -4 -26 -41zM512 1190q6 45 87 143.5t109.5 117.5t51.5 19 q14 0 26 -10q10 -4 54 -63q41 -49 47 -70q12 -31 -21 -49l-63 -33l-62 -37l-82 -63q-53 -43 -69 -49t-31 4l-27 28l-18 31z" />
<glyph unicode="&#xea;" horiz-adv-x="833" d="M63 250v37q0 137 76 320.5t200 286.5t236 103q27 0 68 -11t79 -45t56 -93q12 -31 13 -68q0 -66 -26 -133t-85 -137q-55 -70 -138 -102.5t-194 -32.5q-12 0 -18 -19l-4 -47q0 -37 24 -67q23 -23 76 -23q63 0 133 51.5t141 149.5l84 115q8 12 25 16q18 0 33 -16l20 -29 q10 -29 10 -64q0 -74 -115.5 -210t-213 -190t-195.5 -54q-78 0 -140.5 34.5t-105.5 98.5q-39 66 -39 129zM391 1174q0 55 76 116q35 31 80 60.5t96 56.5q96 53 145 45q29 -6 60 -66l59 -108l41 -80q16 -29 10 -53q-18 -53 -73 -53l-37 6q-10 6 -64 61q-45 51 -61 58l-23 4 q-14 0 -28.5 -4.5t-40.5 -18.5l-127 -82q-41 -23 -64 -16q-49 31 -49 74zM395 543l43 -8q53 0 101.5 54t70.5 154q10 31 -24 31q-14 0 -31 -10l-41 -35l-53 -57q-14 -16 -27 -33q-2 -4 -26 -41z" />
<glyph unicode="&#xeb;" horiz-adv-x="833" d="M63 250v37q0 137 76 320.5t200 286.5t236 103q27 0 68 -11t79 -45t56 -93q12 -31 13 -68q0 -66 -26 -133t-85 -137q-55 -70 -138 -102.5t-194 -32.5q-12 0 -18 -19l-4 -47q0 -37 24 -67q23 -23 76 -23q63 0 133 51.5t141 149.5l84 115q8 12 25 16q18 0 33 -16l20 -29 q10 -29 10 -64q0 -74 -115.5 -210t-213 -190t-195.5 -54q-78 0 -140.5 34.5t-105.5 98.5q-39 66 -39 129zM379 1225q0 35 43 75l67 56q23 18 60 18l35 -6q31 -4 49 -14q20 -6 33.5 -45t13.5 -58q0 -39 -27 -59l-69 -64q-39 -33 -97 -32q-39 0 -61.5 22.5t-36.5 63.5z M395 543l43 -8q53 0 101.5 54t70.5 154q10 31 -24 31q-14 0 -31 -10l-41 -35l-53 -57q-14 -16 -27 -33q-2 -4 -26 -41zM764 1225q0 37 35 69l67 56q31 25 64 24l39 -6q29 -2 50 -16.5t34.5 -45t13.5 -55.5q0 -39 -27 -59l-77 -72q-39 -31 -89 -24q-39 0 -63 22 q-23 25 -37 64z" />
<glyph unicode="&#xec;" horiz-adv-x="595" d="M63 223q0 78 25 173.5t51 158.5l54 127l49 113l32 69l13 39q0 18 7 31.5t25 23.5l39 13l37 6q23 0 43 -10q25 -6 50.5 -38t37.5 -65q10 -33 -22 -90l-82 -149q-47 -84 -100 -258l-7 -45q0 -37 17 -46l26 -2q16 0 43 29l60 70l51 63l45 64q14 25 23 26q14 0 20 -2l21 -26 l14 -33q4 -16 4 -25q0 -53 -51 -135q-61 -102 -110.5 -159.5t-119.5 -108.5q-72 -45 -131 -45q-78 0 -114 55q-12 23 -23.5 48.5t-17.5 49.5zM231 1346q0 14 9 24l65 53l70 45q31 10 55 -32l72 -125l57 -72q45 -51 49 -65q0 -12 -9 -29t-21 -27l-29 -16q-12 -6 -41 -6 q-39 0 -135.5 80.5t-119 112.5t-22.5 57z" />
<glyph unicode="&#xed;" horiz-adv-x="595" d="M63 223q0 78 25 173.5t51 158.5l54 127l49 113l32 69l13 39q0 18 7 31.5t25 23.5l39 13l37 6q23 0 43 -10q25 -6 50.5 -38t37.5 -65q10 -33 -22 -90l-82 -149q-47 -84 -100 -258l-7 -45q0 -37 17 -46l26 -2q16 0 43 29l60 70l51 63l45 64q14 25 23 26q14 0 20 -2l21 -26 l14 -33q4 -16 4 -25q0 -53 -51 -135q-61 -102 -110.5 -159.5t-119.5 -108.5q-72 -45 -131 -45q-78 0 -114 55q-12 23 -23.5 48.5t-17.5 49.5zM414 1184q0 51 78.5 144t117.5 126q20 12 49 16q20 0 31 -10q10 -6 51 -61l45 -72q6 -14 0 -29q-6 -10 -30 -26l-127 -70l-70 -57 q-49 -43 -67 -49q-10 -2 -25.5 6t-32 27.5t-20.5 54.5z" />
<glyph unicode="&#xee;" horiz-adv-x="595" d="M63 223q0 78 25 173.5t51 158.5l54 127l49 113l32 69l13 39q0 18 7 31.5t25 23.5l39 13l37 6q23 0 43 -10q25 -6 50.5 -38t37.5 -65q10 -33 -22 -90l-82 -149q-47 -84 -100 -258l-7 -45q0 -37 17 -46l26 -2q16 0 43 29l60 70l51 63l45 64q14 25 23 26q14 0 20 -2l21 -26 l14 -33q4 -16 4 -25q0 -53 -51 -135q-61 -102 -110.5 -159.5t-119.5 -108.5q-72 -45 -131 -45q-78 0 -114 55q-12 23 -23.5 48.5t-17.5 49.5zM176 1174q0 23 24.5 57.5t77 78.5t151.5 98t146 44q29 -6 60 -66l57 -108l45 -80q14 -29 8 -53q-18 -53 -75 -53l-37 6 q-10 6 -64 61q-45 51 -61 58l-23 4q-14 0 -28.5 -4.5t-40.5 -18.5l-127 -82l-35 -18q-12 -6 -27 2q-51 29 -51 74z" />
<glyph unicode="&#xef;" horiz-adv-x="595" d="M63 223q0 78 25 173.5t51 158.5l54 127l49 113l32 69l13 39q0 18 7 31.5t25 23.5l39 13l37 6q23 0 43 -10q25 -6 50.5 -38t37.5 -65q10 -33 -22 -90l-82 -149q-47 -84 -100 -258l-7 -45q0 -37 17 -46l26 -2q16 0 43 29l60 70l51 63l45 64q14 25 23 26q14 0 20 -2l21 -26 l14 -33q4 -16 4 -25q0 -53 -51 -135q-61 -102 -110.5 -159.5t-119.5 -108.5q-72 -45 -131 -45q-78 0 -114 55q-12 23 -23.5 48.5t-17.5 49.5zM186 1223q0 41 43 77l66 56q23 18 59 18l35 -6q31 -4 49 -14q18 -6 31.5 -43t13.5 -60q0 -37 -24 -59l-84 -76q-27 -20 -82 -20 q-39 0 -60.5 21.5t-39.5 64.5zM573 1223q0 37 43 80q20 18 39 34.5t27 20.5q18 12 53 16l39 -6q29 -2 50.5 -16.5t33.5 -45t12 -53.5q0 -43 -24 -61l-78 -70q-33 -27 -88 -26q-41 0 -63.5 22.5t-36.5 63.5z" />
<glyph unicode="&#xf1;" horiz-adv-x="1071" d="M41 145q0 29 18 97l27 118q6 25 9 34t20 48l182 459l10 53q6 18 43 30.5t64 12.5q45 0 75 -24l72 -47q12 -10 12 -29l-6 -27l-24 -39q-6 -16 2 -26q8 -6 22 2q80 86 135 135q27 23 55.5 35t57.5 12q16 0 42 -10t52.5 -37t46 -66.5t19.5 -70.5q0 -41 -25 -103l-47 -106 l-69 -152l-39 -92q-10 -29 -11 -39v-16q0 -18 15 -27q18 -6 35 0l32 27l37 43l33 45l84 115q20 23 39 20q53 -23 53 -78q0 -45 -45 -143t-149.5 -213t-210.5 -115q-8 -2 -23 -2q-37 0 -73 16.5t-75.5 77t-39.5 134.5q0 76 28 145l49 119l27 59l14 29q6 23 -5 35t-34 12 l-20 -6l-25 -12l-32 -37l-72 -109q-61 -100 -100 -194q-35 -94 -35 -158q0 -39 -13.5 -53.5t-50.5 -32.5l-41 -6q-27 0 -46 10t-48 39q-8 8 -21.5 26.5t-19.5 28.5q-6 18 -10 53zM416 1126l16 33l41 55q29 37 91.5 87.5t119.5 50.5q16 -4 38.5 -9.5t74.5 -19.5 q111 -27 147 -27q43 0 72 11l63 32q10 6 17.5 -2t3.5 -18l-15 -29l-43 -63q-33 -51 -82 -85t-122 -46q-35 -6 -129 26q-35 12 -67 22.5t-42 12.5q-39 0 -53 -4q-16 0 -45 -14l-66 -33q-10 -6 -17 1t-3 19z" />
<glyph unicode="&#xf2;" horiz-adv-x="772" d="M59 295q0 135 81 307t177.5 249t142.5 102.5t99 37.5l49 4q35 0 68 -10t63 -39q39 -51 39 -160q0 -29 21 -84q10 -23 16 -49t6 -51q0 -131 -87 -301t-193.5 -238.5t-204.5 -68.5q-31 0 -62.5 6t-66.5 23q-63 31 -103 88q-31 53 -41 106zM307 289q12 -37 43 -43 q14 -2 39 7t66 45t96 154.5t55 184.5q0 43 -19.5 56.5t-33.5 13.5q-12 0 -36.5 -13.5t-47.5 -42.5l-47 -61q-39 -53 -81 -157.5t-34 -143.5zM479 1346q0 14 9.5 26t64.5 51l70 45q31 8 57 -32l72 -125l57 -72q45 -51 49 -65q2 -10 -6 -29l-31 -29q-12 -12 -28 -18l-31 -2 q-37 0 -135.5 82t-128.5 114q-19 29 -19 54z" />
<glyph unicode="&#xf3;" horiz-adv-x="772" d="M59 295q0 135 81 307t177.5 249t142.5 102.5t99 37.5l49 4q35 0 68 -10t63 -39q39 -51 39 -160q0 -29 21 -84q10 -23 16 -49t6 -51q0 -131 -87 -301t-193.5 -238.5t-204.5 -68.5q-31 0 -62.5 6t-66.5 23q-63 31 -103 88q-31 53 -41 106zM307 289q12 -37 43 -43 q14 -2 39 7t66 45t96 154.5t55 184.5q0 43 -19.5 56.5t-33.5 13.5q-12 0 -36.5 -13.5t-47.5 -42.5l-47 -61q-39 -53 -81 -157.5t-34 -143.5zM604 1184q0 51 76 141t109.5 117.5t62.5 27.5q16 0 27.5 -7t52.5 -66q39 -51 47 -70q12 -31 -29 -53l-78 -39l-55 -37l-69 -55 q-45 -41 -64 -47q-14 -4 -26.5 3t-33 30.5t-20.5 54.5z" />
<glyph unicode="&#xf4;" horiz-adv-x="772" d="M59 295q0 135 81 307t177.5 249t142.5 102.5t99 37.5l49 4q35 0 68 -10t63 -39q39 -51 39 -160q0 -29 21 -84q10 -23 16 -49t6 -51q0 -131 -87 -301t-193.5 -238.5t-204.5 -68.5q-31 0 -62.5 6t-66.5 23q-63 31 -103 88q-31 53 -41 106zM307 289q12 -37 43 -43 q14 -2 39 7t66 45t96 154.5t55 184.5q0 43 -19.5 56.5t-33.5 13.5q-12 0 -36.5 -13.5t-47.5 -42.5l-47 -61q-39 -53 -81 -157.5t-34 -143.5zM424 1174q0 55 77 116.5t175 115.5t147 46q33 -8 66 -72l51 -102l45 -80q14 -29 8 -53q-18 -53 -73 -53q-20 0 -36 7t-67 60 q-45 51 -61 58l-23 4q-41 0 -194 -105q-41 -23 -64 -16q-51 29 -51 74z" />
<glyph unicode="&#xf5;" horiz-adv-x="772" d="M59 295q0 135 81 307t177.5 249t142.5 102.5t99 37.5l49 4q35 0 68 -10t63 -39q39 -51 39 -160q0 -29 21 -84q10 -23 16 -49t6 -51q0 -131 -87 -301t-193.5 -238.5t-204.5 -68.5q-31 0 -62.5 6t-66.5 23q-63 31 -103 88q-31 53 -41 106zM307 289q12 -37 43 -43 q14 -2 39 7t66 45t96 154.5t55 184.5q0 43 -19.5 56.5t-33.5 13.5q-12 0 -36.5 -13.5t-47.5 -42.5l-47 -61q-39 -53 -81 -157.5t-34 -143.5zM385 1126q16 35 51 80t97.5 95.5t119.5 50.5q16 -4 39 -9.5t72 -19.5q111 -27 147 -27q47 0 74 11l64 32q10 6 16 0t6 -20l-35 -55 q-59 -88 -107 -121t-122 -47q-39 -6 -122 27.5t-116 33.5q-39 0 -53 -4q-16 0 -45 -14l-65 -33q-6 -6 -13.5 0t-7.5 20z" />
<glyph unicode="&#xf6;" horiz-adv-x="772" d="M59 295q0 135 81 307t177.5 249t142.5 102.5t99 37.5l49 4q35 0 68 -10t63 -39q39 -51 39 -160q0 -29 21 -84q10 -23 16 -49t6 -51q0 -131 -87 -301t-193.5 -238.5t-204.5 -68.5q-31 0 -62.5 6t-66.5 23q-63 31 -103 88q-31 53 -41 106zM307 289q12 -37 43 -43 q14 -2 39 7t66 45t96 154.5t55 184.5q0 43 -19.5 56.5t-33.5 13.5q-12 0 -36.5 -13.5t-47.5 -42.5l-47 -61q-39 -53 -81 -157.5t-34 -143.5zM375 1225q0 37 43 73l67 56q27 20 60 20l35 -6q31 -4 49 -14q20 -6 33.5 -45t13.5 -58q0 -37 -25 -59l-69 -64q-39 -33 -97 -32 q-41 0 -63.5 22.5t-36.5 63.5zM764 1223q0 37 33 69l65 58q31 25 64 24l39 -6q29 -2 50 -16.5t34.5 -45t13.5 -55.5q0 -39 -27 -59l-78 -70q-33 -27 -88 -26q-39 0 -63 22q-23 25 -37 64z" />
<glyph unicode="&#xf7;" horiz-adv-x="632" d="M92 -20q0 23 14 57l87 149q31 53 67 111q29 47 72 109q53 82 69 106q31 45 82 117q78 109 197 254q109 129 172 176q10 6 18 6q6 0 20.5 -9t14.5 -30q0 -12 -8 -20q-182 -193 -311 -371q-68 -92 -109 -152q-49 -72 -82 -121l-123 -198l-90 -154q-33 -55 -57 -57 q-27 0 -33 27z" />
<glyph unicode="&#xf8;" horiz-adv-x="772" d="M-61 27q-8 31 20 57l109 111l-7 57l-2 43q0 133 80 302t202 271.5t218 122.5l49 4q35 0 68 -10t63 -39q37 -47 37 -135q117 98 146 104q20 6 33.5 -5t13.5 -27q0 -18 -15 -35l-36 -33l-123 -90q27 -74 26 -123q0 -131 -87 -301t-193.5 -238.5t-204.5 -68.5q-31 0 -62.5 6 t-66.5 23q-61 29 -103 92l-67 -64q-45 -43 -66 -47q-18 0 -32 23zM305 305l2 -16q0 -16 15.5 -29.5t33.5 -13.5q39 0 81 40t91 122q23 39 38.5 74.5t27.5 78.5l-119 -104l-84 -72zM354 465l84 74l160 135q0 18 -14.5 24.5t-34.5 6.5q-16 0 -36.5 -14.5t-43.5 -39.5l-43 -57 l-37 -55z" />
<glyph unicode="&#xf9;" d="M61 256q0 98 32 200.5t87 200.5l99 197l20 41l10 35q0 16 7.5 31.5t29.5 23.5l39 12l31 4q20 0 43.5 -7t48 -38.5t41.5 -66.5q4 -12 4 -21q0 -14 -14 -47l-70 -125q-49 -88 -92 -196.5t-43 -171.5q0 -14 10 -25.5t27 -11.5q23 0 64.5 24.5t99 107.5t98.5 155l74 141 l63 131l21 45l8 35q0 16 7 29.5t25 23.5l41 12l35 6q20 0 44 -7t49.5 -39.5t37.5 -65.5q10 -31 -30 -105l-60 -112l-96 -203l-29 -68q-12 -37 -12 -69q0 -35 23 -43q23 -6 43 6l30 31l49 69l105 137q4 6 18 11q6 -4 11 -6q14 -10 26 -23q27 -31 27 -88q0 -61 -100.5 -202.5 t-165 -178.5t-92 -44t-38 -9t-34.5 -2q-35 0 -78 18q-35 18 -66 72l-16 41q-10 31 -27 31q-4 -2 -6 -5q-18 -14 -43 -41q-39 -41 -94 -76.5t-131 -35.5q-94 0 -143 86q-23 41 -35.5 85t-12.5 91zM504 1341q0 18 8 29l66 53l69 45q31 12 55 -32l72 -125l57 -72q45 -51 50 -65 q4 -14 -11 -33l-32 -31q-18 -14 -60 -14q-39 0 -129 75.5t-117.5 109t-27.5 60.5z" />
<glyph unicode="&#xfa;" d="M61 256q0 98 32 200.5t87 200.5l99 197l20 41l10 35q0 16 7.5 31.5t29.5 23.5l39 12l31 4q20 0 43.5 -7t48 -38.5t41.5 -66.5q4 -12 4 -21q0 -14 -14 -47l-70 -125q-49 -88 -92 -196.5t-43 -171.5q0 -14 10 -25.5t27 -11.5q23 0 64.5 24.5t99 107.5t98.5 155l74 141 l63 131l21 45l8 35q0 16 7 29.5t25 23.5l41 12l35 6q20 0 44 -7t49.5 -39.5t37.5 -65.5q10 -31 -30 -105l-60 -112l-96 -203l-29 -68q-12 -37 -12 -69q0 -35 23 -43q23 -6 43 6l30 31l49 69l105 137q4 6 18 11q6 -4 11 -6q14 -10 26 -23q27 -31 27 -88q0 -61 -100.5 -202.5 t-165 -178.5t-92 -44t-38 -9t-34.5 -2q-35 0 -78 18q-35 18 -66 72l-16 41q-10 31 -27 31q-4 -2 -6 -5q-18 -14 -43 -41q-39 -41 -94 -76.5t-131 -35.5q-94 0 -143 86q-23 41 -35.5 85t-12.5 91zM569 1190q6 43 84 139t108 118.5t56 22.5q16 0 27.5 -7t52.5 -66 q39 -51 47 -70q4 -20 -2 -31q-2 -8 -31 -24l-127 -70l-65 -55q-47 -45 -70 -51q-14 -4 -26.5 3t-26.5 24.5t-21 35.5z" />
<glyph unicode="&#xfb;" d="M61 256q0 98 32 200.5t87 200.5l99 197l20 41l10 35q0 16 7.5 31.5t29.5 23.5l39 12l31 4q20 0 43.5 -7t48 -38.5t41.5 -66.5q4 -12 4 -21q0 -14 -14 -47l-70 -125q-49 -88 -92 -196.5t-43 -171.5q0 -14 10 -25.5t27 -11.5q23 0 64.5 24.5t99 107.5t98.5 155l74 141 l63 131l21 45l8 35q0 16 7 29.5t25 23.5l41 12l35 6q20 0 44 -7t49.5 -39.5t37.5 -65.5q10 -31 -30 -105l-60 -112l-96 -203l-29 -68q-12 -37 -12 -69q0 -35 23 -43q23 -6 43 6l30 31l49 69l105 137q4 6 18 11q6 -4 11 -6q14 -10 26 -23q27 -31 27 -88q0 -61 -100.5 -202.5 t-165 -178.5t-92 -44t-38 -9t-34.5 -2q-35 0 -78 18q-35 18 -66 72l-16 41q-10 31 -27 31q-4 -2 -6 -5q-18 -14 -43 -41q-39 -41 -94 -76.5t-131 -35.5q-94 0 -143 86q-23 41 -35.5 85t-12.5 91zM446 1174q0 23 25 59q25 31 77 75t152.5 99t147.5 45q31 -10 67 -82l48 -92 l45 -80q16 -29 10 -53q-18 -53 -76 -53q-20 0 -35.5 7t-62.5 59t-66 59l-22 4q-41 0 -193 -105q-39 -23 -65 -16q-20 14 -37 33q-13 21 -15 41z" />
<glyph unicode="&#xfc;" d="M61 256q0 98 32 200.5t87 200.5l99 197l20 41l10 35q0 16 7.5 31.5t29.5 23.5l39 12l31 4q20 0 43.5 -7t48 -38.5t41.5 -66.5q4 -12 4 -21q0 -14 -14 -47l-70 -125q-49 -88 -92 -196.5t-43 -171.5q0 -14 10 -25.5t27 -11.5q23 0 64.5 24.5t99 107.5t98.5 155l74 141 l63 131l21 45l8 35q0 16 7 29.5t25 23.5l41 12l35 6q20 0 44 -7t49.5 -39.5t37.5 -65.5q10 -31 -30 -105l-60 -112l-96 -203l-29 -68q-12 -37 -12 -69q0 -35 23 -43q23 -6 43 6l30 31l49 69l105 137q4 6 18 11q6 -4 11 -6q14 -10 26 -23q27 -31 27 -88q0 -61 -100.5 -202.5 t-165 -178.5t-92 -44t-38 -9t-34.5 -2q-35 0 -78 18q-35 18 -66 72l-16 41q-10 31 -27 31q-4 -2 -6 -5q-18 -14 -43 -41q-39 -41 -94 -76.5t-131 -35.5q-94 0 -143 86q-23 41 -35.5 85t-12.5 91zM455 1225q0 37 41 71l69 56q25 18 62 22l37 -6q31 -6 52 -19.5t29 -43.5 l11 -54q0 -39 -27 -65l-67 -58q-12 -10 -35 -21t-60 -11q-41 0 -62.5 21.5t-39.5 64.5zM842 1225q0 37 41 71q16 14 36.5 33t37 30t51.5 15l39 -6q29 -2 49 -16.5t33.5 -45t13.5 -55.5q0 -39 -27 -59l-76 -72q-39 -31 -90 -24q-39 0 -61.5 22.5t-36.5 63.5z" />
<glyph unicode="&#xfd;" horiz-adv-x="819" d="M352 1225q0 51 77 143t114 119t57 27q14 0 27 -11l53 -65q39 -51 47 -70q6 -31 -33 -51l-63 -35l-57 -37l-82 -63q-43 -39 -62 -45q-14 -4 -30 8l-31 29q-13 16 -17 51zM76 -334q0 53 30 133l74 158l41 90q-49 37 -72.5 99.5t-23.5 138.5v46q0 22 4 42l18 102l58 281 l14 57l10 64l-2 49l6 30q6 12 31 25l47 23l47 8q33 0 62 -23q31 -18 55.5 -66.5t20.5 -82.5l-21 -58l-22 -63l-23 -90l-33 -164q-6 -33 15 -35q16 0 30 21l80 133l88 141l82 127q10 16 17 55l6 47q0 10 26 29q12 8 29.5 12t48.5 4l41 -8q31 -6 51.5 -31.5t38.5 -66.5l17 -47 q0 -12 -35 -66l-76 -121l-104 -176l-115 -196l-102 -191l-93 -174l-59 -131q-25 -55 -25 -106l4 -66v-25q0 -16 -8 -27t-37 -30q-12 -10 -24 -14t-19 -8l-38 -7l-37 9q-20 6 -60.5 40.5t-52.5 63.5z" />
<glyph unicode="&#xff;" horiz-adv-x="819" d="M76 -334q0 53 30 133l74 158l41 90q-49 37 -72.5 99.5t-23.5 138.5v46q0 22 4 42l18 102l58 281l14 57l10 64l-2 49l6 30q6 12 31 25l47 23l47 8q33 0 62 -23q31 -18 55.5 -66.5t20.5 -82.5l-21 -58l-22 -63l-23 -90l-33 -164q-6 -33 15 -35q16 0 30 21l80 133l88 141 l82 127q10 16 17 55l6 47q0 10 26 29q12 8 29.5 12t48.5 4l41 -8q31 -6 51.5 -31.5t38.5 -66.5l17 -47q0 -12 -35 -66l-76 -121l-104 -176l-115 -196l-102 -191l-93 -174l-59 -131q-25 -55 -25 -106l4 -66v-25q0 -16 -8 -27t-37 -30q-12 -10 -24 -14t-19 -8l-38 -7l-37 9 q-20 6 -60.5 40.5t-52.5 63.5zM371 1245q0 35 37 70l73 59q29 16 62 21l41 -9q33 -6 51 -24q18 -14 27 -45l10 -45q0 -37 -33 -68l-70 -63q-41 -27 -88 -27q-37 0 -59.5 23.5t-40.5 64.5zM760 1243q0 37 31 68l63 55q33 29 70 29l39 -6q29 -6 51 -19.5t37 -56.5l8 -41 q0 -41 -27 -62l-78 -69q-33 -27 -88 -27q-35 0 -61.5 24.5t-38.5 63.5z" />
<glyph unicode="&#x2c6;" horiz-adv-x="548" d="M313 1157q0 23 24.5 57.5t78.5 79.5q27 20 64.5 46t86.5 53q94 51 146 41q25 -6 59 -66l55 -106l45 -82q16 -29 11 -54q-6 -23 -27.5 -37t-48.5 -14q-20 0 -35.5 7.5t-66.5 60.5q-45 51 -62 57l-20 4q-45 0 -135.5 -62.5t-108.5 -62.5l-17 4q-49 31 -49 74z" />
<glyph unicode="&#x2dc;" horiz-adv-x="362" d="M-234 155l13 27l36 53q31 43 98.5 93.5t119.5 50.5l114 -27q29 -6 79 -16.5t67 -10.5q41 0 63 9l37 14l37 20q10 6 17 -1t3 -19l-16 -27l-43 -65q-31 -45 -82 -83t-121 -50q-39 -6 -123 26q-80 37 -114 37q-39 0 -54 -4q-16 0 -45 -14l-65 -33q-10 -6 -17.5 1t-3.5 19z " />
<glyph unicode="&#x303;" horiz-adv-x="655" d="M397 1212l13 27l36 53q31 43 98.5 93.5t119.5 50.5l114 -27q29 -6 79 -16.5t67 -10.5q41 0 63 9l37 14l37 20q10 6 17 -1t3 -19l-16 -27l-43 -65q-31 -45 -82 -83t-121 -50q-39 -6 -123 26q-80 37 -114 37q-39 0 -54 -4q-16 0 -45 -14l-65 -33q-10 -6 -17.5 1t-3.5 19z " />
<glyph unicode="&#x2000;" horiz-adv-x="976" />
<glyph unicode="&#x2001;" horiz-adv-x="1955" />
<glyph unicode="&#x2002;" horiz-adv-x="976" />
<glyph unicode="&#x2003;" horiz-adv-x="1955" />
<glyph unicode="&#x2004;" horiz-adv-x="651" />
<glyph unicode="&#x2005;" horiz-adv-x="487" />
<glyph unicode="&#x2006;" horiz-adv-x="325" />
<glyph unicode="&#x2007;" horiz-adv-x="325" />
<glyph unicode="&#x2008;" horiz-adv-x="243" />
<glyph unicode="&#x2009;" horiz-adv-x="391" />
<glyph unicode="&#x200a;" horiz-adv-x="108" />
<glyph unicode="&#x2010;" horiz-adv-x="745" d="M106 465q-6 35 17 45l108 31l131 26l82 11l80 4h23l35 -9q18 0 36 -24q16 -16 28.5 -56t12.5 -75q0 -43 -12 -60q-10 -6 -29 -10l-47 8h-49l-59 -8l-66 -12q-27 -4 -34 -5t-39 -12l-70 -18l-35 -6q-31 0 -56.5 29.5t-56.5 140.5z" />
<glyph unicode="&#x2011;" horiz-adv-x="745" d="M106 465q-6 35 17 45l108 31l131 26l82 11l80 4h23l35 -9q18 0 36 -24q16 -16 28.5 -56t12.5 -75q0 -43 -12 -60q-10 -6 -29 -10l-47 8h-49l-59 -8l-66 -12q-27 -4 -34 -5t-39 -12l-70 -18l-35 -6q-31 0 -56.5 29.5t-56.5 140.5z" />
<glyph unicode="&#x2012;" horiz-adv-x="745" d="M106 465q-6 35 17 45l108 31l131 26l82 11l80 4h23l35 -9q18 0 36 -24q16 -16 28.5 -56t12.5 -75q0 -43 -12 -60q-10 -6 -29 -10l-47 8h-49l-59 -8l-66 -12q-27 -4 -34 -5t-39 -12l-70 -18l-35 -6q-31 0 -56.5 29.5t-56.5 140.5z" />
<glyph unicode="&#x2026;" horiz-adv-x="1277" d="M860 201q0 35 24.5 62.5t69.5 45.5q16 6 50 10q20 0 38.5 -9t53.5 -50l51 -61q18 -18 18 -58l-4 -37q-14 -76 -56 -95t-71 -19q-49 0 -71 28l-70 84q-33 46 -33 99zM434 201q0 35 24.5 62.5t69.5 45.5q16 6 50 10q20 0 38.5 -9t53.5 -50l51 -61q18 -18 18 -58l-4 -37 q-14 -76 -56 -95t-71 -19q-49 0 -71 28l-70 84q-33 46 -33 99zM8 201q0 35 24.5 62.5t69.5 45.5q16 6 50 10q20 0 38.5 -9t53.5 -50l51 -61q18 -18 18 -58l-4 -37q-14 -76 -56 -95t-71 -19q-49 0 -71 28l-70 84q-33 46 -33 99z" />
<glyph unicode="&#x202f;" horiz-adv-x="391" />
<glyph unicode="&#x2039;" horiz-adv-x="1239" d="M236 551v231l954 355v-213l-731 -258l731 -256v-215z" />
<glyph unicode="&#x203a;" horiz-adv-x="1239" d="M328 195v215l731 256l-731 258v213l954 -355v-231z" />
<glyph unicode="&#x205f;" horiz-adv-x="487" />
<glyph unicode="&#x2122;" horiz-adv-x="2390" d="M1013 143q0 35 2.5 51.5t12.5 48t21.5 61.5t27.5 65l446 897q53 111 83 144.5t71 33.5q16 0 39 -12l37 -27l28 -23l29 -16l25 -12l24 -25q16 -16 17 -53l-13 -74l-14 -74l-43 -188q-6 -33 -10 -71t-4 -85q0 -18 10 -26q10 -6 18 4l119 149l162 211l178 228 q82 100 146 100q23 0 76 -48t76.5 -79t23.5 -59q0 -29 -21 -82l-57 -158l-68 -186l-47 -148l-43 -151l-61 -226q-37 -135 -37 -207l2 -24l2 -19l2 -12v-10q0 -16 -14 -23q-72 -39 -111 -38q-23 0 -51 12l-51 31q-27 20 -42.5 47.5t-15.5 58.5l4 35l13 55l18 72q4 16 14.5 52 t26.5 77q27 94 35 119q16 53 37 104l74 188l-3 11q-8 6 -12 6l-12 -8q-6 -4 -25 -25l-57 -70l-102 -143q-74 -109 -105 -168l-49 -104l-14 -72l4 -27q6 -20 2 -30q-12 -25 -56.5 -50.5t-70.5 -31.5l-51 -6q-33 0 -59.5 11t-48 36.5t-38.5 77.5q-10 51 -10 110 q0 102 24.5 218t55.5 206l12 35q6 23 6 35q0 10 -6 16q-10 4 -20 -16l-35 -68l-66 -129l-75 -166l-84 -221l-23 -59l-8 -47l2 -52l8 -51l-8 -22q-6 -8 -47 -21l-70 -14q-10 -2 -26 -2q-6 0 -17.5 3t-40.5 32l-59 59q-13 24 -13 59zM303 141q0 33 12 80l43 123l66 176 q23 59 44 111.5t58 138.5q76 168 88 195q43 84 64 127q6 10 0 16q-2 2 -12 4q-63 -23 -123 -22q-45 0 -78 12t-57 43l-31 51l-8 55l-2 52q0 29 5 42t29 7l66 -9h29l39 9l495 84l80 12l61 6q47 0 81 -13.5t55 -39.5l32 -53l19 -56l4 -53q0 -41 -35 -41l-76 8l-47 2h-61 q-35 -6 -75 -10t-63.5 -31.5t-74.5 -134.5l-135 -305l-86 -205l-80 -198q-29 -68 -39 -115l-6 -62l2 -41q0 -25 4 -36q0 -25 -26.5 -51.5t-104.5 -26.5q-45 0 -77 16.5t-55.5 53t-23.5 79.5z" />
<glyph unicode="&#xe000;" horiz-adv-x="1000" d="M0 1000h1000v-1000h-1000v1000z" />
<glyph unicode="&#xfb01;" horiz-adv-x="1284" d="M751 223q0 78 25 173.5t51 158.5l54 127l49 113l32 69l13 39q0 18 7 31.5t25 23.5l39 13l37 6q23 0 43 -10q25 -6 50.5 -38t37.5 -65q2 -8 3 -17q0 -29 -25 -73l-82 -149q-47 -84 -100 -258l-7 -45q0 -37 17 -46l26 -2q16 0 43 29l60 70l51 63l45 64q14 25 23 26 q14 0 20 -2l21 -26l14 -33q4 -16 4 -25q0 -53 -51 -135q-61 -102 -110.5 -159.5t-119.5 -108.5q-72 -45 -131 -45q-78 0 -114 55q-12 23 -23.5 48.5t-17.5 49.5zM1071 1188q0 41 28.5 75.5t77.5 49.5l29 6q14 0 43 -21l70 -55q57 -39 57 -96l-6 -35q-6 -25 -19.5 -44 t-50.5 -36q-18 -12 -43 -12t-53 18l-43 37l-45 33q-45 33 -45 80zM61 143q0 41 19 101l51 149l66 187l55 143q-37 0 -69.5 17.5t-43.5 39.5l-4 39q0 35 11.5 67t24.5 51t24 21l41 -12l53 -12q33 -4 50 15.5t60 111.5l15 35q59 141 146 235t198 94h24q51 0 97.5 -22.5 t78.5 -71.5q35 -45 50 -98q8 -25 12 -48.5t4 -54.5q0 -43 -19.5 -86t-66.5 -57l-53 -12q-31 0 -66 38t-31 64l3 27q0 18 -12.5 31.5t-35.5 3.5q-31 -16 -61 -64l-53 -106q-6 -10 8 -17h33h49q55 0 80.5 -31.5t25.5 -66.5q0 -16 -10 -43q-6 -29 -25.5 -51.5t-50.5 -36.5 q-18 -6 -42.5 5t-65.5 11h-43l-37 -12q-16 -2 -41 -49l-57 -137l-68 -187l-43 -151l-18 -107q0 -61 -28 -85.5t-73 -24.5l-35 4q-16 0 -32 12l-64 66q-31 28 -31 75z" />
<glyph unicode="&#xfb02;" horiz-adv-x="1302" d="M749 244q0 86 25 170q12 39 31.5 95t46.5 130q53 147 120.5 299t186.5 360l18 37l11 33l6 41q6 12 20 18l37 13l45 8q20 0 44 -7t50.5 -41t36.5 -67q2 -8 2 -22q0 -16 -4 -25l-92 -174q-37 -68 -70.5 -136.5t-68.5 -148.5l-133 -346l-43 -127q-4 -16 -4 -22q0 -29 34 -29 q16 0 39 23l56 63l94 127l20 33q8 12 23 14q20 0 55 -49l8 -47q0 -16 -4 -34.5t-6 -29.5q-8 -43 -128 -204.5t-180.5 -180t-72.5 -18.5h-16q-29 0 -64 12q-27 12 -57.5 45t-48.5 84q-8 25 -12.5 48.5t-4.5 54.5zM61 143q0 41 19 101l51 149l66 187l55 143q-37 0 -69.5 17.5 t-43.5 39.5l-4 39q0 35 11.5 67t24.5 51t24 21l41 -12l53 -12q33 -4 50 15.5t60 111.5l15 35q59 141 146 235t198 94h24q51 0 97.5 -22.5t78.5 -71.5q35 -45 50 -98q8 -25 12 -48.5t4 -54.5q0 -43 -19.5 -86t-66.5 -57l-53 -12q-31 0 -66 38t-31 64l3 27q0 18 -12.5 31.5 t-35.5 3.5q-31 -16 -61 -64l-53 -106q-6 -10 8 -17h33h49q55 0 80.5 -31.5t25.5 -66.5q0 -16 -10 -43q-6 -29 -25.5 -51.5t-50.5 -36.5q-18 -6 -42.5 5t-65.5 11h-43l-37 -12q-16 -2 -41 -49l-57 -137l-68 -187l-43 -151l-18 -107q0 -61 -28 -85.5t-73 -24.5l-35 4 q-16 0 -32 12l-64 66q-31 28 -31 75z" />
<glyph unicode="&#xfb03;" horiz-adv-x="1972" d="M1439 223q0 78 25 173.5t51 158.5l54 127l49 113l32 69l13 39q0 18 7 31.5t25 23.5l39 13l37 6q23 0 43 -10q25 -6 50.5 -38t37.5 -65q2 -8 3 -17q0 -29 -25 -73l-82 -149q-47 -84 -100 -258l-7 -45q0 -37 17 -46l26 -2q16 0 43 29l60 70l51 63l45 64q14 25 23 26 q14 0 20 -2l21 -26l14 -33q4 -16 4 -25q0 -53 -51 -135q-61 -102 -110.5 -159.5t-119.5 -108.5q-72 -45 -131 -45q-78 0 -114 55q-12 23 -23.5 48.5t-17.5 49.5zM1759 1188q0 41 28.5 75.5t77.5 49.5l29 6q14 0 43 -21l70 -55q57 -39 57 -96l-6 -35q-6 -25 -19.5 -44 t-50.5 -36q-18 -12 -43 -12t-53 18l-43 37l-45 33q-45 33 -45 80zM749 143q0 41 19 101l51 149l66 187l55 143q-37 0 -69.5 17.5t-43.5 39.5l-4 39q0 35 11.5 67t24.5 51t24 21l41 -12l53 -12q33 -4 50 15.5t60 111.5l15 35q59 141 146 235t198 94h24q51 0 97.5 -22.5 t78.5 -71.5q35 -45 50 -98q8 -25 12 -48.5t4 -54.5q0 -43 -19.5 -86t-66.5 -57l-53 -12q-31 0 -66 38t-31 64l3 27q0 18 -12.5 31.5t-35.5 3.5q-31 -16 -61 -64l-53 -106q-6 -10 8 -17h33h49q55 0 80.5 -31.5t25.5 -66.5q0 -16 -10 -43q-6 -29 -25.5 -51.5t-50.5 -36.5 q-18 -6 -42.5 5t-65.5 11h-43l-37 -12q-16 -2 -41 -49l-57 -137l-68 -187l-43 -151l-18 -107q0 -61 -28 -85.5t-73 -24.5l-35 4q-16 0 -32 12l-64 66q-31 28 -31 75zM61 143q0 41 19 101l51 149l66 187l55 143q-37 0 -69.5 17.5t-43.5 39.5l-4 39q0 35 11.5 67t24.5 51 t24 21l41 -12l53 -12q33 -4 50 15.5t60 111.5l15 35q59 141 146 235t198 94h24q51 0 97.5 -22.5t78.5 -71.5q35 -45 50 -98q8 -25 12 -48.5t4 -54.5q0 -43 -19.5 -86t-66.5 -57l-53 -12q-31 0 -66 38t-31 64l3 27q0 18 -12.5 31.5t-35.5 3.5q-31 -16 -61 -64l-53 -106 q-6 -10 8 -17h33h49q55 0 80.5 -31.5t25.5 -66.5q0 -16 -10 -43q-6 -29 -25.5 -51.5t-50.5 -36.5q-18 -6 -42.5 5t-65.5 11h-43l-37 -12q-16 -2 -41 -49l-57 -137l-68 -187l-43 -151l-18 -107q0 -61 -28 -85.5t-73 -24.5l-35 4q-16 0 -32 12l-64 66q-31 28 -31 75z" />
<glyph unicode="&#xfb04;" horiz-adv-x="1990" d="M1437 244q0 86 25 170q12 39 31.5 95t46.5 130q53 147 120.5 299t186.5 360l18 37l11 33l6 41q6 12 20 18l37 13l45 8q20 0 44 -7t50.5 -41t36.5 -67q2 -8 2 -22q0 -16 -4 -25l-92 -174q-37 -68 -70.5 -136.5t-68.5 -148.5l-133 -346l-43 -127q-4 -16 -4 -22 q0 -29 34 -29q16 0 39 23l56 63l94 127l20 33q8 12 23 14q20 0 55 -49l8 -47q0 -16 -4 -34.5t-6 -29.5q-8 -43 -128 -204.5t-180.5 -180t-72.5 -18.5h-16q-29 0 -64 12q-27 12 -57.5 45t-48.5 84q-8 25 -12.5 48.5t-4.5 54.5zM749 143q0 41 19 101l51 149l66 187l55 143 q-37 0 -69.5 17.5t-43.5 39.5l-4 39q0 35 11.5 67t24.5 51t24 21l41 -12l53 -12q33 -4 50 15.5t60 111.5l15 35q59 141 146 235t198 94h24q51 0 97.5 -22.5t78.5 -71.5q35 -45 50 -98q8 -25 12 -48.5t4 -54.5q0 -43 -19.5 -86t-66.5 -57l-53 -12q-31 0 -66 38t-31 64l3 27 q0 18 -12.5 31.5t-35.5 3.5q-31 -16 -61 -64l-53 -106q-6 -10 8 -17h33h49q55 0 80.5 -31.5t25.5 -66.5q0 -16 -10 -43q-6 -29 -25.5 -51.5t-50.5 -36.5q-18 -6 -42.5 5t-65.5 11h-43l-37 -12q-16 -2 -41 -49l-57 -137l-68 -187l-43 -151l-18 -107q0 -61 -28 -85.5 t-73 -24.5l-35 4q-16 0 -32 12l-64 66q-31 28 -31 75zM61 143q0 41 19 101l51 149l66 187l55 143q-37 0 -69.5 17.5t-43.5 39.5l-4 39q0 35 11.5 67t24.5 51t24 21l41 -12l53 -12q33 -4 50 15.5t60 111.5l15 35q59 141 146 235t198 94h24q51 0 97.5 -22.5t78.5 -71.5 q35 -45 50 -98q8 -25 12 -48.5t4 -54.5q0 -43 -19.5 -86t-66.5 -57l-53 -12q-31 0 -66 38t-31 64l3 27q0 18 -12.5 31.5t-35.5 3.5q-31 -16 -61 -64l-53 -106q-6 -10 8 -17h33h49q55 0 80.5 -31.5t25.5 -66.5q0 -16 -10 -43q-6 -29 -25.5 -51.5t-50.5 -36.5q-18 -6 -42.5 5 t-65.5 11h-43l-37 -12q-16 -2 -41 -49l-57 -137l-68 -187l-43 -151l-18 -107q0 -61 -28 -85.5t-73 -24.5l-35 4q-16 0 -32 12l-64 66q-31 28 -31 75z" />
</font>
</defs>
</svg>
